/* XPM */
static char * kblackbox_xpm[] = {
"48 48 218 2",
"  	c None",
". 	c #414141",
"+ 	c #404040",
"@ 	c #464646",
"# 	c #424242",
"$ 	c #484848",
"% 	c #585858",
"& 	c #818181",
"* 	c #7D7D7D",
"= 	c #7F7F7F",
"- 	c #4D4D4D",
"; 	c #727272",
"> 	c #5A5A5A",
", 	c #878787",
"' 	c #4B4B4B",
") 	c #6E6E6E",
"! 	c #666666",
"~ 	c #626262",
"{ 	c #767676",
"] 	c #555555",
"^ 	c #6F6F6F",
"/ 	c #5F5F5F",
"( 	c #797979",
"_ 	c #454545",
": 	c #858585",
"< 	c #272727",
"[ 	c #595959",
"} 	c #787878",
"| 	c #696969",
"1 	c #5B5B5B",
"2 	c #868686",
"3 	c #262626",
"4 	c #2F2F2F",
"5 	c #2E2E2E",
"6 	c #A5A5A5",
"7 	c #575757",
"8 	c #4C4C4C",
"9 	c #4F4F4F",
"0 	c #5E5E5E",
"a 	c #2D2D2D",
"b 	c #565656",
"c 	c #7E7E7E",
"d 	c #303030",
"e 	c #6B6B6B",
"f 	c #363636",
"g 	c #505050",
"h 	c #545454",
"i 	c #3F3F3F",
"j 	c #4E4E4E",
"k 	c #4A4A4A",
"l 	c #373737",
"m 	c #5D5D5D",
"n 	c #393939",
"o 	c #383838",
"p 	c #353535",
"q 	c #676767",
"r 	c #3D3D3D",
"s 	c #3E3E3E",
"t 	c #343434",
"u 	c #606060",
"v 	c #262600",
"w 	c #2F2F01",
"x 	c #5A5A06",
"y 	c #4B4B04",
"z 	c #2C2C01",
"A 	c #2D2D01",
"B 	c #2E2E01",
"C 	c #3C3C3C",
"D 	c #737373",
"E 	c #292900",
"F 	c #333301",
"G 	c #494949",
"H 	c #D4D400",
"I 	c #606000",
"J 	c #272700",
"K 	c #242400",
"L 	c #313103",
"M 	c #5C5C5C",
"N 	c #3B3B3B",
"O 	c #6B6B00",
"P 	c #404001",
"Q 	c #363603",
"R 	c #E0E000",
"S 	c #5E5E00",
"T 	c #5D5D00",
"U 	c #252500",
"V 	c #333304",
"W 	c #393907",
"X 	c #282828",
"Y 	c #878700",
"Z 	c #AAAA05",
"` 	c #373704",
" .	c #303002",
"..	c #323232",
"+.	c #E9E902",
"@.	c #5A5A00",
"#.	c #565600",
"$.	c #383806",
"%.	c #343406",
"&.	c #5A5A11",
"*.	c #313131",
"=.	c #292929",
"-.	c #FFFF2B",
";.	c #FFFF25",
">.	c #5E5E03",
",.	c #606002",
"'.	c #545400",
").	c #5B5B05",
"!.	c #353506",
"~.	c #585811",
"{.	c #515151",
"].	c #525252",
"^.	c #F5F50A",
"/.	c #646401",
"(.	c #696903",
"_.	c #EFEF0E",
":.	c #535305",
"<.	c #4D4D06",
"[.	c #444406",
"}.	c #54540D",
"|.	c #6A6A0E",
"1.	c #444444",
"2.	c #DEDE00",
"3.	c #626200",
"4.	c #6E6E00",
"5.	c #D6D60A",
"6.	c #3F3F05",
"7.	c #363605",
"8.	c #3E3E05",
"9.	c #53530C",
"0.	c #61610D",
"a.	c #4E4E0E",
"b.	c #474747",
"c.	c #B5B509",
"d.	c #3D3D04",
"e.	c #313104",
"f.	c #83830C",
"g.	c #7D7D0D",
"h.	c #4D4D0D",
"i.	c #646464",
"j.	c #333333",
"k.	c #434343",
"l.	c #9F9F09",
"m.	c #474706",
"n.	c #51510A",
"o.	c #7C7C0B",
"p.	c #7C7C0C",
"q.	c #7E7E0E",
"r.	c #727205",
"s.	c #202000",
"t.	c #494909",
"u.	c #7B7B0A",
"v.	c #7D7D0C",
"w.	c #3A3A3A",
"x.	c #474708",
"y.	c #484808",
"z.	c #484809",
"A.	c #7A7A0A",
"B.	c #7B7B0B",
"C.	c #9D9D0C",
"D.	c #9D9D0D",
"E.	c #2C2C2C",
"F.	c #636363",
"G.	c #464606",
"H.	c #474707",
"I.	c #999909",
"J.	c #9B9B0A",
"K.	c #8F8F0B",
"L.	c #90900C",
"M.	c #535353",
"N.	c #585806",
"O.	c #464607",
"P.	c #656507",
"Q.	c #676708",
"R.	c #8D8D09",
"S.	c #6D6D02",
"T.	c #6C6C02",
"U.	c #62620F",
"V.	c #606005",
"W.	c #454506",
"X.	c #4C4C06",
"Y.	c #2B2B01",
"Z.	c #636301",
"`.	c #616102",
" +	c #7C7C02",
".+	c #70700B",
"++	c #646411",
"@+	c #575701",
"#+	c #939301",
"$+	c #989801",
"%+	c #949401",
"&+	c #8F8F01",
"*+	c #686801",
"=+	c #717103",
"-+	c #94940B",
";+	c #868601",
">+	c #8F8F02",
",+	c #707000",
"'+	c #B0B00E",
")+	c #787800",
"!+	c #A5A504",
"~+	c #717171",
"{+	c #686868",
"]+	c #D5D50A",
"^+	c #555502",
"/+	c #5C5C02",
"(+	c #353504",
"_+	c #616161",
":+	c #FFFF21",
"<+	c #606001",
"[+	c #626201",
"}+	c #6A6A02",
"|+	c #E4E404",
"1+	c #D8D801",
"2+	c #616100",
"3+	c #686800",
"4+	c #949400",
"5+	c #747474",
"                                                                                                ",
"                                                                                                ",
"                                                                                                ",
"                                    . + + . + @ + + #                                           ",
"                          . . + . + $ + % & . + + + . + . * + + . + + . . + +                   ",
"              + + . . = - ; > + + + . # + . , . ' ) ! ~ + + . { + . . % + ] + + ^ . / + +       ",
"    + + . # . + + . . . . . + . . . ( + + . + + . ~ _ + . . + . + . + # : / . + + + + < <       ",
"$ _ _ . + . . + . + . + # . + + . . + . # [ ^ % - $ } | 1 % 2 + + # . + . # ) . + + 3 < 3       ",
"4 5 5 4 4 4 - . . + . . # . + + . . + + . # . + + + # 6 . + + . 7 8 9 . . . 0 [ + 3 4 3 3       ",
"4 4 5 a ' 5 5 4 4 4 4 5 + # * 7 . b c . . # + . # + # . . + . . . . . + . . + + 3 3 < 3         ",
"5 5 d e 4 4 4 4 4 4 4 4 5 f g 5 # 4 . . . . + . . + . + + . . + h + . + = i { < < < < <         ",
"d 5 5 g 5 4 4 d j d 4 4 7 5 4 5 5 k l 5 5 5 5 5 + + + . + . . m @ + . + # 3 7 < 3 < 3 <         ",
"4 n o 4 5 4 4 ! 5 l p 4 o 4 a 4 4 7 q 5 4 5 4 b ' 5 5 d 4 5 + + + [ ) j 3 3 3 3 3 3 < <         ",
"5 5 ' 4 4 4 4 4 5 4 9 5 4 5 5 5 5 5 ; g r 4 4 5 s k t 4 d 4 5 4 4 4 5 < < 3 < 3 < < 3 <         ",
"5 4 5 u d 5 v w x y z A B B 4 5 C [ D 0 5 5 4 4 5 d # 5 4 4 5 4 # 4 4 3 3 < < < < 3 <           ",
"  4 5 u 4 E w F 5 5 p G H I I J K L % M f 5 5 5 4 4 5 4 5 4 4 4 5 G 4 < < f 3 3 3 3 <           ",
"  4 5 N O P Q 9 p n u 4 4 4 4 R S T U V W 5 5 d 4 4 5 4 4 4 5 5 % 4 4 a < < X 3 < 3 X           ",
"  8 p 5 Y Z `  ...4 q g 5 5 _ 9 5 +.@.#.$.%.&.5 4 5 4 5 5 5 4 4 *.@ 4 < < < =.3 < l 5           ",
"  5 d / 5 -.;.>.,.4 4 k 4 4 N o 5 4 5 '.).!.%.~.5 5 5 5 4 4 5 d i {.[ < < # ] < o < <           ",
"    d 4 5 ].^./.(.5 4 5 5 4 5 4 4 5 4 _.:.<.[.}.}.|.5 4 5 4 5 4 i {.p i < < 1.3 < s             ",
"    4 5 4 5 5 2.3.4.4 4 d 4 N 4 5 4 4 j 5.6.7.8.9.0.a.4 5 5 4 5 5 s ' 3 3 < 3 C < h             ",
"    p G b.4 4 4 5 4 5 5 4 4 4 f 5 s 4 [ s c.d.e.f.g.h.a.4 5 4 o G i.j.< < p u < =.3             ",
"    4 4 5 4 5 d 4 4 # 4 5 d 4 5 # 0 . 4 k.l.m.n.o.p.g.q.4 5 k.1 4 r 5 3 p 3 < 3 < <             ",
"      ) 4 5 5 5 ; 5 d 5 4 4 5 5 4 $ 5 4 5 r.s.t.u.o.v.g.q.5 4 4 5 N 3 3 s 3 X < *.3             ",
"      r 4 4 4 5 5 s 4 4 _ d 4 d w.4 4 4 4 x.y.z.A.B.o.C.D.4 5 4 4 4 < =.E.3 < k <               ",
"      5 ^ 4 4 4 4 4 4 4 F.p t j.5 5 4 d G.H.x.y.I.J.K.L.S *.d 5 4 4 3 < X 3 1.3 <               ",
"      M.p *.5 1.4 5 4 5 ] 5 d 4 5 4 4 N.G.O.P.Q.R.S S.T.T 4 4 4 5 4 < < 3 e t 3 3               ",
"        5 # 4 r 4 4 4 4 4 4 5 5 4 5 U.V.W.X.Y.Z.`.T.T. +5 d 5 4 5 4 < 3 o < 3 < 3               ",
"        4 4 5 - 5 4 5 d 4 4 d 4 s. ..+++@+#+$+%+&+u 4 5 4 4 4 5 5 < < < 3 3 < <                 ",
"        5 4 4 p 5 4 d *.d 5 5 *+=+-+;+>+#+4 4 M.4 5 D 4 5 5 5 5 w.3 3 3 < 3 < %                 ",
"          5 o 5 4 k s 5 5 5 5 ,+'+)+5 5 4 4 s g 4 4 s . 4 4 4 5 % < < ..3 j.< 3                 ",
"          l 5 b.5 ] ..) ' 4 4 !+4 4 4 4 4 4 + 4 4 4 4 5 4 4 5 5 p < < 3 < b.3                   ",
"          p t r 5 a 4 ~+5 7 5 4 5 4 4 4 4 5 + m 4 d 5 4 4 4 5 j.4 ' 3 C 3 w.N                   ",
"          d 4 4 d 5 5 s + 4 ~ 5 @ 1.5 5 5 + 1.d 5 4 4 t 5 d d 4 4 ]._ 3 =.<                     ",
"            5 4 d {+5 4 5 ]+^+/+(+5 _ k 5 _+5 5 4 5 5 d 5 4 5 5 4 X < l < 5                     ",
"            4 5 4 a 5 4 t 4 :+<+[+}+4 4 d 4 i 5 4 4 5 8 $ h 5 4 4 5 < 3 <                       ",
"                5 4 d _ 4 *.k.|+1+2+3+4 4 4 4 d 4 a 5 5 - % d 5 5 3 ' 3 X                       ",
"                    > 5 5 5 M.5 _+4 4+4 5 w.b.C 4 4 4 4 a 4 4 4 3 < < k.                        ",
"                        4 8 s 5 5 4 4 5 4 g 5+d 0 4 4 4 4 5 5 4 3 3 < b                         ",
"                            4 4 4 b.5 @ 5 5 i i.4 s 8 5 4 4 5 4 i < G                           ",
"                              d 5 4 4 4 _ 5 4 5 [ ' 5 j.4 {.l . d 3 <                           ",
"                                  4 5 5 5 j.5 4 4 5 d 5 d h 4 4 =.3 <                           ",
"                                      4 4 5 ].4 d 4 4 4 4 4 r 5 < 3                             ",
"                                          4 4 5 u 4 4 5 _ ; 1.- 3 <                             ",
"                                              5 5 5 4 d N 5 4 4 3                               ",
"                                                  5 5 d 1 4 a < 3                               ",
"                                                      5 _ % 4 3                                 ",
"                                                          4 4 p                                 "};
