/* XPM */
static char * kblackbox_xpm[] = {
"32 32 255 2",
"  	c None",
". 	c #000000",
"+ 	c #161616",
"@ 	c #0D0D0D",
"# 	c #0C0C0C",
"$ 	c #444444",
"% 	c #4C4C4C",
"& 	c #7C7C7C",
"* 	c #4B4B4B",
"= 	c #414141",
"- 	c #494949",
"; 	c #333333",
"> 	c #252525",
", 	c #262626",
"' 	c #424242",
") 	c #666666",
"! 	c #4A4A4A",
"~ 	c #464646",
"{ 	c #606060",
"] 	c #3D3D3D",
"^ 	c #393939",
"/ 	c #3F3F3F",
"( 	c #6F6F6F",
"_ 	c #5C5C5C",
": 	c #454545",
"< 	c #636363",
"[ 	c #595959",
"} 	c #717171",
"| 	c #474747",
"1 	c #4F4F4F",
"2 	c #404040",
"3 	c #535353",
"4 	c #6B6B6B",
"5 	c #555555",
"6 	c #707070",
"7 	c #5B5B5B",
"8 	c #696969",
"9 	c #5A5A5A",
"0 	c #515151",
"a 	c #656565",
"b 	c #343434",
"c 	c #2E2E2E",
"d 	c #383838",
"e 	c #373737",
"f 	c #484848",
"g 	c #585858",
"h 	c #3C3C3C",
"i 	c #6C6C6C",
"j 	c #545454",
"k 	c #3B3B3B",
"l 	c #525252",
"m 	c #2C2C2C",
"n 	c #2F2F2F",
"o 	c #323232",
"p 	c #313131",
"q 	c #303030",
"r 	c #363636",
"s 	c #434343",
"t 	c #4E4E4E",
"u 	c #676767",
"v 	c #646464",
"w 	c #2B2B2B",
"x 	c #292929",
"y 	c #353535",
"z 	c #505050",
"A 	c #242424",
"B 	c #272727",
"C 	c #2F2F30",
"D 	c #333335",
"E 	c #4A4A51",
"F 	c #272736",
"G 	c #3A3A48",
"H 	c #33333B",
"I 	c #37373B",
"J 	c #727272",
"K 	c #3A3A3A",
"L 	c #4D4D4D",
"M 	c #3E3E3E",
"N 	c #232323",
"O 	c #282828",
"P 	c #4E4E4F",
"Q 	c #3C3C40",
"R 	c #2A2A27",
"S 	c #29290B",
"T 	c #A2A213",
"U 	c #848416",
"V 	c #34341C",
"W 	c #2A2A0C",
"X 	c #31312A",
"Y 	c #2B2B37",
"Z 	c #47474C",
"` 	c #7B7B7F",
" .	c #303031",
"..	c #43434D",
"+.	c #626232",
"@.	c #545400",
"#.	c #79791C",
"$.	c #272739",
"%.	c #313143",
"&.	c #89890C",
"*.	c #A1A113",
"=.	c #999916",
"-.	c #5E5E00",
";.	c #575700",
">.	c #41413C",
",.	c #43433D",
"'.	c #2B2B32",
").	c #2D2D34",
"!.	c #323234",
"~.	c #2D2D2D",
"{.	c #2E2E3C",
"].	c #BEBE0E",
"^.	c #B5B501",
"/.	c #393919",
"(.	c #25253A",
"_.	c #545458",
":.	c #4E4E54",
"<.	c #242431",
"[.	c #2D2D46",
"}.	c #737340",
"|.	c #A4A412",
"1.	c #9D9D00",
"2.	c #828204",
"3.	c #616115",
"4.	c #7C7C33",
"5.	c #272735",
"6.	c #333334",
"7.	c #2A2A2A",
"8.	c #47474D",
"9.	c #2E2E3F",
"0.	c #DCDC74",
"a.	c #CACA23",
"b.	c #ACAC0E",
"c.	c #212134",
"d.	c #464647",
"e.	c #36363B",
"f.	c #262635",
"g.	c #2A2A34",
"h.	c #BFBF0A",
"i.	c #929215",
"j.	c #717130",
"k.	c #474731",
"l.	c #2A2A35",
"m.	c #343435",
"n.	c #5E5E5E",
"o.	c #2A2A2F",
"p.	c #44443D",
"q.	c #B5B50D",
"r.	c #C5C507",
"s.	c #5A5A2A",
"t.	c #303033",
"u.	c #ADAD2B",
"v.	c #A1A107",
"w.	c #86860F",
"x.	c #A5A51D",
"y.	c #BDBD24",
"z.	c #494931",
"A.	c #2B2B35",
"B.	c #2B2B34",
"C.	c #353532",
"D.	c #37372F",
"E.	c #383834",
"F.	c #313133",
"G.	c #333338",
"H.	c #CECE34",
"I.	c #727209",
"J.	c #A4A417",
"K.	c #C6C622",
"L.	c #A5A524",
"M.	c #414133",
"N.	c #575757",
"O.	c #232336",
"P.	c #B8B81B",
"Q.	c #70700F",
"R.	c #BBBB1C",
"S.	c #C7C71E",
"T.	c #D1D122",
"U.	c #83832D",
"V.	c #2B2B38",
"W.	c #313132",
"X.	c #202038",
"Y.	c #8B8B1C",
"Z.	c #7C7C13",
"`.	c #B3B31A",
" +	c #C1C11B",
".+	c #CCCC1E",
"++	c #EAEA22",
"@+	c #1B1B35",
"#+	c #73731E",
"$+	c #9D9D0E",
"%+	c #9D9D16",
"&+	c #C3C319",
"*+	c #CFCF16",
"=+	c #CECE1A",
"-+	c #C4C409",
";+	c #21213A",
">+	c #212121",
",+	c #81812D",
"'+	c #AEAE09",
")+	c #939311",
"!+	c #848409",
"~+	c #BBBB0C",
"{+	c #B9B901",
"]+	c #D3D300",
"^+	c #7E7E1B",
"/+	c #2A2A37",
"(+	c #2D2D37",
"_+	c #3C3C28",
":+	c #2C2C0A",
"<+	c #BABA1B",
"[+	c #BBBB1A",
"}+	c #C1C109",
"|+	c #C3C30C",
"1+	c #CFCF0C",
"2+	c #343433",
"3+	c #1E1E37",
"4+	c #E2E208",
"5+	c #F3F315",
"6+	c #99991A",
"7+	c #92921B",
"8+	c #373731",
"9+	c #30304C",
"0+	c #323248",
"a+	c #2C2C35",
"b+	c #1E1E36",
"c+	c #BBBB12",
"d+	c #494932",
"e+	c #292937",
"f+	c #2C2C37",
"g+	c #2D2D32",
"h+	c #626262",
"i+	c #35353C",
"j+	c #3C3C51",
"k+	c #222238",
"l+	c #373740",
"m+	c #343436",
"n+	c #56562B",
"o+	c #9E9E2B",
"p+	c #707019",
"q+	c #3D3D48",
"r+	c #373738",
"s+	c #929252",
"t+	c #C4C404",
"u+	c #C4C403",
"v+	c #55552A",
"w+	c #313134",
"x+	c #393953",
"y+	c #8B8B26",
"z+	c #858531",
"A+	c #242437",
"B+	c #38383B",
"C+	c #2A2A3D",
"D+	c #44442D",
"E+	c #6A6A6A",
"F+	c #202020",
"                          . . . . . . .                         ",
"                  . + @ # $ % & * = - ; . . . . . . .           ",
"          . > , > ' ) ! ~ { ] ^ ) / ( _ * : < * ! [ } . . . . . ",
"  . . . . $ | | ~ : = ' = 1 2 3 4 1 5 6 7 8 9 2 ' / 0 a $ | ; . ",
". b c d e ~ 2 2 2 : 5 f ~ g / ' ] / h i j k ] j 1 $ 2 l l m n . ",
". o ! - p p q o q r < 2 2 7 $ f : ~ ' 2 / s 2 t = s u v w > x . ",
". ; $ ^ ; h ! b y z o n s s m p q 2 / = = ' g - ! $ y * A B > . ",
". k / C D E F G H I D o e J h y K L M q p ; K h 3 ' N > > O > . ",
"  . P Q R S T U V W X Y Z ` P  .b o K ] b b o = p B B O O w .   ",
"  . ..+.@.#.$.%.&.*.=.-.;.>.,.'.).!.; ; b y p : ] ~.c m B w .   ",
"  . {.].^./.(._.:.<.[.}.|.1.2.3.4.5.6.y b b q ' d 7., , A y .   ",
"  . 8.9.0.a.b.c.d.p k e.f.g.h.&.i.j.k.l.m.b o f n.y q 9 w o .   ",
"    . o.p.q.r.s.t.b K ; ; ).u.v.w.x.y.z.A.b p d f y N c p . .   ",
"    . z B.C.D.E.F.b y d M G.&.H.I.J.K.L.M.F.h L l B m 5 m .     ",
"    . p ; p z ^ r ; ; b N.= O.P.Q.R.S.T.U.V.l o r B r N O .     ",
"    . w o q f ^ p 2 q y h W.X.Y.Z.`. +.+++@+o b q x q A = .     ",
"      . q ^ ; b ; { b y W.A.#+$+%+&+*+=+-+;+b y c O n ~ >+.     ",
"      . / = ; y o / p D V.,+'+)+!+~+{+]+^+/+b b n O M d A .     ",
"      . K - o o ; ; (+_+:+<+[+}+|+1+&.2+g.m.; o O B B w .       ",
"      . K e o ] n q 3+4+5+6+7+8+9+0+a+[ b b q % A m x p .       ",
"        . ~ ^ - < / b+c+d+e+f+g+s b o r b y q M A x r .         ",
"        . = c O h+i+j+k+l+6.o b z $ y b b b r K f d ~..         ",
"        . m / * m+n+o+p+g.q+M [ ; p ; o ~.q o b ^ r .           ",
"        . . w q r+5.s+t+u+v+l.; ] ; b M z l p ; q 7..           ",
"            . . = w+x+y+z+|+A+y h ; o p M $ o m e .             ",
"                . . B+a+C+D+l.! E+L e b ; o ; x w .             ",
"                    . . M k : n $ % - 2 p / d M .               ",
"                        . . ] K c K K p o N.r q .               ",
"                            . . ! / ; ; ; $ ] .                 ",
"                                . . d b ' 0 ~ .                 ",
"                                    . . 5 y .                   ",
"                                        . . F+                  "};
