/* XPM */
static char*kblackbox[]={
"32 32 9 1",
"c c #808080",
"f c #c0c000",
"e c #808000",
"d c #404000",
"# c #000000",
"g c #ffff00",
"b c #303030",
". c None",
"a c #585858",
"................................",
"..............#####.............",
".........#####ababb########.....",
"....#####ababcbabbaabbabbab####.",
"..##abbbabbbababbcbbabbabbbabbb#",
".#bcbaaabbbbbbbabbbabbcbbcbbbba#",
".#bbbbabcaababbbbabbbababbbbacb#",
".#bbabbbbbbcaacaabbbbbababbaaba#",
".#babbbbbbbbbbbbbcabbbbbbacbbbb#",
"..#bbbdeeeefdbabbabaacaccabbbb#.",
"..#bdeeebbgeeefdbbbbbbbaababbb#.",
"..#befedbabbgeeefdbbbbabcbbbba#.",
"...#bgeebbbbbbgeeeddbbabbbbbbb#.",
"...#bbgedbbbbbegeeefbabbabbabb#.",
"...#bbbbbbbbbbbbfeeedbbbbbbbb#..",
"...#bbbbbbbbabbbfeeefebbcbaba#..",
"....#bbbbbbbbbbfeeefefbbbbbbb#..",
"....#babbabbbbfeeeeefebaabbbb#..",
"....#bbbbbbbdfeeeeeefbbbbbbab#..",
"....#bbabbbbfeeefffbbbbcbbbb#...",
".....#bbabbbefbbbbbbbbbbbabb#...",
".....#bbbbbbbbbbbabbbbbcbbb#....",
".....#babbfedbbbbabbbbbbbba#....",
"......#bbbffeebbabbbbbaabb#.....",
".......##bbbfedbbbbbbbbbbb#.....",
".........##bbbbbbaabbbcba#......",
"...........#bbbabbbabbbbb#......",
"............##bbbbbbbbabb.......",
"..............##bbbbbbbb#.......",
"................##bbbbc#........",
"..................##bbb#........",
"....................###........."};
