/* XPM */
static char * large_kblackbox_xpm[] = {
"48 48 216 2",
"  	c None",
". 	c #000000",
"+ 	c #484848",
"@ 	c #404040",
"# 	c #585858",
"$ 	c #818181",
"% 	c #414141",
"& 	c #727272",
"* 	c #5A5A5A",
"= 	c #424242",
"- 	c #878787",
"; 	c #4B4B4B",
"> 	c #6E6E6E",
", 	c #666666",
"' 	c #626262",
") 	c #767676",
"! 	c #555555",
"~ 	c #797979",
"{ 	c #454545",
"] 	c #858585",
"^ 	c #5F5F5F",
"/ 	c #272727",
"( 	c #595959",
"_ 	c #6F6F6F",
": 	c #4D4D4D",
"< 	c #787878",
"[ 	c #696969",
"} 	c #5B5B5B",
"| 	c #868686",
"1 	c #262626",
"2 	c #2E2E2E",
"3 	c #2F2F2F",
"4 	c #A5A5A5",
"5 	c #575757",
"6 	c #4C4C4C",
"7 	c #4F4F4F",
"8 	c #5E5E5E",
"9 	c #2D2D2D",
"0 	c #7D7D7D",
"a 	c #565656",
"b 	c #7E7E7E",
"c 	c #303030",
"d 	c #6B6B6B",
"e 	c #363636",
"f 	c #505050",
"g 	c #545454",
"h 	c #7F7F7F",
"i 	c #3F3F3F",
"j 	c #4E4E4E",
"k 	c #4A4A4A",
"l 	c #373737",
"m 	c #5D5D5D",
"n 	c #464646",
"o 	c #393939",
"p 	c #383838",
"q 	c #353535",
"r 	c #676767",
"s 	c #3D3D3D",
"t 	c #3E3E3E",
"u 	c #343434",
"v 	c #606060",
"w 	c #262600",
"x 	c #2F2F01",
"y 	c #A9A90E",
"z 	c #99990A",
"A 	c #666603",
"B 	c #2D2D01",
"C 	c #2E2E01",
"D 	c #3C3C3C",
"E 	c #737373",
"F 	c #292900",
"G 	c #6C6C03",
"H 	c #737303",
"I 	c #969696",
"J 	c #ECEC01",
"K 	c #AFAF01",
"L 	c #272700",
"M 	c #242400",
"N 	c #313103",
"O 	c #5C5C5C",
"P 	c #494949",
"Q 	c #3B3B3B",
"R 	c #B7B701",
"S 	c #898903",
"T 	c #797907",
"U 	c #F1F101",
"V 	c #ADAD01",
"W 	c #ACAC01",
"X 	c #252500",
"Y 	c #333304",
"Z 	c #393907",
"` 	c #282828",
" .	c #C8C801",
"..	c #DADA0C",
"+.	c #7A7A0A",
"@.	c #303002",
"#.	c #323232",
"$.	c #F5F505",
"%.	c #A9A901",
"&.	c #A5A501",
"*.	c #7C7C0E",
"=.	c #75750E",
"-.	c #A9A929",
";.	c #313131",
">.	c #292929",
",.	c #FFFF64",
"'.	c #FFFF57",
").	c #ADAD07",
"!.	c #AFAF05",
"~.	c #A3A301",
"{.	c #AAAA0C",
"].	c #77770E",
"^.	c #A7A729",
"/.	c #515151",
"(.	c #525252",
"_.	c #FAFA18",
":.	c #B2B203",
"<.	c #B6B607",
"[.	c #F8F821",
"}.	c #A2A20C",
"|.	c #9B9B0E",
"1.	c #8F8F0E",
"2.	c #A3A31F",
"3.	c #B6B621",
"4.	c #444444",
"5.	c #B0B001",
"6.	c #B9B901",
"7.	c #EDED18",
"8.	c #88880C",
"9.	c #79790C",
"0.	c #86860C",
"a.	c #A2A21D",
"b.	c #AFAF1F",
"c.	c #9C9C21",
"d.	c #474747",
"e.	c #DFDF15",
"f.	c #85850A",
"g.	c #6F6F0A",
"h.	c #C6C61D",
"i.	c #C3C31F",
"j.	c #9B9B1F",
"k.	c #646464",
"l.	c #333333",
"m.	c #434343",
"n.	c #D5D515",
"o.	c #93930E",
"p.	c #A0A018",
"q.	c #C2C21A",
"r.	c #C2C21D",
"s.	c #C3C321",
"t.	c #BCBC0C",
"u.	c #4C4C01",
"v.	c #969615",
"w.	c #C1C118",
"x.	c #C3C31D",
"y.	c #3A3A3A",
"z.	c #939313",
"A.	c #959513",
"B.	c #959515",
"C.	c #C1C11A",
"D.	c #D4D41D",
"E.	c #D4D41F",
"F.	c #2C2C2C",
"G.	c #636363",
"H.	c #92920E",
"I.	c #939310",
"J.	c #D2D215",
"K.	c #D3D318",
"L.	c #CDCD1A",
"M.	c #CDCD1D",
"N.	c #A7A70E",
"O.	c #929210",
"P.	c #B3B310",
"Q.	c #B4B413",
"R.	c #CCCC15",
"S.	c #B8B805",
"T.	c #B0B024",
"U.	c #AFAF0C",
"V.	c #91910E",
"W.	c #9A9A0E",
"X.	c #646403",
"Y.	c #B1B103",
"Z.	c #C2C205",
"`.	c #202000",
" +	c #BABA1A",
".+	c #B2B229",
"++	c #A6A603",
"@+	c #CFCF03",
"#+	c #D1D103",
"$+	c #CDCD03",
"%+	c #AFAFAF",
"&+	c #B5B503",
"*+	c #BBBB07",
"=+	c #CFCF1A",
"-+	c #C8C803",
";+	c #CDCD05",
">+	c #535353",
",+	c #BABA01",
"'+	c #DDDD21",
")+	c #C0C001",
"!+	c #D8D80A",
"~+	c #717171",
"{+	c #686868",
"]+	c #A4A405",
"^+	c #ABAB05",
"/+	c #353504",
"(+	c #616161",
"_+	c #FFFF4E",
":+	c #AFAF03",
"<+	c #B0B003",
"[+	c #B6B605",
"}+	c #F3F30A",
"|+	c #EEEE03",
"1+	c #B5B501",
"2+	c #CFCF01",
"3+	c #747474",
"                                                                                                ",
"                                                                                                ",
"                                        . . . . . . . . .                                       ",
"                              . . . . . + @ # $ % @ @ @ % . . . . . . . . . . . .               ",
"                  . . . . . . & * @ @ @ % = @ % - % ; > , ' @ @ % ) @ % % # @ ! @ . . . . . .   ",
"        . . . . . @ @ % % % % % @ % % % ~ @ @ % @ @ % ' { @ % % @ % @ % @ = ] ^ % @ @ @ @ / .   ",
"    . . { % @ % % @ % @ % @ = % @ @ % % @ % = ( _ # : + < [ } # | @ @ = % @ % = > % @ @ 1 / .   ",
"    . 2 2 3 3 3 : % % @ % % = % @ @ % % @ @ % = % @ @ @ = 4 % @ @ % 5 6 7 % % % 8 ( @ 1 3 1 .   ",
"    . 3 2 9 ; 2 2 3 3 3 3 2 @ = 0 5 % a b % % = @ % = @ = % % @ % % % % % @ % % @ @ 1 1 / .     ",
"    . 2 c d 3 3 3 3 3 3 3 3 2 e f 2 = 3 % % % % @ % % @ % @ @ % % @ g @ % @ h i ) / / / / .     ",
"    . 2 2 f 2 3 3 c j c 3 3 5 2 3 2 2 k l 2 2 2 2 2 @ @ @ % @ % % m n @ % @ = 1 5 / 1 / 1 .     ",
"    . o p 3 2 3 3 , 2 l q 3 p 3 9 3 3 5 r 2 3 2 3 a ; 2 2 c 3 2 @ @ @ ( > j 1 1 1 1 1 1 / .     ",
"    . 2 ; 3 3 3 3 3 2 3 7 2 3 2 2 2 2 2 & f s 3 3 2 t k u 3 c 3 2 3 3 3 2 / / 1 / 1 / / 1 .     ",
"    . 3 2 v c 2 w x y z A B C C 3 2 D ( E 8 2 2 3 3 2 c = 2 3 3 2 3 = 3 3 1 1 / / / / 1 .       ",
"      . 2 v 3 F G H 2 2 q I J K K L M N # O e 2 2 2 3 3 2 3 2 3 3 3 2 P 3 / / e 1 1 1 1 .       ",
"      . 2 Q R S T 7 q o v 3 3 3 3 U V W X Y Z 2 2 c 3 3 2 3 3 3 2 2 # 3 3 9 / / ` 1 / 1 .       ",
"      . q 2  ...+.@.#.3 r f 2 2 { 7 2 $.%.&.*.=.-.2 3 2 3 2 2 2 3 3 ;.n 3 / / / >.1 / l .       ",
"      . c ^ 2 ,.'.).!.3 3 k 3 3 Q p 2 3 2 ~.{.].=.^.2 2 2 2 3 3 2 c i /.( / / = ! / p / .       ",
"        . 3 2 (._.:.<.2 3 2 2 3 2 3 3 2 3 [.}.|.1.2.2.3.2 3 2 3 2 3 i /.q i / / 4.1 / .         ",
"        . 2 3 2 2 U 5.6.3 3 c 3 Q 3 2 3 3 j 7.8.9.0.a.b.c.3 2 2 3 2 2 t ; 1 1 / 1 D / .         ",
"        . P d.3 3 3 2 3 2 2 3 3 3 e 2 t 3 ( | e.f.g.h.i.j.c.3 2 3 p P k.l./ / q v / >..         ",
"        . 3 2 3 2 c 3 3 = 3 2 c 3 2 = 8 % 3 m.n.o.p.q.r.i.s.3 2 m.} 3 s 2 1 q 1 / 1 / .         ",
"          . 3 2 2 2 & 2 c 2 3 3 2 2 3 + 2 3 2 t.u.v.w.q.x.i.s.2 3 3 2 Q 1 1 t 1 ` / ;.1         ",
"          . 3 3 3 2 2 t 3 3 { c 3 c y.3 3 3 3 z.A.B.w.C.q.D.E.3 2 3 3 3 / >.F.1 / k .           ",
"          . _ 3 3 3 3 3 3 3 G.q u l.2 2 3 c H.I.z.A.J.K.L.M.V ;.c 2 3 3 1 / ` 1 4.1 .           ",
"          . q ;.2 4.3 2 3 2 ! 2 c 3 2 3 3 N.H.O.P.Q.R.V S.S.W 3 3 3 2 3 / / 1 d u 1 .           ",
"            . = 3 s 3 3 3 3 3 3 2 2 3 2 T.U.V.W.X.Y.!.S.S.Z.2 c 2 3 2 3 / 1 p / 1 / .           ",
"            . 3 2 : 2 3 2 c 3 3 c 3 `.@. +.+++@+#+@+$+%+3 2 3 3 3 2 2 / / / 1 1 / .             ",
"            . 3 3 q 2 3 c ;.c 2 2 &+*+=+-+;+@+3 3 >+3 2 E 3 2 2 2 2 y.1 1 1 / 1 / .             ",
"              2 p 2 3 k t 2 2 2 2 ,+'+)+2 2 3 3 t f 3 3 t % 3 3 3 2 # / / #.1 l./ .             ",
"              . 2 d.2 ! #.> ; 3 3 !+3 3 3 3 3 3 @ 3 3 3 3 2 3 3 2 2 q / / 1 / d..               ",
"              . u s 2 9 3 ~+2 5 2 3 2 3 3 3 3 2 @ m 3 c 2 3 3 3 2 l.3 ; 1 D 1 y..               ",
"              . 3 3 c 2 2 t @ 3 ' 2 n 4.2 2 2 @ 4.c 2 3 3 u 2 c c 3 3 (.{ 1 >..                 ",
"                . 3 c {+2 3 2 7.]+^+/+2 { k 2 (+2 2 3 2 2 c 2 3 2 2 3 ` / l / .                 ",
"                . . 3 9 2 3 u 3 _+:+<+[+3 3 c 3 i 2 3 3 2 6 + g 2 3 3 2 / 1 .                   ",
"                    . . c { 3 ;.m.}+|+K 1+3 3 3 3 c 3 9 2 2 : # c 2 2 1 ; 1 .                   ",
"                        . 2 2 2 >+2 (+3 2+3 2 y.d.D 3 3 3 3 9 3 3 3 1 / / .                     ",
"                            . . t 2 2 3 3 2 3 f 3+c 8 3 3 3 3 2 2 3 1 1 / .                     ",
"                                . 3 3 d.2 n 2 2 i k.3 t 6 2 3 3 2 3 i / .                       ",
"                                  . . 3 3 3 { 2 3 2 ( ; 2 l.3 /.l % c 1 .                       ",
"                                      . . 2 2 l.2 3 3 2 c 2 c g 3 3 >.1 .                       ",
"                                          . . 2 (.3 c 3 3 3 3 3 s 2 / .                         ",
"                                              . . 2 v 3 3 2 { & 4.: 1 .                         ",
"                                                  . . 2 3 c Q 2 3 3 .                           ",
"                                                      . . c } 3 9 / .                           ",
"                                                          . . # 3 1                             ",
"                                                              . . .                             ",
"                                                                                                "};
