/* XPM */
static char * kblackbox_xpm[] = {
"38 32 38 1",
" 	c None",
".	c #000000000000",
"X	c #208120812081",
"o	c #000004100000",
"O	c #410345144103",
"+	c #08200C300820",
"@	c #69A669A669A6",
"#	c #186118611861",
"$	c #8E388E388E38",
"%	c #AEBAB2CAAEBA",
"&	c #208128A22081",
"*	c #D75CD34CD75C",
"=	c #30C230C230C2",
"-	c #38E33CF338E3",
";	c #082008200820",
":	c #492451444924",
">	c #104014511040",
",	c #514455555144",
"<	c #59655D755965",
"1	c #28A22CB228A2",
"2	c #30C234D330C2",
"3	c #71C671C671C6",
"4	c #79E77DF779E7",
"5	c #861782078617",
"6	c #965896589658",
"7	c #9E79A2899E79",
"8	c #A699A699A699",
"9	c #B6DABAEAB6DA",
"0	c #C71BC71BC71B",
"q	c #CF3CCF3CCF3C",
"w	c #BEFBBEFBBEFB",
"e	c #C71BCB2BC71B",
"r	c #DF7DDF7DDF7D",
"t	c #FFFFFFFFFFFF",
"y	c #E79DE79DE79D",
"u	c #DF7DE38DDF7D",
"i	c #EFBEF3CEEFBE",
"p	c #EFBEEFBEEFBE",
"               ...................... ",
"              ....................... ",
"            .XXXXXXXXXXXXXXXXXXX.ooo. ",
"          .OOOOOOOOOOOOOOOOOOO..++++. ",
"        .@@@@@@@@@@@@@@@@@@@..######. ",
"      .$$$$$$$$$$$$$$$$$$$$.XXXXXXXX. ",
"    .%%%%%%%%%%%%%%%%%%%%..&&&&&&&&&. ",
"  .********************..===========. ",
".......................-------------. ",
".......................OOOOOOOOOOOOO. ",
".;;;;;;;;;;;;;;;;;;;;;.:::::::::::::. ",
".>>>>>>>>>>>>>>>>>>>>>.,,,,,,,,,,,,,. ",
".XXXXXXXXXXXXXXXXXXXXX.<<<<<<<<<<<<<. ",
".111111111111111111111.@@@@@@@@@@@@@. ",
".222222222222222222222.3333333333333. ",
".OOOOOOOOOOOOOOOOOOOOO.4444444444444. ",
".:::::::::::::::::::::.5555555555555. ",
".<<<<<<<<<<<<<<<<<<<<<.$$$$$$$$$$$$$. ",
".@@@@@@@@@@@@@@@@@@@@@.6666666666666. ",
".333333333333333333333.7777777777777. ",
".555555555555555555555.8888888888888. ",
".$$$$$$$$$$$$$$$$$$$$$.%%%%%%%%%%%%%. ",
".666666666666666666666.9999999999999. ",
".888888888888888888888.00000000000..  ",
".%%%%%%%%%%%%%%%%%%%%%.qqqqqqqqq..    ",
".wwwwwwwwwwwwwwwwwwwww.*******..      ",
".eeeeeeeeeeeeeeeeeeeee.rrrrrr.t       ",
".*********************.yyyy..         ",
".uuuuuuuuuuuuuuuuuuuuu.ii..           ",
".ppppppppppppppppppppp...t            ",
".......................t              ",
"                                      "};
