/* XPM */
static char*mini[]={
"16 16 8 1",
"f c #808080",
"e c #c0c000",
"d c #808000",
"c c #404000",
"# c #000000",
"a c #303030",
". c None",
"b c #585858",
"......#####.....",
"...###abaaa####.",
"###aaaaaabaabaa#",
"#babbbbbaaaaaab#",
"#aacdddabbbbaba#",
"#aedaccddaaabaa#",
"#aceaaacdeaafab#",
".#aaabaaddeabaa#",
".#aaaaacedeabab#",
".#abaaeedecabaa#",
"..#aaacaaaabaa#.",
"..#aaddcaabbab#.",
"..##aaedababa#..",
"....###aaaaba#..",
".......###ab#...",
"..........###..."};
