/* XPM */
static char * mini_kblackbox_xpm[] = {
"48 48 141 2",
"  	c None",
". 	c #2D2D2D",
"+ 	c #2E2E2E",
"@ 	c #2C2C2C",
"# 	c #383838",
"$ 	c #3F3F3F",
"% 	c #424242",
"& 	c #343434",
"* 	c #616161",
"= 	c #434343",
"- 	c #606060",
"; 	c #525252",
"> 	c #585858",
", 	c #3E3E3E",
"' 	c #404040",
") 	c #474747",
"! 	c #505050",
"~ 	c #3D3D3D",
"{ 	c #353535",
"] 	c #323232",
"^ 	c #6C6C6C",
"/ 	c #484848",
"( 	c #5E5E5E",
"_ 	c #787878",
": 	c #545454",
"< 	c #636363",
"[ 	c #6F6F6F",
"} 	c #5F5F5F",
"| 	c #3A3A3A",
"1 	c #444444",
"2 	c #454545",
"3 	c #4F4F4F",
"4 	c #414141",
"5 	c #464646",
"6 	c #333333",
"7 	c #313131",
"8 	c #565656",
"9 	c #4D4D4D",
"0 	c #303030",
"a 	c #4A4A4A",
"b 	c #4B4B4B",
"c 	c #35350C",
"d 	c #656527",
"e 	c #656526",
"f 	c #646426",
"g 	c #595959",
"h 	c #5B5B5B",
"i 	c #3C3C3C",
"j 	c #6E6E6E",
"k 	c #4E4E4E",
"l 	c #646425",
"m 	c #666627",
"n 	c #666628",
"o 	c #656528",
"p 	c #646428",
"q 	c #646427",
"r 	c #636326",
"s 	c #626225",
"t 	c #616125",
"u 	c #616124",
"v 	c #2F2F2F",
"w 	c #5A5A5A",
"x 	c #626226",
"y 	c #515151",
"z 	c #FFFFB9",
"A 	c #FFFFB2",
"B 	c #FFFFAD",
"C 	c #FFFFA8",
"D 	c #FFFFA4",
"E 	c #606023",
"F 	c #FFFFAB",
"G 	c #FFFFA1",
"H 	c #FFFF9F",
"I 	c #FFFFA7",
"J 	c #FFFFA3",
"K 	c #FFFFA0",
"L 	c #FFFF9D",
"M 	c #5F5F22",
"N 	c #FFFFB0",
"O 	c #FFFFAF",
"P 	c #FFFF9E",
"Q 	c #FFFF9B",
"R 	c #FFFFA2",
"S 	c #3B3B3B",
"T 	c #FFFFBD",
"U 	c #373737",
"V 	c #6B6B6B",
"W 	c #FFFF9A",
"X 	c #FFFF97",
"Y 	c #494949",
"Z 	c #4C4C4C",
"` 	c #FFFFB6",
" .	c #FFFFA6",
"..	c #FFFF99",
"+.	c #FFFFBB",
"@.	c #FFFFB3",
"#.	c #FFFFA9",
"$.	c #FFFFAC",
"%.	c #FFFF9C",
"&.	c #FFFF98",
"*.	c #FFFFA5",
"=.	c #FFFFAE",
"-.	c #363636",
";.	c #FFFFAA",
">.	c #575757",
",.	c #686868",
"'.	c #6D6D6D",
").	c #FFFFB7",
"!.	c #FFFFB4",
"~.	c #FFFFB1",
"{.	c #666629",
"].	c #FFFFB5",
"^.	c #67672A",
"/.	c #FFFFBA",
"(.	c #69692C",
"_.	c #393939",
":.	c #FFFFBE",
"<.	c #69692D",
"[.	c #717171",
"}.	c #FFFFBC",
"|.	c #6A6A2E",
"1.	c #646464",
"2.	c #FFFFE1",
"3.	c #6B6B2E",
"4.	c #696969",
"5.	c #707070",
"6.	c #FFFFCB",
"7.	c #535353",
"8.	c #6A6A2D",
"9.	c #5D5D5D",
"0.	c #FFFFDA",
"a.	c #FFFFE2",
"b.	c #656565",
"c.	c #5C5C5C",
"d.	c #555555",
"e.	c #FFFFC1",
"f.	c #FFFFC7",
"g.	c #FFFFC8",
"h.	c #636327",
"i.	c #626262",
"j.	c #737373",
"                                                                                                ",
"                                                                                                ",
"                                                                                                ",
"        . . + @ . . . . . . + . @ . . + . . . + # . $ @ % & # . . . * = . . . . . . . . .       ",
"        . . . . . + . . - . . . . . . . . . . . . . . . . ; > + . . @ . , ' ) . . . . ! .       ",
"        + . . + . . ~ % . . . . . { ! . . . + ] . . . . . . ^ / . . . . . . + . . + . ( .       ",
"        . . + . + . _ . . @ . . : . . + < . . + + + . . . [ } > = + + + . . + . . . . & |       ",
"        . . 1 @ 2 3 . . . . . . ) . . + ~ 4 . 5 . . . . ~ { ( 2 . . . . . . . . . . 6 , >       ",
"        . . 7 , % + . . . . . + + @ . + & / ~ 8 . . + ~ 9 0 + + . . . . . . . + . . . + a       ",
"        . . . 1 : < . + . . . 0 . . + . b c d d d d d e f f 0 + @ . g > . . . . . . . . h       ",
"        . . i . $ j ] . . . k b l f e d d m n n o p p q q q r r s t u + . . 3 . + # % ) '       ",
"        . . 0 v w # . @ . u s x r q . 1 j y . . . . . + z A B C D x s u E + ~ . + . 5 5 ]       ",
"        . . . . k . v 7 u s r F # . + @ | . @ . + { . . . . G H I J K L u E M . . . . + +       ",
"        . . + + . . + u s N O . . . . . . . @ . . & . . . . @ J K P Q R G J E M . | @ . .       ",
"        + . S k . . u s T z P G . . . . . . . . . U 5 . V 9 . . J G P W X N A E M . . + +       ",
"        Y 7 Z < 5 . u s ` L K J  .@ . . . ) . . . + . = - . . .  .J K L ..+.@.E M @ . . .       ",
"        + . + . & . t ..J H J  .#.$.. . + 0 . + + . + . 3 . . . #. .J H %.&.G u E . + . .       ",
"        . . . . + . . f P G *.C F =.. + + . + . . v b . . 9 0 . F C *.G P W &.u E . . . -.      ",
"        . . . . + + . { ! J I ;.. + . . . . . . . -.>.. . . < . B ;.I J K %.X t . . . . >.      ",
"        k + / ,.> . . . . '.b + . @ . . v # . + . . . . . . + A O $.C *.G L r . . . + . S       ",
"        + . | ] . . . @ . . . y + . . . a ! , ) U . + @ . . ` @.N B ;. .R q = 9 + . . . 6       ",
"        . . . . . . . . . . . @ 5 . + . - . . @ . . . . . . ).!.~.=.F {.. . . U + . . ' .       ",
"        + 8 { @ . . @ @ . + + . @ . . . ] ] >.@ . . + . . z ).].A O ^.. . . . . . . v . +       ",
"        + . @ + . . + + . . . . . . + . . + . . . + . T +./.).].(.6 v . . . . . . -.. + .       ",
"        . | Y . . + . . >._.{ ( . . . . . + . . . . :.T +.z ).<.. . ! . . . . 7 . + . . .       ",
"        . = [.. . . . a 7 . . . . . + . . . . . . . T }.:.|.. . . + ] . + . . , + = . ' .       ",
"        Y _.5 1.. . . ~ . . . . . + . g . + . . . T }.2.3.. . . . 4.. . . . . U h 5.S . .       ",
"        i . . ; + . . 3 . . . . . ] 4 . . . . . +.+.6.. . . . . 8 . . @ . . + . . . + . .       ",
"        3 . . . ] @ @ 9 + @ . . . Y . @ . . . . /.z . . . . + . w . . . + . . + . + @ . .       ",
"        . . . . . v U -.{ . . , + 7.| 4 . . . ).).8.. { . + + . . 9.i + . . . + . . . . +       ",
"        . . + . . . . , U _.a ) ) 1.j a Y . . 0.a.y >.| / y & . & * 2 . . . . . . @ . . +       ",
"        . . + . + + . . . >.8 . S 4.. . @ 2 k . . -.@ . . + . $ . @ . + . . . . . . . 9 .       ",
"        + + . & . @ . . . . ] U 2 b.+ . . . . >.+ . @ . . . . . . 7.. Y 3 { | . + . y + .       ",
"        . . 2 . @ Z + . . . . . : > y + . . . @ . . . . . . . . k c.. . . , . = . . d.6 .       ",
"        . . w . + # i . . . @ . [ -.+ + . . I I C I I . @ . . + 1.b.w . . k @ + . . k 4 6       ",
"        . + ; . + , . + . . . . . . + S G @.J J D J J @.G @ . { S 1 ~ ( S 0 . . . . . + 5.      ",
"        6 . . . & . . @ + @ . . . ' . . q q e.f.g.f.e.q q . . . . . . , i . . . . . U ' 4       ",
"        . + . . . + . | b . . i . 7 + . . r h.h.q h.h.r . . . . . . @ @ . . . . + ~ + . .       ",
"        . . . . + + . a . 7 . a + . . 9 - k . x x x . + . . 3 . . . . . . . . . . Z . . .       ",
"        . . . . @ + . i + . . . b . + . 0 1 . @ . . , . . . 0 S . . . + . . . . + 7 . . .       ",
"        + . . . . . > Z . . . . . . . & + . . . . . ( + . . . . i._.+ U c.. . 6 . 2 . . .       ",
"        b . . + . . . . . . . . . . . 9.; j.. + . . 1 . . . . . . Y 0 . >.. . ' # > _.. .       ",
"        ) . . ! . . . . . -.S . . . Y w . . . 6 6 . . + . + + . U . . . -.. @ . . 5 . Z c.      ",
"        . . . ) + . . . + ' 3 @ . . @ -.. + . . . . . @ . . . . . . . . . + . Y + + + . +       ",
"                                                                                                ",
"                                                                                                ",
"                                                                                                ",
"                                                                                                "};
