/* XPM */
static char *blue[] = {
/* width height num_colors chars_per_pixel */
"    48    48      138            2",
/* colors */
".. c #04021c",
".# c #7476fc",
".a c #3c3e3c",
".b c #040284",
".c c #2422bc",
".d c #1412a4",
".e c #acaefc",
".f c #3c3edc",
".g c #242224",
".h c #3432cc",
".i c #5c5afc",
".j c #0402a4",
".k c #04024c",
".l c #1412bc",
".m c #4c4ef4",
".n c #9492fc",
".o c #2c2ac4",
".p c #cccafc",
".q c #0c0aa4",
".r c #141214",
".s c #3432e4",
".t c #1c1abc",
".u c #0c0a9c",
".v c #2422cc",
".w c #8486fc",
".x c #040294",
".y c #1c1ab4",
".z c #bcbefc",
".A c #3c3eec",
".B c #343234",
".C c #6c6afc",
".D c #04026c",
".E c #a4a2fc",
".F c #dcdafc",
".G c #0c0ab4",
".H c #040234",
".I c #3c3adc",
".J c #2c2ad4",
".K c #1c1acc",
".L c #4c4a4c",
".M c #1412b4",
".N c #3432dc",
".O c #0406b4",
".P c #4c4aec",
".Q c #7c7efc",
".R c #b4b6fc",
".S c #2c2a2c",
".T c #6462fc",
".U c #0406a4",
".V c #04025c",
".W c #1416bc",
".X c #5456fc",
".Y c #9c9afc",
".Z c #d4d2fc",
".0 c #0c0ea4",
".1 c #1c1a1c",
".2 c #3c3ae4",
".3 c #1c1ebc",
".4 c #2426cc",
".5 c #040694",
".6 c #4442ec",
".7 c #04022c",
".8 c #444644",
".9 c #04068c",
"#. c #1416ac",
"## c #4442e4",
"#a c #3436d4",
"#b c #2c2ecc",
"#c c #4446f4",
"#d c #8c8efc",
"#e c #c4c6fc",
"#f c #3c3a3c",
"#g c #7472fc",
"#h c #04027c",
"#i c #acaafc",
"#j c #e4e2fc",
"#k c #0c0eb4",
"#l c #040244",
"#m c #2c2ed4",
"#n c #040224",
"#o c #7c7afc",
"#p c #444244",
"#q c #04028c",
"#r c #2422c4",
"#s c #1412ac",
"#t c #3c3ee4",
"#u c #242624",
"#v c #3432d4",
"#w c #5c5efc",
"#x c #0402ac",
"#y c #040254",
"#z c #1412c4",
"#A c #4c4efc",
"#B c #9496fc",
"#C c #2c2acc",
"#D c #cccefc",
"#E c #4446ec",
"#F c #0c0aac",
"#G c #141614",
"#H c #3436e4",
"#I c #1c1ac4",
"#J c #0c0e9c",
"#K c #2422d4",
"#L c #8c8afc",
"#M c #04029c",
"#N c #1c1eb4",
"#O c #c4c2fc",
"#P c #3c3ef4",
"#Q c #343634",
"#R c #6c6efc",
"#S c #040274",
"#T c #a4a6fc",
"#U c #dcdefc",
"#V c #04023c",
"#W c #1c1ecc",
"#X c #4c4e4c",
"#Y c #1416b4",
"#Z c #3436dc",
"#0 c #4c4af4",
"#1 c #8482fc",
"#2 c #2426c4",
"#3 c #bcbafc",
"#4 c #2c2e2c",
"#5 c #6466fc",
"#6 c #0406ac",
"#7 c #9c9efc",
"#8 c #d4d6fc",
"#9 c #1c1e1c",
"a. c #040264",
"a# c #1416c4",
"aa c #0c0eac",
"ab c #3c3aec",
"ac c #1c1ec4",
"ad c #2426d4",
"ae c #04069c",
"af c #4442f4",
"ag c #0c0ebc",
"ah c #2c2edc",
/* pixels */
".a.a#f#Q.B#4#4#4.B#Q.L.8.8.8#p.L.8#4.S#4.B#f#f.B#u#u#u.S#4#4#4.S.g#u#u.1.1#9.g.g#9#9.1#G.r.1#9#u",
"#4#f#Q.B#4#4.S#u#9.S#p.a#Q#f#f.a#f#u#u#4.B#Q#Q.S#9.g.S.S#Q#Q.B#4.S.S#4.S#u.S.S#u.g.r.r.r.r.1.g.g",
".S#4.S.S.S.S#4#4.S#u#4.B.B.B#Q.B#u.g.g#4#Q#Q#4.1.1#u#u.S#Q#p.B#Q#4#4#Q#4.B#Q.B#4#u.1#G#G#G#u#u#u",
".g#G.1.1#9.S.B.B#4.S.S#4.B#Q#f#4#u.g.ka.#S.b#q.x#q.b#q.b.b#h.V.B#Q#Q#Q#f#4#f#Q#Q#4.S#u#9.S#u.S#4",
".1.r#G.r#9.S#4#p#f#4#4.B#Q.a.a#4a..D.D#h#h.b.D#S#S#h.b#q.x.b#q#q.b#Q#f.B#4#Q.8#p#Q.S.S.S.S.S#u#u",
".1.r.r.1#u#Q#f.8.8#f#Q#Q.a.8.V#S.b.b.x.x#M#M.x#M#M#M.x.x.b.b#q#M.x#q.b#f.S#p#X.8#f#4#4#4#4.S.g#9",
".1.r#G#9.B#Q#f#p#X.L.a#f.k.D#S#S#q#q#q#h#h.b.x#M#M.j#6#x.j#q.b.x.j.j.x#h.b#p.L.L#f.B#4#4#4#u.1#G",
"#9.r#G.B#Q.B.B#p.8#X.L.k#Sa.#S#S#h#h#h.b.b.b.b.b.b.b.j#6.O.j.j.b#x#x#M.j#M#q#X.8#Q#4.B#4.S#9.r.1",
".g#9#G.B#Q.B#4#f#p.L#y.Da..D#S#h.b.b#q.b#q#q#q#q.xag#W#K#z#x#M#q#qag.O#M.j#M.b.8#f#4#4.S#G.r#G#9",
".B#9.1.g#Q#Q.B.a.L#y#S.D#S#S#h#h.b#q#q#q#q#q#q#M.Jaf.s.W#x#M.x#q#M.jag#x#x.j#M.b.a#f#4.1#G.r#9#4",
"#Q#u.g#u#4.B#Q#p#la.#h#S#h#h.b.b.x.x.x#q.x.x.j#6#w#R.G#M#M#x.jag.J.Ga#ag#x#M#M#M.b#p.a.S.r#G.S#Q",
"#4.g#u.S.B#Q#4#l.k.V.D#S#h.b#q#q.x.x.x#6#Y#I.2#R.J#M.j#1.R#w#5ab#w#H#Ka#.O#x#M#M.x.D#X#Q.1.1#4.B",
"#u#9#u.B.B#4#4#y#y.k#S#h.b#q#q.x.x#M.U#Y#2#v.m.j.j#x#w.z#W#W.Oad.##Rahag#k#x#x.j.x#q.L#f#u.1.g#4",
".B.g.g#u#4.S#y.V.Da.#S#S.b.b.b#q#Mae.U#M.j.j#6#H.Q#d#3ag.j#M#M#x#x#P#0a##z#k.O.j#M.b#S#f#4#9#9#u",
".a.S.g#u#4#4#l.Da.#S#S#h.b#q#q#q.xae.j#k.v#C#m#2.c#t#Aag.Gag#x.j#M#W.T.Ja##I.O.j.x#q.b.a#Q#u.g.g",
".L#4.S.S.S.H.k.V.D#h.b#h.b.x.x.xae.q.U#C#s#Y.y.3#r#mab#K#o.R.F#H#M.j.Q.s#Ia#.O.j#M#q#q#S.a.S.S.S",
".L.a#4.S#u#ya..V#h.b.b.b#q.x#M#M.U#F#F.4#.ae#Y.c.J#H.s.Q#8#O#8#g#M#Maf.A#k#F.G#M.x.x#q.b.a#f#Q.B",
"#X.a.B#4.H.ka.a.#h.b#q#h#qae#M.U.U.W#C.3#J.q.d.3.2.X.i.E#j#D.R.z#x.ja#.l.O#k.l.j.x.x.b#qa..a#Q#Q",
".L.a.B#4.k#l.V.D#h.b#q.b#q#q.U#..t#N#m.y.u#.#t#o.#.C#7#e#3#7#i#T.K.O#I.G#6.lag#6.x.x.b.b.D#Q#Q#f",
".8.8#f.B#y#ya..D#S#h#h.b#q.b#qae.0#s#N.c#a#v.i.p#O#R.p.F.e#3#D.E#A.W.K#k.G.U.j.O.x.x.x#q.b#f#p#Q",
".a#p.a#Q#y.D.Va..D#S#S#q#q.b.5.5.u#J#s.c.##L#B.z.w#3#O#8#j#U.Z.e#A.K.G#x#x#M.j.j.j#M#M.x#h.a#f#4",
"#f.a#p.a#V.k#ya.a..D#S#h.b.xae.M.y#s#J#s#N#w#i#B#7#3#T.R.p#3.Z.F.wa#.O.j.j.j.x.x#q#M.x.x.b.B.S#u",
"#f#f#f.B#V#V#ya.a..D#S.b#q#Maa#Z#c.P.0.0#N#2#3#B#i.w.C#7#i#B#U#T#L#H.Gag.j#M#M#q.b.j.b.b.b.S#u#u",
"#Q.B#4#9.H.k#l.Va.a.#h.b#q.q.A#g.Q#w.d.u.y#..e.Y.n#o#5.p#U.w.Y#D.p.E#g.#ac.j#q.b#h#q#h.D.b.g#9.g",
"#4.g.r.r#n#y#l#y.V#y.D#S#q#k.c#5#1#L#sae#J###3.Y.m.m#7.p.F#L.P#t#E.I.X.N.M.x.x#q.b.b#h.V#h#4#u.S",
"#u.r.r.r..#y#l#l.k#y.V#S#q#sae.c#B.w#g#w#1#B#R.f.h#L.R.Z.Q#c#b#r.3.t#Y.q#M.x.x.b.b.b#h.D.D#f.B.B",
".g#G.r#G.7a.#l#V.k.k#ya..b.x.xae.c#0.m##.P#m#N.y.C#1.#.w#5.N#E#E#v#maa#M.x#q#q.b.b#q#h.b#q#p.a.a",
"#u#G.r.r#la.#l.H#y#y.Va..b.5.b.b#q.9#q.u.0.d#.#a#H#a.y#2.X.T.T#w#H.N#k#M#M#q#q#q.x.x.x.b#h.8#p#p",
"#u#9#G#G#l#l.V#V#l.Va..V#Sae.b.b#h.b.b#q#q#s.c#C.4#2.y#..o.6.2.qae.q#k#6.j.x#M.x#M#q.x#h.D.8.L.8",
".S.g#9.r#n.H#y#l#ya..V.V.D.U.b.b#h.b#q.9ae#2.3.y#v#C.y.y#2#.ae#q.x.x#q.x#M.x#M.x#M#M#q#h.V.L.8.8",
".S#u.g#G.r.7.k#y.Va..V#y.x.0.5#S#h#h#q#s.3.cae.5.u#.#2#r#..q#q#M#kae.x.b#q.x.x.x.x.x#h.D#Q#p.L.8",
"#u.g#u#9#9.7.k#y#y.V.Va.#q#q.b.Da.#h.x.0.u.5.b.5#q.5#J.0.q.0.U.M.t.W#6.x#q#q.x.x.x#q#S.V#4.a.8#p",
"#u#u.S.S.S#u#V#y.V#ya..D#S#h.Da..D#h#q.x.5.b#q.u#sae.b.x.q#saaaaaa.M#F#q#h.x#q#q.b.D#S#u.B#f.8#p",
".1#u#4.B.a#Q.7#V.k.Va..D.Da..D.Da.#S.b#q.0.x#h.b#s#Y.0.q.0.q.q.U#Mae.x#h#h#q.b#h.Da.a..S.S.B.a.a",
".g.g#u#Q.8.8#f#V.H#l.Va.a..Va..Da.#S#h.b.5.5#S#qae.q.q.Uaeae.x.b#h#q#S.D#h#h#Sa.a.#y.1#9#4#u.B.B",
"#Q#4#f#p.L#X.L.H.7#V#V#y#y#ya.#S#S.b.b.b#q.b#S#Sae.uaeae#M.x#h#S#S#S.D.D#S#S.V.V.V.k#G.1#9#u.g.S",
"#p#f.B#Q#4.B.8.8.H.H.H#l.k.k.V.D#S#S#h#S#S#S#S#hae.qaeaeae#M#S#S#S#S.Da..D.D#ya.#y.r#G#G.g.g.g#4",
"#p#Q.S#4.g#4#f#Q#Q..#l#V#l#y.V.Va.a..D.D#S#S.D#h#q.qae.xaeae#M.x#q.Da.a.#S#h.V.V.r.r.r.r#9.g#4#4",
".a.S#u.S.S#4#4.S#u#u.7#V.k.k#y#ya.a.a..D.D#S#S#S#h.x.x#h.b#q.b.x#q#qa.a.#S#S.V.1.r#G#G.r#9#u#Q.B",
".S.1#u#u#u.S#u.g.g#9.g...H#V.k#y.Va..D.Da.#S#h#q.b#h.V.Va.a.a.#h.b#h#ya..k#y#u#9#9.r#G#G.g.S.B#4",
".1#G.r#9.g#u#u.g#9#9.S#u#n.H#V#l.V.Va.a..D.D.V#y.k#y.k#y.k#y.k#S.b.V.k#l.H#9.S.S.S#9#G#9#9.g#4.B",
"#G.r.r.1.g.g.g.g#9#9.g#u#4#4#n#l#l#y.V.V#l#l.k.V#y.V.V#y#y.k#l.Da..k.H#G.g#u#4#u.S#u.g#9#9#G.S#Q",
".g#G#G#9#u#9#9#9.g#9.g#9.g#4.a.8.H#l.H.H.H#V#la..D.V.k#y.k#V.V.k#V#G#G#9#u.S#4#4.g#u#u.g#9#9.S#4",
"#4.g#G.1.g.g.g.g.1#G.S#u#4.a#p.8.L.L#n...H.k.H#V.k#V#l#V.H#V.H.r#9.g.g.S#4.B#4#u#9.g#u#u.g#9.g.S",
"#f#4#9#u#u#u.g#G#G.1#9.S.B.B#p.8#X.8.8#Q.B#4#9#G#G#G.1#G#9#G.r#9#u#4#Q#p.8#p#f.g#9.g.S.S.S#u.g#u",
".a#f#u#u.S#4#9.r.r.1.1.g#4.B.a.8.L.L.L#f#Q.S#9.r.1#9#u#4.S#u#9.g#4#Q#f#p.8#p.B#u#4.S.B#Q#f.B.S.g",
"#p#f#4.B#4#f.g.r#G.r#G.S#4.B#Q#f.8#X.L.a#f#Q#4.g#u#u#4.B.B.B.S#Q#f#f#f#Q.a#Q#4#Q#p#Q#Q.8.L.8.a#4",
".a#Q.B#4.B#Q#Q#9.r#9#9.g.S.B#Q#Q.a.8#X.L.8#p#Q.B#4.B.B.B.B.B#Q.a.a#p#Q#Q.B.S#f.a.8#p#p.L#X.L#p.B"
};
