/* XPM */
static char *blue[] = {
/* width height num_colors chars_per_pixel */
"    48    48      144            2",
/* colors */
".. c #04021c",
".# c #7476fc",
".a c #3c3e3c",
".b c #040284",
".c c #2422bc",
".d c #1412a4",
".e c #3c3edc",
".f c #acaefc",
".g c #242224",
".h c #3432cc",
".i c #5c5afc",
".j c #0402a4",
".k c #04024c",
".l c #1412bc",
".m c #4c4ef4",
".n c #9492fc",
".o c #2c2ac4",
".p c #cccafc",
".q c #141214",
".r c #545654",
".s c #0c0aa4",
".t c #3432e4",
".u c #1c1abc",
".v c #0c0a9c",
".w c #04022c",
".x c #8486fc",
".y c #040294",
".z c #1c1ab4",
".A c #3c3eec",
".B c #bcbefc",
".C c #343234",
".D c #6c6afc",
".E c #04026c",
".F c #a4a2fc",
".G c #dcdafc",
".H c #0c0ab4",
".I c #4c4a4c",
".J c #3c3adc",
".K c #2c2ad4",
".L c #646264",
".M c #1c1acc",
".N c #1412b4",
".O c #3432dc",
".P c #0406b4",
".Q c #4c4aec",
".R c #0c0a0c",
".S c #7c7efc",
".T c #b4b6fc",
".U c #2c2a2c",
".V c #6462fc",
".W c #0406a4",
".X c #04025c",
".Y c #1416bc",
".Z c #5456fc",
".0 c #9c9afc",
".1 c #d4d2fc",
".2 c #1c1a1c",
".3 c #0c0ea4",
".4 c #3c3ae4",
".5 c #1c1ebc",
".6 c #04023c",
".7 c #2426cc",
".8 c #040694",
".9 c #4442ec",
"#. c #444644",
"## c #04068c",
"#a c #1416ac",
"#b c #4442e4",
"#c c #3436d4",
"#d c #2c2ecc",
"#e c #5c5e5c",
"#f c #4446f4",
"#g c #8c8efc",
"#h c #c4c6fc",
"#i c #3c3a3c",
"#j c #7472fc",
"#k c #04027c",
"#l c #acaafc",
"#m c #e4e2fc",
"#n c #0c0eb4",
"#o c #545254",
"#p c #2c2ed4",
"#q c #6c6a6c",
"#r c #040224",
"#s c #7c7afc",
"#t c #444244",
"#u c #04028c",
"#v c #2422c4",
"#w c #1412ac",
"#x c #3c3ee4",
"#y c #242624",
"#z c #3432d4",
"#A c #5c5efc",
"#B c #0402ac",
"#C c #040254",
"#D c #4c4efc",
"#E c #9496fc",
"#F c #2c2acc",
"#G c #cccefc",
"#H c #141614",
"#I c #5c5a5c",
"#J c #4446ec",
"#K c #0c0aac",
"#L c #3436e4",
"#M c #1c1ac4",
"#N c #0c0e9c",
"#O c #040234",
"#P c #2422d4",
"#Q c #8c8afc",
"#R c #04029c",
"#S c #1c1eb4",
"#T c #3c3ef4",
"#U c #c4c2fc",
"#V c #343634",
"#W c #6c6efc",
"#X c #040274",
"#Y c #a4a6fc",
"#Z c #dcdefc",
"#0 c #4c4e4c",
"#1 c #1c1ecc",
"#2 c #1416b4",
"#3 c #3436dc",
"#4 c #8482fc",
"#5 c #bcbafc",
"#6 c #0c0e0c",
"#7 c #2c2e2c",
"#8 c #6466fc",
"#9 c #9c9efc",
"a. c #d4d6fc",
"a# c #1c1e1c",
"aa c #4c4af4",
"ab c #2426c4",
"ac c #0406ac",
"ad c #040264",
"ae c #1416c4",
"af c #0c0eac",
"ag c #3c3aec",
"ah c #1c1ec4",
"ai c #040244",
"aj c #2426d4",
"ak c #04069c",
"al c #4442f4",
"am c #0c0ebc",
"an c #2c2edc",
/* pixels */
".I.C.Ua#.C#0#i.2#H.q#y#i#t.U.g#H.g#7.R.U#i#V#i#t#7a#.g.g#V#y#7.g#i#.#0#7#o.g.2a##y.R#i#.#0.U.g.2",
"#.#H.g#0a#.I.ga#.2#7.I.U.U#y#.a##t.U#7#7a#.2a##7#t#o#i#ya#.C.2#V.a.U.C#i.2#Va#.q#7.a.I.I#V#y.g#.",
".C.C#6#i#H#t#Va#.U#.#e#V#H.g.I#H#q.a#i.C#y.U.2#H#y#0#e#..g#H#H.2a##7#6.g#V#o#t#7#7.C#..I.2#y.q#7",
"a##ia##7#V#7#ia##t.L.L#o.U#Va##V#e.C.kad#X.b#u.y#u#u.b#u.b#k.X#V#..I#H.R.r#..ra#.qa#.g#i#y#i.Ua#",
"#t.g.C#V.Ia##6.2.a.C.C.a#V.2#7.Cadad.E#k#k.b.E#X#X#k.b#u.y#u#u#u.b.C#6.U#e.I.C.2#H#y#7#V#V.a.Ca#",
"#.#H#o#t#y#t.g.2#y#y#y#Va#.gad.E.b.b.y.y#R#R.y#R.y#R.y.y.b.b#u#R.y#u.b.a.I.I#y.q.U.C.Ua#.U#..g.U",
".I.U#0#0.C#0#Va##7.g#y#7.kad#X#k.b.y#u#k#k.b.y#R#R#Bac#B.j#u.b.y.j.j.y#k.b#V.aa#.2.U#7.a.2#H#7.r",
"#0#6#o#oa##0#i.U.2.g#0.k#Xad.E#X#k#k#k.b#k.b.b.b.b.b#Rac.P#B#R.b#B#B.j.j#R#u.L.g.U#H#7#i.C#7.2.C",
"#..U.U.U.C.C#7#0#7.g.X.Ead#X#X#k.b.b#u.b#u.y.b#u#Ram#1#P.l#B#R#u#uamac#R.j.j#k.g#H.2#V.I.Ca#a#.2",
".I.I#.#y#0#0#i#7#.#C.E.E.E#X#k#k.b#u#u#u#u#u.y#R.K.9.tae#B#R.y#u#R.jam#B#B.j#R.b.C#6.2.a.U#H.q.C",
".g#0#o#..C#0#V.U.kad#k#X#k.b.b.b.y.y.y#u.y.y.jac#A#W.H.y#R#B.jam.K.Haeam#B#R#R#R.ba#.R#y#6.I#V.g",
".U.2#V#7a#.g.g.k.k.X.E#X#k.b#u#u.y.y.y.W.Y.u.4#W.K#R.j#4.T#A#8ag#A#L#Pae.P#B#R#R.y.E#y#i#V#e.U#y",
"a#.2#ya#.g.C#y#C#C.k#X#k.b#u#u.y.y#R.W#2ab.O.m.j.j#B#A.B#1#1.Paj.##Wanam#n#B#B.j.y#u#y.2.U.2.C#y",
"a#a#.2#t#7.C.k.Xadad#X#k.b#k.b#u#Rak.W#R.j.jac#L.S#g#5am.j#R#R#B#B#Taaae.lam.P.j.y#u#X.Ua#.a#0#y",
"a#.g#y#t#t#7ai.Ead#X#X#k.b#u#u#u.yak.j#n#v.K#dab#v#x#Dam.Ham#B.j#R#1.V.Kae#M.P.j#R#u#k#y.C#t.r#i",
".g#y.U.g#.#O.k.X#X#k.b#k.b.y.y.yak.sac#F#w#2.z.5#v#pag#P#s.T.G#L.y#B.S.t#Mae.P#R#R#u#u#k#0#.#0.C",
"#7.q#V#y.C#Cad.X#X.b.b#k#u.y#R#R.W.s#K.7#aak#2.c#F#L.t.Sa.#Ua.#j#R#Ral.A#n.H.H#R.y.y#u.b.C.r#e#i",
".2a##i#V#O.kadad#k#u#u.b#uak#R.W.W.Y#F.5#N.s.dah.4.Z.i.F#m#G.T.B#B.jae.lac#n.l.j.y.y.b#uada##I.I",
"#y.g#y#i.kai.X.E#k.b.b.b#u.yak#2.z.5#d.z.v#a.e#s.#.D#9#h#5#9#l#Y.M.P#M.H.P.Namac.y.y.b.b.E#6#..L",
"#i#ia##o#C#Cad.E#X#k.b.b.b.b#uak.3#w.5.c#c#z.i.p#U#W.p.G.f#5#G.F#D.Y.M#n#Kac.j.P.y.y.y#u.b.q#.#o",
"#7#o#H.a#C.E.Xad.E#X#X#u#u#u.8.8.v#N#w.c.##Q#E.B.x#5#Ua.#m#Z.1.f#D.M.H#B#B#R#R.j.j#R#R.y#ka##V#.",
"#0.C#H#0.6.k#Cadad.E#X#k.b.yak.N.z#w#N#w#S#A#l#E#9#5#Y.T.p#5.1.G.xae.P.j.j.j#R.y#u#R.y.y.b.g#V#y",
".2#y.2a#.6.6#Cadad.E#X.b#u.yaf#3#f.Q.3.3#Sab#5#E#l.x.D#9#l#E#Z#Y#Q#L.Ham.j.y#R.b.b.j.b.b.b.g#V#y",
"#7.g.ga##O.kai.Xadad#k.b#u.s.A#j.S#A.d.v.z#a.f.0.n#s#8.p#Z.x.0#G.p.F#j.#ah.j#u#u#k#u#k.E.b.L.C#y",
".2.R#H.U#r#Cai#C.X#C.E#X#u#n.c#8#4#Q#wak#N#b#5.0.m.m#9.p.G#Q.Q#x#J.J.Z.O.N.y.y#u.b.b#k.X#k.a#y.2",
"a#.g.g.2..#Caiai.k#C.X#X#u#wak.c#E.x#j#A#4#E#W.e.h#Q.T.1.S#f#d#v.5.u#2.s#R.y.y.b.b.b#k.E.E.2.2a#",
"#H#V#Va#.wadai.6.k.k#Cad.b.y.yak.caa.m#b.Q#p#S.z.D#4.#.x#8.O#J#J#z#paf#R.y.y.b.b.b#u#k.b#u.I.U#y",
".U.U#V#y.kadai#O#C#C.Xad.b.8.b.b#u###u.v.3.d#a#c#L#c.zab.Z.V.V#A#L.O#n#R#R#u#u#u.y.y.y.b#k#y#6#V",
".r#H.g#yaiai.X.6.k.Xad#C#kak.b.b#k.b.b#u#u#w.c#F.7ab.z#a.o.9.4.sak.s#nac.j.y#R.y#R#u.y#k.E#y.a.2",
".C.U#6.2#r#O#Cai#C.X.X.X.E.W.b.b#k.b#u##akab.5.z#z#F.z.zab#aak#u.y.y#u.y#R.y#R#R#R#R#u#k.X.q.qa#",
"#7.U#V#0.r#O.k#C.Xad.X#C.y.3.8#X#X.b#u#w.5.cak.8.v#aab#v#a.s#u#R#nak.y.b#u.y.y.y.y.y#k.E#Ha#.g#i",
"#i.2.g#V#0.wai#C#C.X.Xad#u#u#k.E.E#k.y.3.v.8.b.8#u.8#N.3.s.3.W.N.u.Yac.y#u#u.y.y.y#u#X.X#i.U.C#I",
"#i#y..#.#7#Vai#C.X#Cad.E#X#k#Xadad#k#u#u.8.b#u.v#wak.b.y.s#wafafaf.N#K#u#k.y#u#u.b.E#X#7.g#7#H#7",
"a##ya#.aa#.2#r.6.k.Xad.E.Ead.E.Ead#X.b#u.3.y#k.b#w#2.3.s.3.s.s.W#Rak.y#k#k#u.b#X.Eadad#7#H.2.a#i",
"#.#0.C.U#7#t#0.6#Oai.Xadad.Xad.Ead#k#k.bak.8#X#uak.s.s.Wakak.y.b#k#u#X.E#k#k#X.Ead#Ca#.q.a#7.g#V",
".2.C#V#i#t#H.C#O.w#Oai#C#C#Cad#X#X.b.b.b.b.b#X#Xak.vakak#R.y#k#X#X#X.E.E#X#k#C.X.X.k#7.U.U#i.g.a",
".2#ta#.g#o.C#7#6.6#O#Oai.k.k.X.E#X#X#k#X#X#X#X#kak.sakakak#R#X#X#X#X.Ead.Ead.Xad#C#e.g#7#7.g.q.C",
".C#y.a.g.U#7.C.U.a..ai.6ai#C.X.Xadad.E#X#X#X.E#k#u.sak.yakak#R.y#u.Eadad#X#k.X.X#V.ra##i.a#H.2#y",
"#i#y#y#ya#.a.C#H.a#V.w.6ai.k#C#C.Xadad.E.E#X#X#X#k.y.y#k.b#u.b.y#u#uadad#k#X.X#H.2#o#7.2.2#H#7#i",
".a.2.2#.#V.2#V.q#0#0a#..#Oai.k.X.Xad.Eadad#X#k#u.b#k.X.Xadadad#k.b#k#Cad.k.k.aa#a##V#o#y#V.U#y.C",
"#o#y#V.C.a.C.U#y.a.I#V#y#r.w.6ai.X.Xad.E.E.E.X#C.k#C.k#C.k#C.k#X.b.X.kai#O#.#i.U.I#V.a#y.U#..r#y",
"#0.C#H.C.g#H.q.q#y.q.2#i#I#e#r.6.k#C#C.Xaiai.k.X#C.X.X#C#C.kai.Ead.k#O.a#V#7#0#o#.#H#i#i#y#o.I#0",
"#i#7.ga#.a#V#7#H.U#V.C#6#i#..C.U#Oai#O#O#O.6aiad.E.X.k#C.k.6.X.k.6#H#7a##y#y.a#o.I.g#0.Ca##t.r#t",
".g#6#0.I#y.q.U#t#7#y.U.a#y#H.U#V.a.g#r..#O.k#O.6.k.6ai.6#O.6#O.g.Ca##V#o#t#t.C#ta##i#i#7a##y#V#.",
".2.U.ga#.g#ya##0#i.2.C.q#V#V#y.Ca##I#e.U#H.g#7#6#7#H.C#7.C#V#7a#.C.g.g.r.r#o#0.g.g#o.C#y.ga#.qa#",
"#y#H.C.C.g.U.C#i#H.C.r.C#t#..U.2.a.r.r.a#7.2a#.2.C.C#H#H#H#t.2.2.U#y#y.g#.#o#7a#.ga##y.I.I.C.g#H",
".C.Ua#.2#V#i#7.2a##7#.#t.2#q.aa##t#o#o#0.C.q#H#V#y#y.2.a#7a#.U#y#o.a.C#6.C#o#t#y.2.r#0#0.I#t.C.U",
".Ua#.I#i#i#6#y#7#I.C#V.I#V#7a##H.U#H#i#y.2#H#i.L#t#t.C.q#t.g#i#V.a#I#.#i#i#..a#i#H#I#o#..g#V#7a#"
};
