/* XPM */
static char * image_name[] = {
"48 48 26 1",
" 	c #69A645141861",
".	c #514434D31040",
"X	c #30C220810820",
"o	c #41032CB21040",
"O	c #618541031861",
"+	c #492430C21040",
"@	c #59653CF31040",
"#	c #596538E31040",
"$	c #28A21C710820",
"%	c #514438E31040",
"&	c #30C21C710820",
"*	c #61853CF31861",
"=	c #28A218610820",
"-	c #18610C300000",
";	c #38E324920820",
":	c #186110400820",
">	c #208114510820",
",	c #082004100000",
"<	c #104008200000",
"1	c #410328A21040",
"2	c #49242CB21040",
"3	c #71C649241861",
"4	c #38E328A21040",
"5	c #69A649241861",
"6	c #208118610820",
"7	c #000000000000",
" .Xo o  O ++X+@+#@O.$%..  ##+&o*.=-$;:>-,<1..#+ ",
"O2;O3#  ##1o%O .##.oX*#@O.#.1&o#X1;.OX;%o+O@1+o@",
"$::+#+#@%%X$+%#1;&4.+@#@@.*#.;#O;%1#*1o*..    #+",
"&&$++411X$-<X+1;&1#@+41*@1+#.o@O;4X+@o+#.#*#@#1$",
"..1++XX;&$$$@#1++.@+>=1%+;..o;+o>4o#O.++.##o##;o",
"@;o*O#*@.%+X%.o##@@#+o* +;+%+;;4>o.@*+o+#oX>;;=.",
"@1o%OO  @.1>%*.#.+#@.#@ +o+++1.@+##OO#+@O%.1*@+O",
"#;o.#@#.+.o1 5@##.o1X&1o;;+o+o#O+o#* .%O*.+oO *5",
"XXo4++..1112 #+@++@%++o++ooo##++X&+@@++#ooo&+.1o",
"1.%%@#OOo+2.*## ;1+o1++%1;4% #.@o;*O*+.#1o%+#+#+",
"4o+@ @5*X+@@O@*OX1*;;o1%++%* @%O%1OO*.++o+#o%#*.",
"o*#+#o%1:X+oo+++X;@&o+++1#O#+1&&X&+41o1+;o.%4o@#",
"+ O#@1o+$+%4;+.%;1@X;.%#o11X11X&1X;1++++4211XXo1",
".@+1*#@*1@O+##@+&1*;%@++X++1#@..*## 5@@.1@+;1+*%",
"..XX+1+.&o%X4+%o$1.&+O1X=+##.+.@@+O @1o4=.12**O@",
".@11%.+oX+1&+o14X#%X1%;+# *+.#%#oX++;=XX6%;1#+.+",
"O 1o*.o;;.%o@*@#.OOX+%1o@O#+@ @%+1OO+o%#1O++@4.@",
"%+;.*.1;+ @o.+.O*OO;. +%%*#.@ @#O# O.++@+@+o%Xo+",
".+1.+o+o@ @1+2%%114:$#X;.#.+#%++##@+44;++@2+@;.@",
"++1+X+@1**+;+1.#o.+>+O+.  %+*#+%#..;1+;++.o#O1.@",
"1+o+%o@o@@#2;&+#o.1&O oo#%+o+11%#+%X4.;1o%+.%$1+",
"+#11o;++@+X;X$%*++1$#@;411o&1o+++X+X;1=$;o111&%.",
".@1%@.O*O#%@2;##X+.X.%&$+%+&;.%o1;o&X%o12.1411##",
"$1;##1+.#41%o>+#=;.X*@$X+#o;+**##%*11*o1+O@#%# +",
"X+Xo;-=>$->;;-oO1@ 1O ;+  #+@ O%%#@1;.+;+O+...*+",
"$#+@@+ @%;@ +X 3o*5+@@&.#@*1+#%+1o.1X%+o# +1+oo$",
"X;$+@%** # 524 3o@@;#@X%@@@X+*%+o.%1o#.;%O;1#@O+",
".*+  ##@@o%@$&++X2%&o+$+###&1*#..%*oo+.1#@4o*OO.",
";o+5 #* O;@*X>++X1@12@X.*.@1.@;1+1o44o+;1+&;+++o",
"X+o%+1.#.;.@&=O +2+;X%;+@o#o+#;;11o4X+o4++1++%%1",
".#%#.+o++;+.>>o2&1@;XoX+%1o++%;#@.*@+@*.%#OO#O *",
"o.+%.+o.#1.%X;#o&+@XX4;+@1+%+.+*@+@@%@*+@##O@@O*",
"$>;+o2@@Oo+@.oO*#  ;&@.##.#@%++@++@@@O*#@O O*@O#",
"4;+*#O OO%.@+1@.%#@1X*#.@#* O%#@++#1o1XX14o+;1#.",
"X;+@+%#@O%.@.4@@+.+oX.## @#%#++#%.#%@%+;++++X%#X",
">>>&:$Xo#2+...OO+@*#+@OO5##O++..+o%@*O@+#@@@1.@>",
"1+1+;.@+%X++1+#%11+;+.@++o+*.1.;+1o1o++4##o.1.@&",
"1o+#+@*o1$$+4@%.%++X4o1;XX&X>>4=XXX;X1;>o#+*1#Oo",
"oo.%;+@++oo@4++1%.%++#..+##%+o*++#@O.*.&oo;@+@O+",
";++1$2*...*O2++2.11X1#@@4+@@..O@%@OO+%@;@*;o1.#X",
"+%%1X@ @@#O5X@%@Oo1&1* %&+O*oo*@@@@.;# o* +@;XX;",
"o;1;o@5@++##>4o1.111.@.X:+@1>6+++1+#+O +@*1.;111",
".;;>>;.+1;.#<;+11;1++1X>-o+$6X+4;1+.X1+X11;%X#*#",
" OO+11@@#%  >#@%*#.+.+O+X* .%* @@ *%1.#+2;;@;;;.",
" @1X22O @..@$*O.O##..+.>>#O#1.1@*O+1+@O.%;o@11o*",
" @>&+;@#&;o+$@#1%+++++1:X* .X1$1++44#+%%@X1 #++ ",
"o+:1@X@@o+@OoO@1o.++oo+=#  %X.X@*.@*@#@@+>$.X>-X",
"o=7:+=@*@O@#1#@o.#*1;o4XO5 *+#153%1%+;1X<7$%o1X."};
