/* XPM */
static char *cyan[] = {
/* width height num_colors chars_per_pixel */
"    48    48      130            2",
/* colors */
".. c #041e1c",
".# c #048a8c",
".a c #7cfefc",
".b c #14c6c4",
".c c #4ceeec",
".d c #044e4c",
".e c #04aaac",
".f c #34e2e4",
".g c #043234",
".h c #0cbabc",
".i c #2cc6c4",
".j c #046e6c",
".k c #b4fefc",
".l c #343234",
".m c #049a9c",
".n c #14aaac",
".o c #2cd6d4",
".p c #042624",
".q c #3cf2f4",
".r c #1cbabc",
".s c #64fefc",
".t c #24d2d4",
".u c #4c4e4c",
".v c #04a2a4",
".w c #045e5c",
".x c #9cfefc",
".y c #24c6c4",
".z c #4cfefc",
".A c #04b2b4",
".B c #44e2e4",
".C c #044244",
".D c #047e7c",
".E c #d4fefc",
".F c #444244",
".G c #3cdedc",
".H c #242224",
".I c #2ccecc",
".J c #14b2b4",
".K c #2cdedc",
".L c #1cc2c4",
".M c #141214",
".N c #14c2c4",
".O c #14a6a4",
".P c #049294",
".Q c #8cfefc",
".R c #1ccecc",
".S c #045654",
".T c #0caaac",
".U c #3ceaec",
".V c #043a3c",
".W c #14babc",
".X c #047674",
".Y c #c4fefc",
".Z c #3c3a3c",
".0 c #0c9a9c",
".1 c #34d6d4",
".2 c #24babc",
".3 c #0ca2a4",
".4 c #046664",
".5 c #5cfefc",
".6 c #2c2a2c",
".7 c #34cecc",
".8 c #1cb2b4",
".9 c #1c1a1c",
"#. c #1cc6c4",
"## c #3ce2e4",
"#a c #042e2c",
"#b c #44eeec",
"#c c #74fefc",
"#d c #acfefc",
"#e c #24cecc",
"#f c #54fafc",
"#g c #0cb2b4",
"#h c #44eaec",
"#i c #044a4c",
"#j c #048684",
"#k c #e4fefc",
"#l c #4c4a4c",
"#m c #048e8c",
"#n c #84fefc",
"#o c #4cf2f4",
"#p c #045254",
"#q c #04aeac",
"#r c #34e6e4",
"#s c #043634",
"#t c #2ccacc",
"#u c #047274",
"#v c #bcfefc",
"#w c #343634",
"#x c #049e9c",
"#y c #14aeac",
"#z c #042a2c",
"#A c #1cbebc",
"#B c #6cfefc",
"#C c #24d6d4",
"#D c #04a6a4",
"#E c #046264",
"#F c #a4fefc",
"#G c #24cacc",
"#H c #044644",
"#I c #048284",
"#J c #dcfefc",
"#K c #444644",
"#L c #242624",
"#M c #2cd2d4",
"#N c #14b6b4",
"#O c #34dedc",
"#P c #24c2c4",
"#Q c #141614",
"#R c #049694",
"#S c #94fefc",
"#T c #045a5c",
"#U c #0caeac",
"#V c #043e3c",
"#W c #14bebc",
"#X c #047a7c",
"#Y c #ccfefc",
"#Z c #3c3e3c",
"#0 c #0c9e9c",
"#1 c #24bebc",
"#2 c #0ca6a4",
"#3 c #046a6c",
"#4 c #2c2e2c",
"#5 c #34d2d4",
"#6 c #1ccacc",
"#7 c #44f2f4",
"#8 c #1cb6b4",
"#9 c #1c1e1c",
"a. c #54fefc",
"a# c #0cb6b4",
/* pixels */
"#Z#Z.Z#w.l#4#4#4.l#w#l#K#K#K.F#l#K#4.6#4.l.Z.Z.l#L#L#L.6#4#4#4.6.H#L#L.9.9#9.H.H#9#9.9#Q.M.9#9#L",
"#4.Z#w.l#4#4.6#L#9.6.F#Z#w.Z.Z#Z.Z#L#L#4.l#w#w.6#9.H.6.6#w#w.l#4.6.6#4.6#L.6.6#L.H.M.M.M.M.9.H.H",
".6#4.6.6.6.6#4#4.6#L#4.l.l.l#w.l#L.H.H#4#w#w#4.9.9#L#L.6#w.F.l#w#4#4#w#4.l#w.l#4#L.9#Q#Q#Q#L#L#L",
".H#Q.9.9#9.6.l.l#4.6.6#4.l#w.Z.6#L#L.d#E#u#I#m.P#m.#.##j#I#X#T.l#w#w#w.Z#4.Z#w#w#4.6#L#9.6#L.6#4",
".9.M#Q.M#9.6#4.F.Z#4#4.l#w#Z#Z#4#E.4.j#X.D#j#3#u.X#X#j.#.P.##m#j#j#w.Z.l#4#w#K.F#w.6.6.6.6.6#L#L",
".9.M.M.9#L#w.Z#K#K.Z#w#w#Z#K.w#u#I#j.P#R.m.m.P.m#R#x.P#R#j#j.##x.P.##I.Z.6.F.u#K.Z#4#4#4#4.6.H#9",
".9.M#Q#9.l#w.Z.F.u#l#Z.Z#i.4.X.X.#.P.#.D.D#j#R#x.m.e.e#q#D#m#j#R.v#D#R#X#j.F#l#l.Z.l#4#4#4#L.9#Q",
"#9.M#Q.l#w.l.l.F#K#l.u.d#u.4.j.X#X#X#I#I.D#I#j#I#j#j.v.e.A#D#x#I#q#q.v.v.m#m.u#K#w#4.l#4.6#9.M.9",
".H#9#Q.l#w.l#4.Z.F.u.S#3#3.j#u#X#I#I#j#j#m#m.##m#R.h.R#e.N.e.m#m#m.h.A#x#D#x.D#K.Z#4#4.6#Q.M#Q#9",
".l#9.9.H#w#w.l#Z#l#p#u#3.j.X#X#I#j#m#m.#.##m#m.m.o#7.f.N.e#x.P#m.m.v.h#q.e.v#x#j#Z.Z#4.9#Q.M#9#4",
"#w#L.H#L#4.l#w.F#i.4#X.X#X#I#I#j.P#R#R#m.P.P.v#q.5#B#g.m#x.e#D.h.K.h.b.h.e.m.v#R#j.F#Z.6.M#Q.6#w",
"#4.H#L.6.l#w#4#H.d#T.j#u.D#j.##m#m#R#R#D.W.L###B.o#x.v#n.k.5.s.U.5#r.t.N.A.e#x.m#R#3.u#w.9.9#4.l",
"#L#9#L.l.l#4#4#p#p.d.j#X#I.##m.P#R.m.v.J.y.1#o#D#x.e.5#v#6#6.A#C#c#B.K.h.h.e.e.v#R.##l.Z#L.9.H#4",
".l.H.H#L#4.6.d.w#3.4#u#X#j#I#I.P.m.m.v.v.v#D.e.f.a.Q#v.h#D#x#x.e#q.q#o.b#W.h.A#D#R.##u.Z#4#9#9#L",
"#Z.6.H#L#4#4#H#3#E#u#X#X#I.#.#.#.P#x.va#.y.I#M#P#P##.z.ha#.h#q#x.m.R.s.K#W#..A#D#R#m#I#Z#w#L.H.H",
"#l#4.6.6.6.g.d#T.j.D#I#X#j.P.P.m.m#2#D.I#y.J#8#A#P.o.U.t.a.k#J#r.m#D.a#O#..N.A.v.m#m.##u#Z.6.6.6",
"#l#Z#4#4#L#p.4.w.X.##j.D#m.m.m#x.v.T#U#G.n#x.J#1.I.f.f.a.E.Y.E#c.m#x#7.Ua##ga#.m#R.P.#.##Z.Z#w.l",
".u#Z.l#4#s#i.4.4#X#j.#.D#m.m#x#D#D.W#t.r#0.3.O.L##a..5#F#k#Y.k#v.e#x.b.W#qa##W#x.m.P#j.#.4#Z#w#w",
"#l#Z.l#4#i#H#T#3#X#j.##j.##m#x#y#8.r.I.8#0.n.G.a#c#B.x.Y#v.x#d#F#6.A#6a##q.W.h#q#R.P#j#I.j#w#w.Z",
"#K#K.Z.l#p.S.4.j.X#X.D#j#j.#.##R#2.n.r.2.1#5.5#Y.Y#B#Y#J#d#v#Y#F.z.N#.a##g#D#D#q#R.P.m.#.D.Z.F#w",
"#Z.F#Z#w#p.4#T.4#3#u.X#j.#.#.P#R.0.3.n.2#c.Q#S#v#n#v.Y.E#k#J.E#d.z#6a#.e.e.v#x#D.v#x.m.P#I#Z.Z#4",
".Z#Z.F#Z.V.d.S#E.4.j.X.D#j.P#x#N#8.O.3.O#8.5#d#S.x#v#F.k#Y#v.E#J#n.b#q.e.v.v#R#R#m.m.P.P#I#w.6#L",
".Z#Z.Z.l.V.V#p#E#E#3.X.D.#.m#U#O#b#o#0.3#8#P#v#S#d#n#B.x#d#S#J#F.Q#r#g.h.v.m#x#j#j.v.##I#j.6#L#L",
"#w.l#4#9#s.d#i#T.4#E.D#I#m#2.U#c.a.5.O#0.8.n#d.x#S.a.s#Y#J#n.x#Y#Y#F#c#c#6.v#m.#.D.##X.j#j.H#9.H",
"#4.H.M.M.p.S.C#p.w#T#3.X#m#U#1.s#n.Q.n.m.0.B#v.x#o#o.x#Y#J.Q.c###h.Ga..1.J#R#m#m#j#I#X.w#X#4#L.6",
"#L.M.M.M...S#H#V.d.S#T#u#m.n.m#1#S#n#c.5#n#S#B.G.7.Q.k.E.a#7.I#P.r#A.J#2.m#R.P#j#I#I#X.j#3.Z.l.l",
".H#Q.M#Q#z#E#H#V#i.d.S.4#j#R.P#x.2#o.c#h.c.I#8.8#B#n#c#n.s#O#h#b.1#M#U.m.P.P.##I#j#m.D#I#m.F#Z#Z",
"#L#Q#Q.M#H.4#V#s#p.S.w.w#I#R#j#I.#.P.#.0#0.O#y.1#O.1.8#P#f.s.s.5.f#O#g.v.m.P.##m.P#R.P#I.D#K.F.F",
".H#9#Q#Q.C#H#T#V#H#T#E#T#X.m#j#I.D#I#j.##m.n#1#t#G.y#8.n.i#h.G#2.m.3#g.e.v#R#R#R.m#m.P#X.j#K#l#K",
"#4.H#9#Q.p.g.S.C.S#E.w.S.j.v#j#I#X#j.##m.m#P#A#8#5#t.8#8.y#y.m.P.P.P.P.P#x#R.m.m.m.m#m.D#T#l#K#K",
".6.H.H#Q.M#a.d.S#T#E.w.S.P#2.P.X#X#I.##y.r#P.m.P.0#y#P#P#y#0.P.m#g#x#m.#.#.P#R.P#R.P#X#3#w.F#l#K",
"#L.H#L#9#9#z#H#p#p.w#T#E#m.##I#3.4#X.P#2.0#m#j#R.P.P#0.T.3#2#x.J#A#W.e#R#j#m#R#R.P.#.X.w#4#Z#K.F",
"#L#L.6.6.6#L.C#p#T.S#E.j.X.D.j.4.4#X#m#m#R#I#m.0#y#R.##m.3#y#U.T#U.J#U#m#X.P.##m.#.j.X#L#w.Z#K.F",
".9#L#4.l#Z#w.p#V.d#T.4.j#3.4#3#3#E#X#I#m#2.P#X#j.n.J#2.3#2#2#2.v#x#x.P.X#I.##j.X#3.4.w.6.6.l#Z#Z",
".H.H#L#w#K#K#Z#V.g.C.w#E#E.w.4#3#3.X.D#I.m#R.X.#.m#2.3.v.v.m.P#j.X.##X.j#X.D#u#3.4#p#9#9.6#L.l.l",
"#w#4.Z.F#l#l#l.g#z.V#V.S#p.S#E#u.X#I#j#I#j#j.X#X.m#0#x.m.m#m.D.X#u.X#3#3.X.X#T#T#T.d#Q.9#9#L#L.6",
".F.Z.l#w#4#w#K#K#s.g#s#H#i.d#T#3#u.X#X.X#u#u#u#X.m#2#x.m#x#x#u#u#X#u#3.4.j.4#T#E.S.M.M#Q.H.H.H#4",
".F#w.6#4#L.6.Z#w#w..#V#V#H.S#T#E#E.4#3#u#u.X.j#X#m.3#x#R#x.m#x#R#j.j#E.4#u.X.w#T.M.M.M#Q.9.H#4#4",
"#Z.6#L.6.6#4#4.6#L#L#z.V#H#i#p.S.w#E.4#3.j.j.X#u.D.P.P.D#j.##j.P.P.##3#E#X#u#T#9.M#Q#Q.M#9#L#w.l",
".6.9#L.H.6#L.6.H.H#9.H...g.C#i.S.w.4#3.4#3#u#X.##j.D.w#T#E#E.4.D#I.D#p#E.d#p#L#9#9.M.M#Q.H.6.l#4",
".9#Q.M#9.H#L#L#9#9#9.6.6.p#a.V#i.S.w#E#3.j#3#E#p.d.d.d#p.d#p.d.X#I#T#i.C#s#9.6.6#4#9#Q#9#9.H#4.l",
"#Q.M.M.9#L#9.H.H.H#9.H#L.6#4.p#V#i#p#T#T.C#H#H#T.S.w#T#p.S#i#H#3.4#H.V#Q#L#L#4#L.6#L.H#9#9#Q.6#w",
".H#Q#Q#9.H.H#9#9#9#9.H#9#L#4#Z#K.g.C#s#s#s.V#i.4.j#T#p.d#i#V#T.d.V#Q#Q#9#L.6#4#4.H#L#L.H#9#9.6#4",
"#4.H#Q#9#9.H.H.H.9.9#L#L#4#Z.F#K.u.u.p...g#i.g#s#i#V.C.V.V.V.g.M#9.H.H.6#4.l#4#L#9.H#L#L.H#9.H.6",
".Z.6#9.H#L.6#9#Q#Q.9.H#L.l.l.F#K.u#K.F#w#w#4#9#Q#Q#Q.9#Q#9#Q.M#9#L#4#w.F#K.F.Z.H#9.H.6.6.6#L.H#L",
".F#w#L.6.6#4#9#Q.M#Q.9.H.l.l#Z#K#l.u#l.Z#w.6#9#Q.9#9#L#4.6#L#9.H#4#w.Z.F#K.F.l#L#4.6.l#w.Z.l.6.H",
".F.Z#4#4.l#w.H.M.M#Q.9#L#4.l#w.Z#K#l#l#Z.Z#w.6#L.H#L#4.l.l.l#4.l#Z.Z.Z#w#Z#w#4#w.F#w#w#K#l#K#Z#4",
"#Z#w.l#4.l#w#w#9#Q.9#9.H.6.l#w#w#Z#K.u#l#K.F#w.l#4.l.l.l.l.l#w#Z#Z.F#w#w.l.6.Z#Z#K.F.F#l.u#l.F.l"
};
