/* XPM */
static char *cyan[] = {
/* width height num_colors chars_per_pixel */
"    48    48      138            2",
/* colors */
".. c #0c0a0c",
".# c #048684",
".a c #7cfefc",
".b c #14c6c4",
".c c #044a4c",
".d c #4ceeec",
".e c #04a6a4",
".f c #34e2e4",
".g c #0cb6b4",
".h c #042a2c",
".i c #4c4a4c",
".j c #2cc6c4",
".k c #2c2a2c",
".l c #046a6c",
".m c #b4fefc",
".n c #1cb6b4",
".o c #14a6a4",
".p c #2cd6d4",
".q c #049694",
".r c #3cf2f4",
".s c #041e1c",
".t c #64fefc",
".u c #24d2d4",
".v c #5c5e5c",
".w c #045a5c",
".x c #04aeac",
".y c #043a3c",
".z c #3c3a3c",
".A c #9cfefc",
".B c #24c6c4",
".C c #4cfefc",
".D c #44e2e4",
".E c #047a7c",
".F c #d4fefc",
".G c #1cbebc",
".H c #3cdedc",
".I c #049e9c",
".J c #2ccecc",
".K c #2cdedc",
".L c #1c1a1c",
".M c #545654",
".N c #14aeac",
".O c #141214",
".P c #048e8c",
".Q c #8cfefc",
".R c #1ccecc",
".S c #045254",
".T c #0ca6a4",
".U c #3ceaec",
".V c #14b6b4",
".W c #043234",
".X c #343234",
".Y c #047274",
".Z c #c4fefc",
".0 c #34d6d4",
".1 c #046264",
".2 c #0caeac",
".3 c #044244",
".4 c #444244",
".5 c #5cfefc",
".6 c #24bebc",
".7 c #0c9e9c",
".8 c #34cecc",
".9 c #242224",
"#. c #1cc6c4",
"## c #3ce2e4",
"#a c #545254",
"#b c #24babc",
"#c c #0c9a9c",
"#d c #44eeec",
"#e c #74fefc",
"#f c #acfefc",
"#g c #54fafc",
"#h c #44eaec",
"#i c #14bebc",
"#j c #048284",
"#k c #e4fefc",
"#l c #1cb2b4",
"#m c #0c0e0c",
"#n c #048a8c",
"#o c #84fefc",
"#p c #044e4c",
"#q c #4cf2f4",
"#r c #04aaac",
"#s c #34e6e4",
"#t c #0cbabc",
"#u c #042e2c",
"#v c #4c4e4c",
"#w c #2ccacc",
"#x c #2c2e2c",
"#y c #046e6c",
"#z c #bcfefc",
"#A c #1cbabc",
"#B c #14aaac",
"#C c #2cdadc",
"#D c #049a9c",
"#E c #042624",
"#F c #6cfefc",
"#G c #24d6d4",
"#H c #646264",
"#I c #045e5c",
"#J c #04b2b4",
"#K c #043e3c",
"#L c #3c3e3c",
"#M c #a4fefc",
"#N c #24cacc",
"#O c #047e7c",
"#P c #dcfefc",
"#Q c #1cc2c4",
"#R c #04a2a4",
"#S c #2cd2d4",
"#T c #34dedc",
"#U c #1c1e1c",
"#V c #5c5a5c",
"#W c #14b2b4",
"#X c #141614",
"#Y c #049294",
"#Z c #94fefc",
"#0 c #045654",
"#1 c #0caaac",
"#2 c #14babc",
"#3 c #043634",
"#4 c #343634",
"#5 c #6c6a6c",
"#6 c #ccfefc",
"#7 c #0cb2b4",
"#8 c #24c2c4",
"#9 c #0ca2a4",
"a. c #34d2d4",
"a# c #1ccacc",
"aa c #44f2f4",
"ab c #14c2c4",
"ac c #047674",
"ad c #046664",
"ae c #044644",
"af c #444644",
"ag c #242624",
"ah c #54fefc",
/* pixels */
".i.X.k#U.X#v.z.L#X.Oag.z.4.k.9#X.9#x...k.z#4.z.4#x#U.9.9#4ag#x.9.zaf#v#x#a.9.L#Uag...zaf#v.k.9.L",
"af#X.9#v#U.i.9#U.L#x.i.k.kagaf#U.4.k#x#x#U.L#U#x.4#a.zag#U.X.L#4#L.k.X.z.L#4#U.O#x#L.i.i#4ag.9af",
".X.X#m.z#X.4#4#U.kaf.v#4#X.9.i#X#5#L.z.Xag.k.L#Xag#v.vaf.9#X#X.L#U#x#m.9#4#a.4#x#x.Xaf.i.Lag.O#x",
"#U.z#U#x#4#x.z#U.4#H#H#a.k#4#U#4.v.X#p.1.Y#j.P#Y.P.##n.##j.E#I#4af.i#X...Maf.M#U.O#U.9.zag.z.k#U",
".4.9.X#4.i#U#m.L#L.X.X#L#4.L#x.X.1.l.l#O#O.#.l.Yac.E.##n#Y#n.P.#.##4..#x#V.i.X.L#Xag#x#4#4#L.X#U",
"af#X#a.4ag.4.9.Lagagag#4#Uag#I#y#j.##Y.q#D#D#Y#D#D.I#Y.q.#.##n.I#Y#n#j#L#v.iag.O.k.X.k#U.kaf.9.k",
".i.k#v#v.X#v#4#U#x.9ag#x.cadacac#n.P#n#O#O.#.q#D#D#r.x.x.e.P.#.q#R.e.q.E.##4#L#U.L.k#x#L.L#X#x.M",
"#v#m#a#a#U#v.z.k.L.9#v#p.Yad#yac.E#O#j#j#O#j.#.#.#.#.I#r#J.e.I#j.x.x#R#R#D.P#Hag.k#X#x.z.X#x.L.X",
"af.k.k.k.X.X#x#v#x.9#0.lad#y.Y.E#j#j.#.#.P.P#n.P.q#t.R.uab#r#D.P.P#t#J.I.e.I#j.9#X.L#4.i.X#U#U.L",
".i.iafag#v#v.z#xaf.S#y#y#yac.E#j.#.P.P#n.P.P.P#D.paa.fab#r.I#Y.P#D#R#t.x#r#R.I.#.X#m.L#L.k#X.O.X",
".9#v#aaf.X#v#4#x.cad.Eac.E#j#j.##Y.q.q.P#Y#Y#R.x.5#F.2#D.I#r.e#t.K#t.b#t#r#D#R.q.##U..ag#m.i#4.9",
".k.L#4#x#U.9.9ae.c#I#y.Y#O.##n.P.P.q.q.e#2#Q###F#C.I#R#o.m.5.t.U.5#s.uab#J#r.I#D.q.lag.z#4.v.kag",
"#U.Lag#U.9.Xag#0.S#p#y.E#j#n.P#Y.q#D#R#W.B.0#q#R.I#r.5#za#a##J#G#e#F.K#t#t#r#r#R.q#nag.L.k.L.Xag",
"#U#U.L.4#x.X#p#I.lad.Y.E.##j#j#Y#D#D#R#R#R.e#r#s.a.Q#z#t.e.I.I#r.x.r#q.b#i#t#J.e.q#n.Y.k#U#L#vag",
"#U.9ag.4.4#xae.l.1.Y.E.E#j#n#n#n#Y.I#R.g.B.J#S#8.6##.C#t.g#t.x.I#D.R.t.K#i#.#J.e.q.P#jag.X.4.M.z",
".9ag.kagaf.W#p.w#y#O#j.E.##Y#Y#D#D.T.e.J.N#W.n.G#8.p.U.u.a.m#P#s#D.e.a#T#.ab#J#R#D.P#nac#vaf#v.X",
"#x.O#4ag.X.Sad#Iac.#.##j#n#D#D.I#R#1.2#N#B.I#W#8.J.f.f.a.F.Z.F#e#D.Iaa.U.g#7.g#D.q#Y#n#n.X.M.v.z",
".L#U.z#4.W.c.1ad.E.##n#j.P#D.I.e.e#2#w#A.7#9.o#Q##ah.5#M#k#6.m#z#r.I.b#2.x.g#i.I#D#Y.##nad#U#V.i",
"ag.9ag.z#pae.w.l#O#j#n.##n.P.I.N.n#A.J#l.7#B.H.a#e#F.A.Z#z.A#f#Ma##Ja#.g.x#2#t.x.q#Y.##j#y#maf#H",
".z.z#U.M#p#0ad#yac.E#O.#.##n#n.q.T#B#A#b.0a..5#6.Z#F#6#P#f#z#6#M.Cab#..g#7.e.e.x.q#Y#D#n#O.Oaf#a",
"#x#a#X#L.S.l.wad#y.Yac.##n#n#Y.q#c#9#B#b#e.Q#Z#z#o#z.Z.F#k#P.F#f.Ca#.g#r#r#R.I.e#R.I#D#Y#j#U#4af",
"#v.X#X#v.y#p#0.1ad#yac#O.##Y.I.V.n.o#9.o.n.5#f#Z.A#z#M.m#6#z.F#P#o.b.x#r#R#R.q.q.P#D#Y#Y#j.9#4ag",
".Lag.L#U.y.y.S.1.1.lac#O#n#D.2#T#d#q.7#9.n#8#z#Z#f#o#F.A#f#Z#P#M.Q#s#7#t#R#D.I.#.##R#n#j.#.9#4ag",
"#x.9.9#U.W#p.c.wad.1#O#j.P.T.U#e.a.5.o.7#l#B#f.A#Z.a.t#6#P#o.A#6#6#M#e#ea##R.P#n#O#n.E#y.##H.Xag",
".L..#X.k#E#0.3.S#I#0.lac.P.2.6.t#o.Q#B#D#c.D#z.A#q#q.A#6#P.Q.d###h.Hah.0#W.q.P.P.##j.E#I.E#Lag.L",
"#U.9.9.L.s#0ae#K#p#0#I.Y.P#B#D.6#Z#o#e.5#o#Z#F.H.8.Q.m.F.aaa.J#8#A.G#W.T#D.q#Y.##j#j.E#y.l.L.L#U",
"#X#4#4#U.h.1ae#K.c#p#0ad#j#D#Y.I#b#q.d#h.d.J.n#l#F#o#e#o.t#T#h#d.0#S.2#D#Y#Y#n#j.#.P#O#j.P.i#xag",
".k.k#4ag.cad.3#3.S#0.w.1#j.q.##O#n#Y#n#c.7.o.N.0#T.0#l#8#g.t.t.5.f#T#7#R#D#Y#n.P#Y.q#Y#j.Eag#m#4",
".M#X.9ag.3ae#0#K.c#0.1.w.E#D.##j#j#j.##n.P#B.6#w#N.B.n#B.j#h.H.T#D#9#7#r#R.q.q.q#D.P#Y#O#yag.z.L",
".X.k#m.L#E.W.w.3#0.1#I#0#y#R.##j.E.##n.P#D#8.G.na.#w#l.n.B.N#D#Y#Y#Y#Y#Y.I.q#D#D#D#D#n#O.w#X.O#U",
"#x.k#4#v.M#u.c#0.w.1#I#0#Y.T#Yacac#j.P.N#A.6#D#Y#c.N#8#8.N.7#Y#D#7.I.P#n#n#Y.q#Y.q#Y#O.l#X#U.9.z",
".z.L.9#4#v.h.c.S.S#I.w.1.P#n#j.l.l.E#Y.T.7.P.#.q#Y#Y.7#1#9.T.I#W.G#i#r.q.#.P.q.q#Y#nac.w.z.k.X#V",
".zag...4#x#4#K.S.w.w.1#yac#O#yadad.E#n.P#Y#j.P#c.N.q#n.P#9.N.2#1.2#W.2.P.E#Y#n.P#n#yac#x.9#x#X#x",
"#U.9.L#L#U.L#E#K#p.wad#y.l.1.l.l.1.E#j.P.T#Y.E.##B#W.T#9.T.T.T#R.I.I#Yac#j#n.#ac.lad#I#x#X#U#L.z",
"af#v#x.k#x.4#a#K.W.3.wad.1#Iad.ladac#O#j#D#Dac#n#D.T#9#R#R#D#Y.#ac#n.E#y.E#O.Y.lad.S#U#X.z#x.9#4",
".L.X.z.zaf#X#x.W#u#3.3.S.S#0.1acac#j.##j.##jac.E#D.7.I#D#D.P#Oac.Yac.l.lacac.w.w.w.c#x.k#x.z.9#L",
".L.4#U#U#a.X.X#m#3.W#3ae.c.S.w.l.Yac.Eacac.Y.Y.E#D.T.I#D.I.I.Y.Y.E.Y.lad#yad.w.1#0.v.9#x#x.9.O.X",
".Xag#Lag.k#x.Xag.4.s#K#Kae#0.w.1.1ad#y#y.Yac#y.E.P#9.I.q.I#D.I.q.##y.1ad.Yac#I.w#4.M#U.z.z#X.Lag",
".zag.9ag.L#L.X.L#L#4.h.yae.c.S#0#I.1ad.l#y#yac.Y#O#Y#Y#O.##n.##Y#Y#n.l.1.E.Y.w#X.L#a#x.L#U#X#x.z",
".4.L#X.i#4#U#4.O#v#v.9.s#3.3.c#0#Iad.ladadac.E#n.##O#I.w.1.1ad#O#j#O.S.1#p.S#L#U#U#4#aag.X.kag.X",
"#aag.z.X#L.Xagag#Laf#4ag.s.W.yae.w#I.1.l#y.l.1.S#p#p#p.S#p.S#pac#j.w.c.3#3af.z.k.i#4#Lag.kaf.Mag",
"#v.X#X#x.9.L#X.O.9#X.L#4.v.v#E#K.c.S.w.waeaeae.w#0#I.w.S#0.cae.ladae.y#L#4#x#v.Maf#X.z.zag#a.i#v",
".z#x.9#U#L#4.k#X#x#4.X#m.zaf.X#x.W.3#3.W#3#3.cad#y.w.S#p.c#K.w#p.y#X#x#Uagag#L#a.i.9#v.X#Uaf.M.4",
".9#m#v.iag.Oag.4#xagag.4ag#X.k#4#Lag#E.s.W#p.W.y.c#K.3.y.y.y.W.9#4#U#4#a.4.4.X.4#U.z.z#x#Uag#4af",
".L.k.9#U.9.k#U#a.z#U.X.O.X#4ag.X#U#V.v.k#X.9#x#m#x#X#4#x.X#4#x#U.X.9.9.M.M#a.i.9ag#a.Xag.9#U.O#U",
"ag#X.X.Xagag.X#4.L.X#a.X.4af.k.L#L.M.M#L#x.L#U.L#4.X.O#X#X.4#U.L.kagag.9af#a#x#U.9#Uag.i.i.X.9#X",
".X.k#U.L#4.z.X.L#U#xaf.4.L#5#L#U.4#a#a.i#4.O#X#4agag.L#L#x#U.k.9.M#L.X#m.X#a.4ag.L#a#v#v.i.4.X.k",
".k#U.i.z.z#mag#x.M.X#4.i#4#x#U#X.k.O.zag.L#X.z#H.4.4.X.O.4.9.z#4#L#Vaf#L.zaf#L.z#X.v#aaf.9#4#x#U"
};
