/* XPM */
static char *gray[] = {
/* width height num_colors chars_per_pixel */
"    48    48       58            1",
/* colors */
". c #131313",
"# c #141414",
"a c #151515",
"b c #161616",
"c c #171717",
"d c #181818",
"e c #191919",
"f c #1a1a1a",
"g c #1b1b1b",
"h c #1c1c1c",
"i c #1d1d1d",
"j c #1e1e1e",
"k c #1f1f1f",
"l c #202020",
"m c #212121",
"n c #222222",
"o c #232323",
"p c #242424",
"q c #252525",
"r c #262626",
"s c #272727",
"t c #282828",
"u c #292929",
"v c #2a2a2a",
"w c #2b2b2b",
"x c #2c2c2c",
"y c #2d2d2d",
"z c #2e2e2e",
"A c #2f2f2f",
"B c #303030",
"C c #313131",
"D c #323232",
"E c #333333",
"F c #343434",
"G c #353535",
"H c #363636",
"I c #373737",
"J c #383838",
"K c #393939",
"L c #3a3a3a",
"M c #3b3b3b",
"N c #3c3c3c",
"O c #3d3d3d",
"P c #3e3e3e",
"Q c #3f3f3f",
"R c #404040",
"S c #414141",
"T c #424242",
"U c #434343",
"V c #444444",
"W c #454545",
"X c #464646",
"Y c #474747",
"Z c #484848",
"0 c #494949",
"1 c #4a4a4a",
"2 c #4b4b4b",
"3 c #4c4c4c",
/* pixels */
"NQMHCzzyAGZYWYU1WAwAEMMCpqrvzyyvoqrgehmnlgda.eis",
"zMGByywrnxRPHIMPIqpzDHGxjmuvFHDzvtzvqwwsn....glo",
"szyvuxzyrtBECFIErmozEGxegtruJOFFBxIADKCzrebb#rrq",
"mdffnvzFBvtADIJxrqrFCDAddnoyGJFCGHFJCIHHyvontutx",
"g...jvCRMAADJOOzusxGGIFphoqxAAzxDILDBHWSHvvwwvrs",
"f..fpHMYYIEHMXVDwvBGKMKxqDwwwuxzDJPKwP3YKByxzuoi",
"e..nCIJS32PNRVVLvvvDHMNMLRDvuyBBDGKGCV31KDCAysga",
"i.cBFDFSY33TVYWLlpxzDIMRRPCytyzDCDGLK23XFBBzui.e",
"micEICCLT3301ZYPqitAGFKQMGwruBCDFGJMSX3XLAyud..j",
"CneoGGBS13ZYTXYVDilqtyyzDxpnvrpvzEHIMNX3SJye..jz",
"HrnqAEFSSLLKCPUSKlkouussspnooonotxzDIHRZTUSv#auI",
"znpvCEDwtCGBADHSMsyDDDCwrpoqqnoojnpwHGLSZ33JfgzE",
"qjqBEyxtssvyAxFOGuzEIIFxttuxxsvtnidmAHJNU21Mqfmz",
"FkmvyxyuvsttwyDIFBAGJJEAvvwyFJJGuh.hxGIHX1ZKykir",
"PupqyyAvurlqvvACBFHMLKEzwxyAFHIIDm.alINIKRWPIpjp",
"0zvwxDCAytkprqvzBDELLJFCBzACHHHIGs.ajwzFKRTTNxyv",
"3RBvsAEGDvlnuvKHBAFLLGFEHHCCCIJNNxa.evyBIRTWQLIC",
"3NBzyyCMMGopwJQNuhAIEDEGMPJxBFzEJyb.jvDDKUXUWPGF",
"2QDAEFGQ0JvAHOQTx#iuuvuGPRLwrAzzFvb#pDDCAJRQMKGI",
"XVMDINJQUQzHPQQQKfbekmtDKKCwsszHKAnbhFFwrwOQOKSJ",
"NTQGKPQOPKFGOPPLDuheprwBJGwwBCFMPMEunvxsuwMSRQKB",
"MQSQMRQONMIIIIGHAvtqvyFGDvsyAHOQRNGCztnoxyIQLFvq",
"KNLEIPQMONPMGByxxvwxHHGEvvpsEPROKGDEunlkuyENFwpq",
"KEzkhNPPOPQSEGCuvwuxCGzwqmqpBPRXSwsAsmiglyDNFnlp",
"zk...uDLKLNMCIHButuxIMztslnpAJMXTDuBujgfhyEKNyqs",
"s...gxCFIGGEEKKGFxwDMNExrrqtJJLUOKEBwfghkzAKNLFC",
"n...pCHyIEDCDJLJKJGRURKCyvuwLLJPQQQHzg#etFCCMVPP",
"qb#.juAxAAzBDJMPPOMSXZUKBrjrEMQPOQ0ZOr.dwDEKOZTT",
"pkcacmowCEFDGLSUWRQSW33viaahDJOMMV33UA#huzFOSZZV",
"xmj#bgnuEIHILMSUSSPSZYFc#..dyDIIP333Us.drpwFN00W",
"womb#fpsBHLRTNTYULEDJzf#adcijzKWQXYZLlhlttvAKS0X",
"qnsmipruCGMRS1330LACCnbdhhia.tGMKOLHzuqstoloBNXU",
"qquuvtwwAJUZ23333PDDzkecmvGt.asFIIECAwvsnljwDMVU",
"iqzFOGAxzIVZ3333ZRHEyojjoGPOv.evvFGDzyrfbhlvvEPP",
"nltEWYNFLQX3333WUYOFyoovEGSXF#..izEDwxqgbfijwtBD",
"FBJT032XSX23322VTUOHAwwxxFLNRxoeaqyxvsl.dddgjqow",
"UJGJzGYYWZ13LDOTTVTPIIypvHBBQROBhgppnl.....cnnnB",
"VHuxpxJIHJKHuwEIHNTSSQCjqyBtDQ0Mnmpnlj......gnzA",
"OustuyzstqmnnpsxBEFFLMHlsCGvBJQKypolnohi.b..ipHB",
"vhrqtvuolkpxusvuuBDMOQOvfrzDKKPFvmslnmqli..dovBB",
"g.#joqqmkjtwExFMGFHTVTPwihuCDOGwlllfiotvwlaklmCB",
"b..epmmljkppyAOZ1XNQWTzkjktxyvzlgebfnswvutkhgewF",
"ocbhpmlkjjnloyQ033TNQNuhhntttjh.#cejrvAvosrmkhuC",
"BkchlnmngerqAORZ33UKKLsbbfklh...komszDAqimpsmlnt",
"LwjostncacmsBGRY3YVJEDlabdffjb.krxITWSJmmluvvrnr",
"RJqswxi..ehnCEPY231KGthbbjrwwrinzFNTVVFpAxCKLDvn",
"SLBzBHn#..fsBCILW32PLIxpqryCDByFNMLKNHAGQHGW1XOy",
"OHBBDHGk#flpsEGGOZ310TGBBBEEEFHNRTIGEvIQYVS331TD"
};
