/* XPM */
static char *gray[] = {
/* width height num_colors chars_per_pixel */
"    48    48       95            2",
/* colors */
".. c #070707",
".# c #080808",
".a c #090909",
".b c #0a0a0a",
".c c #0b0b0b",
".d c #0c0c0c",
".e c #0d0d0d",
".f c #0e0e0e",
".g c #0f0f0f",
".h c #101010",
".i c #111111",
".j c #121212",
".k c #131313",
".l c #141414",
".m c #151515",
".n c #161616",
".o c #171717",
".p c #181818",
".q c #191919",
".r c #1a1a1a",
".s c #1b1b1b",
".t c #1c1c1c",
".u c #1d1d1d",
".v c #1e1e1e",
".w c #1f1f1f",
".x c #202020",
".y c #212121",
".z c #222222",
".A c #232323",
".B c #242424",
".C c #252525",
".D c #262626",
".E c #272727",
".F c #282828",
".G c #292929",
".H c #2a2a2a",
".I c #2b2b2b",
".J c #2c2c2c",
".K c #2d2d2d",
".L c #2e2e2e",
".M c #2f2f2f",
".N c #303030",
".O c #313131",
".P c #323232",
".Q c #333333",
".R c #343434",
".S c #353535",
".T c #363636",
".U c #373737",
".V c #383838",
".W c #393939",
".X c #3a3a3a",
".Y c #3b3b3b",
".Z c #3c3c3c",
".0 c #3d3d3d",
".1 c #3e3e3e",
".2 c #3f3f3f",
".3 c #404040",
".4 c #414141",
".5 c #424242",
".6 c #434343",
".7 c #444444",
".8 c #454545",
".9 c #464646",
"#. c #474747",
"## c #484848",
"#a c #494949",
"#b c #4a4a4a",
"#c c #4b4b4b",
"#d c #4c4c4c",
"#e c #4d4d4d",
"#f c #4e4e4e",
"#g c #4f4f4f",
"#h c #505050",
"#i c #515151",
"#j c #525252",
"#k c #535353",
"#l c #545454",
"#m c #555555",
"#n c #565656",
"#o c #575757",
"#p c #585858",
"#q c #595959",
"#r c #5a5a5a",
"#s c #5b5b5b",
"#t c #5c5c5c",
"#u c #5d5d5d",
"#v c #5e5e5e",
"#w c #5f5f5f",
"#x c #606060",
"#y c #616161",
"#z c #626262",
"#A c #636363",
"#B c #646464",
"#C c #696969",
/* pixels */
"#c.P.H.t.R#d.Y.r.p.j.D.X.5.I.z.n.x.N.b.F.Z.S.X.4.N.u.z.y.V.A.K.B.V.9#f.K#g.z.s.u.C.c.V#a#f.H.z.r",
".7.n.B#f.u#b.z.s.s.J#a.I.I.B.9.w.6.H.M.L.w.o.w.O.5#j.W.D.v.O.r.S.2.I.N.X.r.W.u.k.J.4#c#b.Q.G.y##",
".N.R.f.V.q.6.R.v.G.8#y.R.l.z#c.l#C.2.U.O.D.J.q.j.E#c#u.9.y.o.n.s.w.M.f.B.W#i.4.M.K.N.8#b.r.D.j.M",
".x.X.t.L.S.M.V.x.8#y#A#i.K.R.w.T#w.P.8.t.n.w.6.y.y.Q#g.6.q.o.J.T#.##.l.a#m.9#n.w.g.w.A.W.G.W.E.u",
".3.z.Q.S#b.w.g.o.2.Q.P.4.Q.q.M.K.u.0.2.L.y.u.J.E.2.J.P.E.o.G.Y.z.O.S.e.J#s#b.M.s.m.F.L.R.T.2.Q.v",
".8.n#j.4.C.3.A.s.E.B.B.T.v.C.r.x.C#t#l#i.e.x.o.o.Y.W.Q.E.G.Y.Y.D.w.C.n.1#d##.H.l.G.O.H.u.I.6.z.I",
"##.I#h#e.O#j.R.w.J.A.C.L.T#g.1.y.K.s.M#r.7.E.t.L.X.U.C.h#..1.A.Y#a.t.M#b#q.W.X.x.q.I.L.0.s.p.L#n",
"#d.i#j#i.v#d.Y.I.t.x#h.Z.T#b##.w.9#d.k.Z.E.P.q.5.S.B.s.6.1.l.O.6.7.w.I#e#c.R#A.B.F.p.J.Y.R.I.t.M",
".7.H.J.I.R.N.L#e.L.A.D.B.R.A.F.z.E.J.3.G.C.q.t.p.u.D.F.m.s.d.O.S.J.C#f.7.X.J#p.A.q.q.U#b.O.w.u.t",
"#c#a.7.D#f#h.Z.J##.R.T.O.C.3.5.j.W.L.7.S.N.N.7.2.s.p.S.t.B.s.N.m##.z.7#g.O.J.y.w.P.g.p.0.F.o.l.N",
".z#f#l.8.O#f.R.J.z.A.X#b.0.0#u.L.K.J.2.R.t.i.S.x.k.O.W.D.J#a.5.F.D.L.F.Q.S.K.l.I.M.w.c.F.h#b.S.z",
".H.s.T.K.t.z.z.B.I.t.O.4.9.O.P.p.g.S.Z.f.C.T.6.K.S.F.y.Y.H.x.v.C.E.S.Y.k.O.X.H.z.p.m.D.V.Q#v.E.F",
".v.p.C.v.z.O.G.s.X.z.u.u.q.u.2.E.4#m.Y.s.J.J.X.C.v.2.A.u#e#f#..6#g.p#i.F#q#i.1.q.X.Y.F.q.I.s.P.C",
".u.v.u.4.O.Q.V.p.C.l.Q.r.R#z#k.C#a#u.I.M#k.U.P.1.I.Q.B.G.1#e.V#k#h.u#q.4.Q.0.z.u.u.B.R.G.w.Z#e.F",
".v.z.B.6.5.K.Y.G.I.m.U.y#d.7.5.F.1.y#b#s#o.X.g.N.G.L.o.p.T#B#.#m#h.4#r.X.P#f.z.M.l.n.R.H.O.5#n.X",
".A.F.G.B.9.3.V.3.V.A.4.S##.O.u.t.0.k#e#o.R.v.w.B.p.J.L#n.K.6#j.V.i.2.Y.V.O.L.o.C.7#d.Q.A#g###e.O",
".J.j.W.D.N.J.t.O.h.z.H.C.N.s.y.o.s.Q.c.h.M.L.j.z.P.I#c#e#i.y.J.u.q.X.t.M.K.w.t.F.8#..1.V.R#k#u.X",
".s.t.V.T.y.1.T.l.w.n.q.M.A.C.R.X.7.N.R.y.I.u.C#q#x.A#.#i#a.0.9.A.I.t.O.s.5#j.D.r.t.M.V.U.K.x#s#a",
".C.z.D.Z.q.K.G.C.0.D.E.A.D.U#g#a.Y.D.I.P.q.O.q#e.V.J.I.H.4.7#..u.j.A#c##.z#s.F.S#j.y.l.K.Y.i.6#B",
".W.Z.u#l.B.z.t.E.S.J#k#b.h#f.9.o.G.g.C.t.P#t.X.U.8.t.5.W.v.V.Q.S.j.T.R#e.U.F.w.0.7.S.T.Y.P.j###i",
".L#k.q.2#d.I.Y.u.S.K.S#w.C.U.w.5.P.G.Q.P#d#h.G.Y.9.k.7.K.U.R.A.N.O.E.Q#m#h.5.j.F.O.c.2.W.5.v.R#.",
"#g.Q.k#f.1.3.9.J.s.U.R#u.6.C.h.y.A.E.k.J.P.M.q#d#f.v.D.h#e#x.K.g.u.R.4#y#y.9.F...X.r.A#a.N.x.T.B",
".p.F.n.v#d.2.0.R.8.A.U.6.1.H.U.m.P.w.D.H.N.B.9.8.V.F.z.Z.3.0.T.u.X.T.T#d#m.M.n.D.l.I##.0.v.B.V.C",
".O.y.z.y.Z#l#b.6.8.N.l.2.V.5.9.O.M.n.S.Z.8.1#o#e.T.A.v.B.Q.m.F.t.q.O.z.0.2.v.4#r.T.p.7#k.I#y.N.C",
".o.d.p.G.v.i.N.S.W.C.B.I.U.0.i.T.u.u.H.Z.E.C.F.7#..v.K.P#n#d.w.Y#g.Q.3.R.R.r###k#e.S.q.9.v.2.D.t",
".v.z.z.t.6.3.6.3.H.h.s.y#.#p#e.p#n#d.V.N.Q.B#g#..F.P.r.1.N.F.F#a.Q.P.s.d.O.A.s#e#s#a.4.y.J.r.s.u",
".n.R.U.v.3.0.W#a#d.P.Q.t.U.3#c.J.J.O.N.U.x.w.9#i.G.A.H.W.B.5#r.D.d.r.z.1#q.K.y#d.5#b#c.x#f#c.J.E",
".G.G.R.E.V.I.u.2#h.D#h.T.Q.U.Z.W.J.O.M.E.C.G.x.x.B.P.O.y.3.2.J.9.8#b.v#c#d.R.C.P.M.6#i.X.F.C.g.S",
"#o.m.x.F.O.j.T.Y.s.U.J.r.N.K.x.D.T#g.Y.S.N.C.U#i#u.L.E.0.U.o.V.2.1.2.v.2#i.Y.0.F.j.P#k#a.G.F.Y.q",
".Q.G.h.r.j.s.U#l.7.o.F.K#a.2.T.y.E#g.2.E.O.d.F.2.Q.s.G.M#h.z.x.K.5.I.M.2#j#e.8.D.T.s.J.S.K.l.i.v",
".K.G.S#e#q.V.i#..T.x.C.n#e#c.6.Y.T#f#a.w.w.c.L.w.A.n.B.s.Q.4.H.R.C.O.K.v.J.I.1.Q.m.o.K.B.q.u.z.W",
".Y.r.A.U#f.1.m.K.7#j.X.W#d#a##.9.V.w.F.Y.L.e.z.z.Z.M.V.T.H.5.w.G.l.V.t.M.w.m#a.7.5#a.M#g.X.I.S#q",
".Y.B.#.7.J.U.k.8#s.9.J.S.V.S.E#e#l.H.C#e.L.f.F.P#B.X.C.7.M.G.G.X.P.5.R.B.K.D.7#b#t#h.S.O.z.K.p.J",
".v.B.s.Z.v.s.V#g#l.q.Q.J.o.o.I#h#q.4.W#f.6.y.H.l.Z.Q.N.o.N.I.g.n.M#v#r.m.K.J.z.7.w.s.H.H.q.t.Z.X",
".9#e.M.H.M.4#h#f.S.v.5.G.w.E.X.V.5.5#e.9.p#f#o.4.y.u.V.E.N#b#..q.I.K.9.B.6.S.o.E.H.m.x.l.Y.K.A.T",
".p.R.W.Y.7.o.P.I.u.J.7.E.h.E.v.t.w.J.E.H.x#o#u#a#z.O.i.B.7#v#..B.M.k.K.x.D.L.M.0.I.P.L.H.J.X.y.1",
".s.6.w.w#j.P.O.f.i.y.S.F.n.P#e.0.P.x.Q#a.S.Q#q#A.U.w.N.E.2#e.U.A.B.n.v.4.L.v.P.J#a#A.x.O.M.z.j.P",
".O.D.0.B.G.N.O.F.6.x.Q.G.W.n.0.9#m.O.4#e#d#p#k.6.A.n.t.E.0.s.z.#.x.r.m.u.O.E.H.z.S#p.t.W.W.p.q.F",
".W.E.A.C.t.1.O.q.1.U#s#f#s.2#o#z#q.X.A.1.G.L.W.V.U##.F#l.G.7.K.A.P.e.w.z.S.9.R.q.r#h.N.q.t.q.I.Y",
".4.s.o##.R.t.R.j#c#e.A#e##.0.3.3.0.3.V#b.I.6.A.j.1.1.E#e.x#j.L.I#b.O.F#.#b#d.0.w.u.R#i.H.Q.F.B.Q",
"#j.B.W.P.1.Q.G.F.Z##.U.D.Y.O.G.x.I.e.E.y.V#r#f#f.D.w.A.M.s.M.g.G.2.s.J.3.J##.V.G#b.W.0.B.I#.#m.B",
"#e.R.n.N.z.q.l.h.B.l.q.V#t#y.X.F.Z.t.l.E#h#g#.#m.X.s.E.M.J.o.m.R.R.N.B.3.T.M#f#l##.m.Y.T.F#i#b#e",
".X.M.w.v.3.R.I.o.J.U.P.f.X#..Q.J.N.z.s.L#k.5.I.E.5.O.W.h.P.o.C.S.9.o.K.w.B.C.0#l#a.y#f.P.v.7#o.2",
".y.e#g#b.C.j.G.3.J.C.F.1.E.l.G.V.1.C.D.s.u.2.z.T.y.L.G.X.n.R.R.A.R.w.U#g.6.5.N.4.u.W.X.M.u.D.S#.",
".p.I.B.t.x.G.w#g.Z.t.Q.k.R.T.E.M.x#q#z.H.m.C.O.d.N.p.R.M.Q.W.K.x.O.z.z#p#n#k#e.A.C#k.R.B.C.t.l.t",
".F.n.P.P.D.G.N.U.q.P#l.P.2#..G.r.2#m#k.4.K.s.t.r.R.N.m.m.m.4.s.s.G.C.G.w.8#i.M.v.y.y.D#a##.O.A.m",
".Q.G.v.t.R.Y.P.s.w.L.8.7.t#C.4.t.5#k#k#c.R.i.n.W.E.D.q.1.M.w.G.B#l.3.M.f.R#i.6.E.p#k#h#f#b.7.O.G",
".J.t#b.X.Z.f.B.M#p.O.T#b.V.K.v.m.I.k.X.E.s.m.W#x.6.4.P.j.3.z.X.T.3#q#a.Z.W##.2.X.q#t#h.8.B.S.N.u"
};
