/* XPM */
static char * image_name[] = {
"48 48 14 1",
" 	c #186114511861",
".	c #186118611861",
"X	c #082008200820",
"o	c #10400C301040",
"O	c #28A2249228A2",
"+	c #208120812081",
"@	c #000000000000",
"#	c #20811C712081",
"$	c #28A22CB228A2",
"%	c #28A228A228A2",
"&	c #30C230C230C2",
"*	c #30C234D330C2",
"=	c #104010401040",
"-	c #082004100820",
"  .XoO+@++#+O$ .O #%&$%%O*&$+$%%&&O$&%%$&O+ =o=+",
"OO#=.%+@$$++++.+$+O$%$%O O%# .= %O.O$OO$$%O#%&%&",
"*&&.O$#@+%..O# #$##%%O  =+# =#..&$O$%#.+O###+O.&",
"%O+o O oO$#.$+  . =++  # +.=o +O&%%%$$O%$OO%O%+&",
"$#.oo#=o%%O$&O.%$&+&&#O$O%%OO.OO$OO#.+.#$+%%%$O&",
"= =.O&%#**&&&O#%$*%$&#%%O&$O++$O%.#++O++&$$$+$+ ",
"++ O%%O#&&O%%+OO%$.+% +OO%%+  %$%#.O+$$%*&$O#%+#",
"%$%&&%+#&$%&$##O%$#%&OO%O##===%&&%OO.++#O%. .O..",
"%++%$O#O&$&*&O%%$%#$&+%%%+%O#O&*$++OO%#.O%#OO##O",
"++#O%%.+$%$$O#%OO%+$%++OOO%$+%**%#O$%$+O&&O%%%$%",
"o.##OO+O$%$$#  =#%+$$O+$+#$&##$&%#%&%$%$&$%%+#%=",
"=OOO&$%#$$$O ###$&OO$++%O %%##&&O#O$%%O&&%#.O+#X",
"%*&$*&$#%$$O+%O+&$##O .O# %%  O%.#.%O#O$$$O%&+##",
"%*%%&+# #$+##O%#%%.+$.#O=X+%.  O.#O&&%$$#++%$.o#",
"..  +#+.+$+.O$$#O%#O&O+$#.%%+#%*&&$**$$&+%$%$  .",
"O$O$$%%O$*%+&$O=.+##%++*+#**$%$*&$%$%+%+.+O#+o +",
"+*$&&&$+%$+.O+ =#$++%+.&O $&&O#&%+#+O.+#..#++#%O",
"+$$&&%OO$O...++%%*%$&+ + -...# %$++O%#O+.+O&&+&$",
"#**&&$O%$$%$&$$&$*%%*##%O O$$+ +%#O$$O%O.++O+.%+",
"#&O++..+%%%$&$%$$&$$&#+*&OO**%#%O# OO+O+#O#+O %O",
"=+ .#o . #.== #++OO$&##&&#+&*+#%%+.+O%OOO$+%$+&#",
".&%%&O&$O$%#.OO#.++++=o#+=.$&+#+%+O$*%%&&%.%%#O+",
"+&$$$.%%+%+.#+..#O+##. O%=#$$ o###O$$O+%%+ +$O$#",
"++..# .O#++%.#OO%%+%O#+O$#+$&+=.+#%%%+O%+ =$&$&#",
"=+#.#++$..%%#%&&%##%%#+#O.+%+# .%#.++#.#= =O$%Oo",
"+&&%*$%%+#%O +%%$O%&&O%O&%O$O+##&$+$&%%O= =#+  .",
"%*&%$%O%%$&&+$&&$+%&&#%$*O+&&$O+&$O&*$%%+%O&*$+O",
"+..o.##%%%$$O+%OO##%% %&&OO*&%OO$O#%$O##.+.%%##+",
"O%++$$%$$OO%$+$$O%O&&.$&%#+&%+#O+#O%+#OOO%O$%+O%",
"$%%%$%#+++O$%+$&%%O&& +%# +%. +#+%%&%O%$O$%$**&$",
"%OOOOOO%%O%%$+%%O$+&$=+$+.%%#.%%$*$$%+%O### ..=#",
"$+%O+$&$$%%OO+##O$#%% O$$#O+ +O%$$O+O+####  ...%",
"$#+##%$O&&%O&OO+O% +%.#%O.%%+%$&*$O%%%++%&%O&&**",
"O++  O%%O%OO%#+##+.O&%#%O.%&%%%$$++OO+##$&OO$&*&",
"=  =#O$$$%+%%.+O%$#O%# +O#$$OO%%O+OO+O#O%&O##++.",
"..#.+%%%OO%%$+$&$$O&$  O%+%%+%%%$%$O%$+OO%+.+.#+",
"%%&%O&&&$$OO% O%%++&O=#+##+O#%O#%OO+O$#O%&%#%%&*",
"O+%%%&*&$$$$%.+O+O O.=O%OO$&OO%+&%O+OO.%$*$+$O&&",
"++O++$&O++#  .#+OO OO#$$$&**%$&%%++O$$#$O++=...#",
"&$$O#&&+O%##.O%$&% $&+$$%&&$%%&O+OO%$$.+ .==.  %",
"&#%OO&$#$&#+O%$$&% %%+%$%$&%### .O$O##o##+%+%O$*",
"$o#O#%%+$$O%%%$&&.oO$%%$+%%+##O.OOO$O$+%&&&O*&$*",
"+o+Oo#++. .##+O$O -++    ###..O+#+O$O$%%&*$.$$O%",
"O.O$#$$#O+.=   #+oo%$++%$$*$O#O%#++O##OO+O. %%+%",
"O.O&%&$+$%O%%$$$$..&*$$$&&&$O %%+O$&O%O%+%%+&+.O",
"O $&O%#.OO+$%%$*&+#&%O+=.##=X=O+#O$$O$%O+%&O&.+%",
"&O&*+$O%&$$%$&$&&+.%&&O O%%+= +#.%OO#%+.%%%O$=+*",
"$+&+=$O=OO$$$&O%%  O&&$O$**$O%$$&&%%%O#+&$%. o $"};
