/* XPM */
static char *green2[] = {
/* width height num_colors chars_per_pixel */
"    48    48      245            2",
/* colors */
".. c #040204",
".# c #3cc23c",
".a c #044204",
".b c #848284",
".c c #444244",
".d c #2ca22c",
".e c #0c620c",
".f c #8cc68c",
".g c #4ce24c",
".h c #448244",
".i c #2c622c",
".j c #045604",
".k c #042204",
".l c #249224",
".m c #6ca66c",
".n c #147214",
".o c #449244",
".p c #44d244",
".q c #242224",
".r c #34b234",
".s c #447244",
".t c #2c722c",
".u c #2c822c",
".v c #a4a2a4",
".w c #1c521c",
".x c #54b254",
".y c #1c421c",
".z c #5cf65c",
".A c #043204",
".B c #5c925c",
".C c #1c621c",
".D c #5cc25c",
".E c #3ca23c",
".F c #94e294",
".G c #84d284",
".H c #349234",
".I c #6cb66c",
".J c #646264",
".K c #147a14",
".L c #2c7a2c",
".M c #2c8a2c",
".N c #044a04",
".O c #5ce25c",
".P c #449e44",
".Q c #54d254",
".R c #043a04",
".S c #44ca44",
".T c #448a44",
".U c #5ca25c",
".V c #7cc27c",
".W c #1c5a1c",
".X c #041a04",
".Y c #8c8a8c",
".Z c #2c6a2c",
".0 c #0c5a0c",
".1 c #3cba3c",
".2 c #7cb67c",
".3 c #1c8e1c",
".4 c #545254",
".5 c #2caa2c",
".6 c #343234",
".7 c #1c6a1c",
".8 c #747274",
".9 c #0c6a0c",
"#. c #c4c2c4",
"## c #249a24",
"#a c #b4b3b4",
"#b c #5ceb5c",
"#c c #54dc54",
"#d c #5cae5c",
"#e c #4cc34c",
"#f c #144414",
"#g c #042c04",
"#h c #247524",
"#i c #549354",
"#j c #44b544",
"#k c #7cfe7c",
"#l c #3c753c",
"#m c #3c833c",
"#n c #1c4d1c",
"#o c #5c9c5c",
"#p c #3cad3c",
"#q c #8cfe8c",
"#r c #349d34",
"#s c #247c24",
"#t c #3c7d3c",
"#u c #3c8c3c",
"#v c #143b14",
"#w c #548c54",
"#x c #7ccc7c",
"#y c #2c5d2c",
"#z c #141514",
"#A c #949694",
"#B c #248424",
"#C c #8cde8c",
"#D c #145514",
"#E c #447d44",
"#F c #64b464",
"#G c #143614",
"#H c #144b14",
"#I c #549d54",
"#J c #3c6e3c",
"#K c #7cbe7c",
"#L c #a4fea4",
"#M c #44c444",
"#N c #0c440c",
"#O c #4c4c4c",
"#P c #34a334",
"#Q c #146314",
"#R c #54ee54",
"#S c #4c854c",
"#T c #346434",
"#U c #6cce6c",
"#V c #2c942c",
"#W c #6cb26c",
"#X c #1c741c",
"#Y c #4c944c",
"#Z c #4cda4c",
"#0 c #2c2c2c",
"#1 c #3cb43c",
"#2 c #6cfe6c",
"#3 c #347434",
"#4 c #348334",
"#5 c #6c9e6c",
"#6 c #0c0d0c",
"#7 c #4cae4c",
"#8 c #acacac",
"#9 c #54cd54",
"a. c #6c6c6c",
"a# c #5c5c5c",
"aa c #3c3c3c",
"ab c #7c7c7c",
"ac c #1c1c1c",
"ad c #9cfe9c",
"ae c #74be74",
"af c #949294",
"ag c #cccacc",
"ah c #bcbabc",
"ai c #9c9e9c",
"aj c #8cce8c",
"ak c #84da84",
"al c #1c851c",
"am c #54e554",
"an c #0c540c",
"ao c #4cd34c",
"ap c #245324",
"aq c #5cb25c",
"ar c #64f364",
"as c #0c340c",
"at c #246424",
"au c #44a244",
"av c #74b874",
"aw c #1c7c1c",
"ax c #347c34",
"ay c #348c34",
"az c #0c4c0c",
"aA c #64e264",
"aB c #4c9b4c",
"aC c #0c3c0c",
"aD c #4ccc4c",
"aE c #4c8d4c",
"aF c #64a364",
"aG c #84c684",
"aH c #245c24",
"aI c #346c34",
"aJ c #145c14",
"aK c #44bb44",
"aL c #84ba84",
"aM c #248c24",
"aN c #34ac34",
"aO c #64bc64",
"aP c #246c24",
"aQ c #146c14",
"aR c #2c9c2c",
"aS c #64ee64",
"aT c #5cdc5c",
"aU c #64ac64",
"aV c #0c2d0c",
"aW c #244b24",
"aX c #64fc64",
"aY c #649d64",
"aZ c #44aa44",
"a0 c #3c9d3c",
"a1 c #84ce84",
"a2 c #9c9a9c",
"a3 c #4c7e4c",
"a4 c #74ae74",
"a5 c #5cca5c",
"a6 c #54a254",
"a7 c #3c923c",
"a8 c #84fe84",
"a9 c #94fe94",
"b. c #94de94",
"b# c #acfeac",
"ba c #74ce74",
"bb c #74fe74",
"bc c #3cc63c",
"bd c #044604",
"be c #848684",
"bf c #444644",
"bg c #2ca62c",
"bh c #0c660c",
"bi c #8cca8c",
"bj c #448644",
"bk c #2c662c",
"bl c #042604",
"bm c #249624",
"bn c #6caa6c",
"bo c #147614",
"bp c #449644",
"bq c #242624",
"br c #34b634",
"bs c #6cfa6c",
"bt c #2c762c",
"bu c #2c862c",
"bv c #a4a6a4",
"bw c #1c561c",
"bx c #54b654",
"by c #1c461c",
"bz c #043604",
"bA c #5c965c",
"bB c #1c661c",
"bC c #84d684",
"bD c #646664",
"bE c #147e14",
"bF c #2c7e2c",
"bG c #2c8e2c",
"bH c #5ce65c",
"bI c #54d654",
"bJ c #043e04",
"bK c #44ce44",
"bL c #448e44",
"bM c #5ca65c",
"bN c #7cc67c",
"bO c #1c5e1c",
"bP c #041e04",
"bQ c #8c8e8c",
"bR c #2c6e2c",
"bS c #0c5e0c",
"bT c #7cba7c",
"bU c #545654",
"bV c #2cae2c",
"bW c #343634",
"bX c #1c6e1c",
"bY c #747674",
/* pixels */
".4af.cbWbWa2agbD.8aabqbU.cbea2#AbU#0a#a##Oa..Y#0#0#Oaaaa.JbqaabQa..b.JbDa#.6acbU.6bDa#a..4aabUbf",
"bY#z#ObqbqaabDaa#z.ca.aaa#bD.8.6aaa.#abUaa#O#8aba#afa#bY.c.6.4bfbDbf.c.8.8bQ#Obfac#0aabf.Ja#a##0",
"abbUa..8a#bU.ca.bW.ba.aabU.8.6.8#z#O#zab#0bWahbDaabU#0bD#ObW.8#Oaf.bbW.caiaf#0bYacbW#Oa#ab#0bfbQ",
"ac.4.J.8.4a.aaa2bQ#a.J.6.6bfbUa#.qa##6bQ.4acbYaaaa.4aa#0bq.q.JbD.6a.bfbebea.bUaca#.6.4aabWbqbW.4",
".ca#bUbDa#.cbU.baba.#Abeaa#Obqa..Rbd.0aQ#saM#raNaK#j.E.3aw.e.j.abz#A.6.YbQbWbUbq#0bW#0aabD#a.qbW",
"bYbq.4#Oabbf.c.6.4a#.8bYbfbP#g.AaC#nbk#E#I.I#x#C#C.G#F#daF#w#lap#N#gbl.kafbUbUaba2aa.cbY#0#Aa2.J",
".b.b#0aabWa.a.bebfbD.c.XbP.k#g.A#f.wbk#E#i.maL.fbiaj#Ka4#5#w#l#yaW#GaVbPbP.XbW.8a#.c#O.c#O.JabbU",
"bQbe.cbQ.J#8ahbQ.8.c.X.XbP.k#gasby#yaI#E#w.Uav.2avbnaYbAa3.s#TaW.yas#g.kbP.X.X#Oa#aa.q.c#0a.bQa.",
".J#O.8.6a##Obeaaab.X.X.XbP.k#gas#fapaI#t#Y.U#WavavavbnaF#EaH#n#n#vas#g.kbP.X.X.X#0.4bq.6#A.J.4be",
".YbY.8.4bfbU.ca..X.X.XbPbPbl#gas#fapaI#EaE#oaUaU#FaUaF#I#Sat#H#faCas#g.k.kbP.X.X.X.J.q#Oaia#.4.J",
"aia.bU#O#Aa.#ObP.XbP.XbP.k#g#gas#H#DbwbR#m.T#I.UbMbMa6#i#maI#D#H#Nas.A#g.kbPbP.X.X.X#za..vbf.8#0",
"#Aaca##6ab#AaabPbP.k.k.k.k#g.AaC#HbwbOaP#tbL.oaB#IaB.o#mbt.CaJ#Daz.abz#g#gblbPbPbPbP.cbf.6.q#0aa",
"#0#0#Oa#.cbU.k.k.kblblbl#g#gbzbJaz#DaJ.7#s.u#ua7a7ay#B#s#s#s.7.Can#N.R.A#g#gbl.kbP.k.k#0abbfa.#0",
"bW.6.b.caa#Obl#g#gaV.A.A.AbzbJ.aanbS#Q#XbFayayaybG.HaZ#r#B#X#Q.7#Q#DazbJbzbz#g#g#g#gbl#za.bDbQa#",
"bDa#bWbqaabY.AasaV#gasaC.RbJ.aazan#Q#Xaw#BaM#V#P#9#9#PaM#sboaQ#QbX#QaJaz#N#v#f.y.yas.A#zbQafbWa#",
"#Oa#.JbUbW.RaCasaC#v#v#N#Nazan.0#QaQbo#r#e#9.QaAbIaKaRaMalaw.nbh#XbXaJ#D#H#f#n#naW#nbJ.R#0bf#Oac",
"bYa#bUa#.4bd#DaW#n#n.w#Haz#D#Qaw#saM#P#e.Q.OaTbI#MaN.d.d.d.3bobh.n#Q#QaJ#D.wap#y#T#T#N.a.8bQ.va#",
".4a..bbeaban#3#t#yaI#y#D#D#QbX#B#V#PaK.Q.OaSaSaobcbrbVao.Q.Q.l.9.9.nbXaJ#D.WaI#J#E#l#D.C.6a#a.bv",
"aa#Oaf#AbQ.ebj#w.h#E.i.W#Q.7#sbG#r#p#M.OaSbH#Z#Z.pbKam#2aS#c#1bEbhbhaQ.CaJbOaI#E#waEat#h.Ya#.Jab",
"a.a#a#bQ.cbo#YbnaY#SbRatbBbX#B#V#P#1aoaS#b#b#R.g.g.zbb#kararao.l.KaQaQ#hatat#3#waY#ibX#uaf#Oaa.c",
"ab#O.qbU.4a0aUavaF#E#3aPaPaw#sbmaR#1.S#b#b.zaXaXaX#ka9#kbb#2#c#P.3bo#Q#Q.7aP.Z#o.m#IbF.P#Aa#ab.4",
"#0bfac.6af.x.V#xbn#w#tbt#h#s#B#V.d.r.Sam.z#2bbbb#q#L#La9#qbbaS.1aR.3aw#XaPbt#3#t.Uae.H#7bY#Oaa#0",
"aaaa.c.6bU.DaOa1bT#o.hax.L#saM#raN#Marar#2a8#ka9#Lb##Lad#qa8bsao#p#rbG.u#4.oaEbAaEaq#r.Da#acaaa#",
"aa.8bUac.6#UbabCbN.Ubj#m.u#s.MaRaN#Mam#2#2#q#q#L..b##La9#q#k#2bH#eaNbG.ubp#I#YavbN#dbma5.6.6bD.J",
"#O.4.qaa#Obx#Ca1.VaUbjax.L#saM#VaR#1ambbbb#qad#La9#L#La8bb#2aSaDaK#P#B#BbL.TaEaU.VaB.E.D.8.8bq#O",
"#Oa#bfa#aa.x#x#Fav#o#t.t#h#B#B#V##bg.#ambb#qa9#qad#L#qaXaXbb#bbI.r#Vaw#saP#mbjaE#wbn.GaZbebY.c.6",
".4.6bWbD#Oa0auaB#W.B#3aP#h.ubGbG.l##aNbc.gaXbba8ad#La8#Rbb#karaT#PaMaQ#QbB.t#t#w#tbAbT#V.b#AaabW",
"#zbfbU.c.b.uay#I#i#iaIaPaP#s.HaMaM##.5.S#caX#2#qadad#2.garbbaTaDaNbGbobXaP.taE#waI#JaFaw.8bW#a#0",
"beaabeaba.#X.L#S#l#latbObB#hbG.MalaM.dbK.O#2a8#q#qbb#ZbH#b.O.Q#j#PbGawbXbBbR#l#E#y#T#i#Qbfaf.baf",
"#O#0#Oab.8aJaP#J#yaH#nbwaJbB#sbo.n.K.l#1#cbs#2bsarao.S#caT.Q#1aR#V#B#h.7.Watbk#y#n#y#3.0.6bUbqbU",
"bDaa.c.4.b.a.W#y#nby#N#N#DanaJbS.e.9al#PaK.1#eaoaDbKaD.Q#M#1aRaw#X#X.7aJ#D#n.wbyaW#y#HbdbY.caa.J",
"bD#0ab.4a#.R#faW#vaCasaC#N.Nanan.0.ebo#V.d#p#1#1#1aKaK#1aN#rbGawaQaQbBazbJ.Ras#fby#naC.RaibD.8bU",
".ca.bYbQbWaa#gas#vas.A.A.RbJazan.0.eaQ#BaMaR#p#paRaRaR.H#VbG#BbX.0aJan#Nbz#g#gasasas.A.Y.J.Y.qaf",
"ai.8.8.4#ObWbl.kaV#gas#g.A.R.aazan#QaQ#X#s#B#B#VbG.M.M#Baw#sbX#Qanan#NbJ#g#gbl#gbl#gbl#8ab#O#8bD",
"#Oaaaa#Oa.#0bl.kbP.kbl#g#g.A.R#NanaJbB#h#hbF.ububuayay#4.L.7#Qan#N.abJ.A#g.k.k.kbP.k.k#8.c#0.bbf",
"#8ab.c.6bUa.ab.XbPbPbP.kbl#gbzbJ#N#H.C.t.L#m#u#u#u.o.o.TaxaPbO#H#N.R.A#g.k.kbPbPbPbPbU#6bY.6a#.6",
"#A#O#0.qaaaa#O.X.X.XbPbP.k#g#g.A#N.wat#3.hbL#i#I.U#I#YbL.hbRaH#DaCbz#gbl.kbPbP.X.XbP#6aaaabWbD.q",
"bfab.bbDbD.8.4bD.X.X.XbPbP.kblas#fapaI#laE#i#i#I#i.T.h#t#3aI.i#naC.A#g#g.kbP.X.X.X.ca##.a2aa.c.c",
"bfbWbWbfa#.ca#.JbU.X.X.XbP.k#gasby#y#l#E#w.haE.haE.h#S#E#E#l#T#n#vasaV.kbP.X.X.X#A.c#8bQ.6bD#0bU",
"bfbD#a.4bDbDbQ#0.8ac.X.XbPbPblaCaW.i.s#S.BaYaYaY.m.m.maY#wa3aIap.yasaV.kbP.X.X#Abv#abebY.cbWaf#O",
"a#af#0a2#Aa#ac.b.4#0bYbPbP.k#g#v#n#y#l#w.Bbn.2aGajbiaGbTaY.haIap#fasaV.kbP.X.b#.bv.8bY#Oa#bfbU#0",
"ab.Jbq.ba.ac#ObWaabq#0bUbW.k#g.A#fbwbk.haFavajb..Faka1.VaFaxaH#naC#g#g.k.J#zbq.YbvbWbfa.ab#OaabQ",
"#Oa#aabfa#.6bqa.bfaa.Jbea.aabfac.RbdanaQbFbG.E#p#1#p##albo.e.j.NbJ.Y#A.8ab#zbq.6#8bW#ObDa#bq.6af",
".6#ObWaa.bbD.c#ObDacbU.4a#bfa##O#O.c.Ja2#Abfa#.cac.Ja#.8bQ#AbUa.#Oaa.8bYbf#O.6.bbeafabbD#0bUaabq",
".c.8bW.bbQ.ba#.4.J.c.cbUaa#0bUaaa..bbWa2.8aaaa.4aabUaa.qa#.baaab.qbUbebD#AbD.cbebf.bbU.4a.bfac.c",
"bf#Aa.#8bv#0aabD.4aa.c#0bU#O.b#ObUbYbfa#bW#O.c#O#0a.#0abaaah.8#ObU.Jaa.4bY#A#aabbUbYbqbq#z.c.6.8",
"afa#af.bbYabbD#Obq.c#0bU.c#6bY#Oaf#Aab#0bQ.cbfaaa.bQ.Ya#bfbY.cai#8bf#Oa.a2a.bDbD.4.qaa.4.Y#8bDa.",
"aa.ca..cbY.c.6#0bfbD.4#a.4.6aba.bv.b.c.Jbf.6#0.cbq.ba.a.bW.6bW#.abaabQ#ObY.4#ObWbfbq#O.ca.bD.8.6"
};
