/* XPM */
static char *laser2[] = {
/* width height num_colors chars_per_pixel */
"    48    48      134            2",
/* colors */
".. c #040204",
".# c #048204",
".a c #848284",
".b c #1cc21c",
".c c #044204",
".d c #04a204",
".e c #444244",
".f c #b4b6b4",
".g c #2ce22c",
".h c #049204",
".i c #046204",
".j c #14b214",
".k c #646264",
".l c #4cee4c",
".m c #9c9e9c",
".n c #d4d2d4",
".o c #042204",
".p c #047204",
".q c #2cd22c",
".r c #14a614",
".s c #3cee3c",
".t c #149214",
".u c #048a04",
".v c #3c3a3c",
".w c #545254",
".x c #1cba1c",
".y c #747274",
".z c #949294",
".A c #045604",
".B c #c4c6c4",
".C c #3ce23c",
".D c #043204",
".E c #14aa14",
".F c #acaaac",
".G c #dcdedc",
".H c #047e04",
".I c #2cda2c",
".J c #049a04",
".K c #046a04",
".L c #24b224",
".M c #4cfe4c",
".N c #149e14",
".O c #148a14",
".P c #3cea3c",
".Q c #148214",
".R c #8c8a8c",
".S c #24ce24",
".T c #044a04",
".U c #4c4a4c",
".V c #bcbebc",
".W c #6c6a6c",
".X c #042a04",
".Y c #0c8a0c",
".Z c #5c5a5c",
".0 c #7c7a7c",
".1 c #44e244",
".2 c #1caa1c",
".3 c #3cda3c",
".4 c #041a04",
".5 c #0c860c",
".6 c #0caa0c",
".7 c #1cb21c",
".8 c #a4a6a4",
".9 c #dcdadc",
"#. c #0c760c",
"## c #1ca21c",
"#a c #44f644",
"#b c #1c961c",
"#c c #24ba24",
"#d c #9c9a9c",
"#e c #045e04",
"#f c #cccecc",
"#g c #043a04",
"#h c #b4b2b4",
"#i c #e4e6e4",
"#j c #0c7a0c",
"#k c #0c9a0c",
"#l c #0c6a0c",
"#m c #5cfe5c",
"#n c #048604",
"#o c #848684",
"#p c #24c224",
"#q c #044604",
"#r c #0ca20c",
"#s c #444644",
"#t c #bcbabc",
"#u c #34e634",
"#v c #0c960c",
"#w c #046604",
"#x c #646664",
"#y c #4cf24c",
"#z c #a4a2a4",
"#A c #d4d6d4",
"#B c #042604",
"#C c #047604",
"#D c #2cd62c",
"#E c #44f244",
"#F c #149614",
"#G c #048e04",
"#H c #3c3e3c",
"#I c #545654",
"#J c #747674",
"#K c #949694",
"#L c #045a04",
"#M c #cccacc",
"#N c #3ce63c",
"#O c #043604",
"#P c #14ae14",
"#Q c #acaeac",
"#R c #e4e2e4",
"#S c #34da34",
"#T c #24b624",
"#U c #1c9e1c",
"#V c #8c8e8c",
"#W c #2cca2c",
"#X c #044e04",
"#Y c #4c4e4c",
"#Z c #c4c2c4",
"#0 c #6c6e6c",
"#1 c #042e04",
"#2 c #0c8e0c",
"#3 c #5c5e5c",
"#4 c #7c7e7c",
"#5 c #44e644",
"#6 c #1cae1c",
"#7 c #3cde3c",
"#8 c #041e04",
"#9 c #1cb61c",
"a. c #1ca61c",
"a# c #64fe64",
"aa c #24be24",
"ab c #0c7e0c",
"ac c #0c9e0c",
"ad c #0c6e0c",
/* pixels */
".f.V#h#z.z#V.R.R#V.m.9#A.n#A#M.G.n#V.a#V#d#h#h#K#0.y.y#4.R.R#o#4.W#0.y.w#Y#I#x.W#3#I.U#H.v#Y#I#J",
".R#h#z.z#o.R#4.y.W#o.V#t#z.8#h#t.8#0.W#V#K.8.m.a.D.k.0#4.m#z#K.R#4.0#V#4#0.a.a.0#x.v.v.v.v.w.k.W",
"#J#V#o.a.0#o#V#o#J.0.z#d#K.m.8#d#J#x.W.R#d.m#o#q#e#q#J.0.F.f.m.m.z#o.8#V#d.F.z.R#J#Y#H.e#H.y.y#0",
"#x.U.w#Y.W#4.R.m.z#4.0#V#K.8.8.a.y.y#J#d#K#d#q.i.#.i#q.R.m.F.m.z#z#z.m.F.z.8.8.8#o.a.W#x#4#J.0#o",
".w.v.v.v.Z#4#K#Z#h.R#V#K.F#t#t#V.0#J.a#z.m#q#e.H#r.H#e#q#V#V.R#o#K.8#h#K.z#z#f.B#z#4#4.a.a#4#J#J",
"#Y.v.v#Y#0#z#h#A#A.8#d#z#h.n#M#K#o#4.z.m.T.i#C.h.b.h#C.i#q#4#o.R#K.F#t#Q.a#t#i#A#Q.z.R#o.R#4#x.Z",
"#Y.v.v#x#K.8.F#Z#i#R.f.f#Z#f#f#h#4#4.a#q#e#C#n.d.g.d#n#C#e#q#V.z#K#z.F.m.z#f#i#R.F#K.z#V.R#J.w.e",
"#I.v.e.z.m#K.m#Z#A.4.4#8.o.o.X#1#O.c#q#L.p.#.h.6.s.6.h.#.p#L#q.c#g#1.X#B.o#8.4.4#d.z.z#V#4#I.v#Y",
".k#I#s#d.8#K#K#h.4.4.o#B#1#O.c.T.A.i.A.K.H.u.J.6#a.6.J.u.H.K.A.i.A.T.c#O#1#B#8#8.4#V#o.0.U.v.v.Z",
"#K#x#Y.W#z#z.z#Z.4.o.X.D#g.c.T#L#w#C.##C.#.hac.j#y.jac.h#n#C.#.p#w#L.T.c#O.D.X.o.4.8.R#Y.v.v.Z#V",
"#z.y#x#0#V#d#d.B#8#B#1#g.c.T#L.i.p.H#G.H.u.h#r.7#5.7#r.h.u.H#G.H.p.i.A#X.c#g#1#B#8.B.B#4.v#H#4.8",
"#V#x#0.a.z#d#K#4#8#1#g.c#X.A#e.p#j.Y#v.r.h#k.r.7#5.7.r#k#G.r#v.Y#j.p.i.A.T.c#g#1.o#i#i.8.w#Y.R#d",
"#0.Z.y#V#d#o#o#4#B#O.c.T.A#e.K#..Q.t.N.2.hac.E.7.1.7.Eac#v.2.N.t.Q#.#l#e.A#X.c#O.o#R#R#h#0#Y#x.R",
".m#3.k.a#o#o.R.0.X.c#X.A.i.K#.ab.O#ba..7#k.r#6#9#7#9#P#r#k.La.#F.Oab.p.K.i.A.T.c.X.G#A#Q.R.k#I.y",
"#t.0#0.y#o.R#V#4.D.T.A#w.K#.#j.5.t#b.2#Taa.E.j#c.3aa.7.Eaa.L.2#U.t.5#j#.ad.i#L.T#1#Z#f#t.8#0.Z#0",
".G.R#4.a#o#d#K#V#O.A#w.p#j.Q.O.t#F##.L#T#p#P.x#p#S#p.x#P#p#c.2###F.t.O.Q#j.p#w.A#g#Z.B#M#h#o.R#4",
"#i.V.z#4#J#V#d#z.c.i.p.H.Y.t#b#U.ra.#6#c#p#W#p.S.C#W.b#W#p#c.L.2###b#b.t.Y.H#C.i.c.V#M#f.V#Q.8#K",
"#R#t#V.R.R.R#K#Q.c#L.##G#F.Na.a..2.7aaaa#W.q.S#S.P#D#W.q#W#paa#6#6.2a..r#v#G.#.A#q.B.n#M.n#t#z.m",
"#R.V#d#V#d#d.m.T#e.K#C.H.r#6.7.L#T#c#p.q.q#S#D.C#a.C.I#S.q.qaa#c#T#T.L.2.r.H#C.K#e.T.V.V#h.F.m.8",
".n#f#h#K.8.f.T#e.p.H.#.u#G#v#kaa#p#p#W.q#N#N.s#E.M#E.s.P#5.q#W#p#paa#k.h#G.u.#.H.p#e.T.V.f.F#Z.F",
".f.B.V#z#Q#q.i.p.#.u.h.h#kac.r.E#6#W.q#S.P.M.M.M#m.M.M.M#N#S.q#W.7.E.rac#k.h.h.u.#.p.i#q#Z.V.F#V",
"#Q#Z.B.V#q#e#C#n.h.Jac#r.r.r#P.7.x#p.S#S.s.M.M#m#m#m.M.M.s.I.S#p#9.7#P.r.r#rac.J.h#n#C.i#q.m#4.y",
"#Q#h#h.c.i.H.h.d.6.6.j.7.7#9#9#c#p.S.q.C#E.M#ma#a#a##m.M#E#u#S.S#p.x#T#9.7.7#P.6.6.d.h.H.i#q#0#0",
".F#d.D#e.##r.b.g.s#E#y#5#5.1#7#S.3.C#5#a.M#ma#a#..a#a##m.M#y#N#7.3.3#7#7#5.l#E#a.s.g.b#r.##e#1#0",
".R#3.v.c#w.H.h.d.6.j#P.7.7.7#9aa#p.S#D#N#E.M.Ma#a#a##m.M#a#u#D.q.b#c#9#9.7#6.j#P.6.d.h.H.i#q#0#J",
"#J.v.v.v#q#e#C#n.h.Jac#r.r.E#P.7.x#p.S.I.s.M#m#ma##m.M.M.P#S.Saa.x.7#P.r.r#rac.J.h#n#C#e#q#Q#d#K",
"#x.v.v.v#x.T.i#C.#.u.h.h#kac.r.r.j#W.q#S#N.M.M.M#m.M.M.M.P.I.q#W#P.E.rac#k.h.h.u.##C.i#q#Q#f.V#t",
"#0#H.v.v#3#J#q#e.p.H#n.u#G#v#kaa#p#p#W.q#N.P.s#a.M#a.s#N#N.q#W#p#paa#k#v#G.u.#.H.p#e.T#Q.f.9.B.B",
"#0#3#s#H#s#x.W#q#L.K#C.H.r.E.L.L#T#c#p.q.q#S.I#u#y#u.I#S.q.qaa#c#T#T.L.E.r.H#C.K#L#q.m.f.B.9.9#f",
"#o.k#3#H#s#I#x#4#q.A.##G#v.Na..2#6.L#caa#W.q.S#S.P#D#W.q#W#p#c.L.La.a.#U#v#G.##L#q#0.a.m.f.G.9.n",
".a.W#x.e.v#Y#0#J.c.i.p.H.Y.t#b#U##.2.7#c#p#Waa.S#7#W.b#W#p#c.La..r#b.N.t.5.H#C.i.c#J#4#V.F.B.9.n",
".y#x#J#x.Z#0#J.0#O.A#w.p#j.Q.O.t#F##.2#T#p.j#9#p.3#p.x.7#p#T#6##.t.t.O.5#j.p#w.A#O.W.k.W#V#t#f#M",
".y#0#4.0.a.0.a.a.D.T#L.i.p#.ab.5.t#b.2#Taa.2.j#c#Saa.j.raa#T.2#U.t.5#j#.ad.i#L.T#1#3.Z.a#K#h#f#M",
"#I.y.R.m.f.m#V.a.X.c#X.A#e#ladab.O#ba..L#k#r#6.x.3#9#P.r#k.L###b.O#j#.#l.i.A#X.c.X#I#3.a#4#d#t#t",
".W#3.0#d.n#A.f.m.o#O.c#X.A#e.K#..Q.t.N#6#vac.r#9.1.7.rac#v.2.r.t.5#.#l#e.A.T.c#O#B#Y.Z.Z#4.0#V#K",
".m#V.F.B.9#i#R.n.o#1#O.c#X.A#e.p#j.Y#v.r#G#k.r.7#5.7.r#k#G.r#v.5#jad#e.A#X.c#O#1.o.U#s.w#3#0.W.a",
"#M.F.m.F.R.m#A#A#8#B.D#g.c#X.A.i.p.H#2.H.u.h#r#6.l.jac#v.u.H.uab.p.i.A#X.c#g.D#B#8.v.v#s#x#x.W#V",
"#f#z#4#o#0#o.F.8.4.o.X.D#O.c#X#L#w.p.##C#n.hac#P#y#Pac.h.##C.##C#w#L#X.c#O.D.X.o.4.v.v.v.w#x.R#V",
".f.0#J.0.0.R.R#J.4.4.o#B#1#O.c.T.A.i.A.K.H.u.J#P#E.6.J.u.H.K.A.i.A.T.c#O#1#B.o.4.4#H.v.v#I#0.8.z",
".a#I.y#0.0#4#4.W#3.4.4#8.o.o.X#1#O.c#q#L.p.#.h.6.s.6.h.#.p#L#q.c#g#1.X.o#8#8.4.4#I.v.v#s.W.a#V.z",
".w.v#H#3.W#0.y.k#3.Z#J.a#K#o.m#Q.m.m#z#q#e#C#n.d.g.d.u.p#e#q.m.a#3.k#3#Y#I#0#J#4.a#3#s#3.k.k#K.z",
"#H.v.v.U#0.k#x#3.Z#3#0#0#o#V#t.G.G.n.f.V.T.i#C.h.b.h#C.i.T#4#V.k.w#Y#s#Y.W#J#o#4#4.0#3#I.w#Y.a.m",
"#0#s.e#I#0.k#3.k.Z#3#x.k.W#o.V.G#i#i.B.f.V#q.i.H#r.H.i#q#J#3#I.v#H#s.U.Z.y#4#V.a.W.y.y.k#3#I.0.z",
".z#3#s#I.k#x#x#x.w#Y.y.y#V#t#Z.9#i#i#M#Q.F#Q#q.i.#.i#q#3.w.v.v.v#3.W#x#J.R#K.z#0#I.k#0#J#x#3#x.0",
"#Q.a.Z.W#J.0.W#s.e#s.k#J#V#z#Z#A#R.9#M.F#K#d#3#q#e#q#Y.w#I#s.v#I.y#o.8#M#f.B.F.k#x.k#4.a#4#J.W.y",
".V.F#0#J.a#o#I.v.v.U#I.W#K#K#t#A#R#i.G#Q.m.0#I.e.D#3.y.a#o.y#I#x#V#d.f.B#f#M.m.W.R#o#K.F#Q#d#4#x",
".B#h#V#V.z#z#x.v.v.v#Y#J.z#K.8#Q.n#R#R#t#Q.8#o#0#0.y#o#K#K.z#o#z.f#h#Q.F.f#z#V#z.V#z#z#f#R.n.f.R",
"#t#z.z.z#K#z.m#3#H#Y.k#0.y#K#z.m.f.9#i.G.G#M.m.z.z#V#d#K#d.m#z.f#Z#M.8#z#d.a.8.V#A#f#Z#i#R.G#M#K"
};
