/* XPM */
static char *laser[] = {
/* width height num_colors chars_per_pixel */
"    48    48      237            2",
/* colors */
".. c #000000",
".# c #002200",
".a c #002800",
".b c #002b00",
".c c #003400",
".d c #003500",
".e c #003600",
".f c #004000",
".g c #004100",
".h c #004200",
".i c #004300",
".j c #004400",
".k c #004500",
".l c #004600",
".m c #004700",
".n c #005000",
".o c #005200",
".p c #005300",
".q c #005400",
".r c #005700",
".s c #005900",
".t c #005a00",
".u c #005b00",
".v c #005c00",
".w c #005f00",
".x c #006200",
".y c #006300",
".z c #006500",
".A c #006600",
".B c #006800",
".C c #006900",
".D c #006c00",
".E c #006f00",
".F c #007000",
".G c #007200",
".H c #007500",
".I c #007700",
".J c #007900",
".K c #007a00",
".L c #007b00",
".M c #007f00",
".N c #008000",
".O c #008100",
".P c #008200",
".Q c #008500",
".R c #018601",
".S c #018701",
".T c #018901",
".U c #018a01",
".V c #028f02",
".W c #029002",
".X c #029102",
".Y c #039003",
".Z c #039103",
".0 c #039203",
".1 c #049404",
".2 c #059705",
".3 c #059805",
".4 c #059905",
".5 c #059b05",
".6 c #079d07",
".7 c #079e07",
".8 c #08a008",
".9 c #08a208",
"#. c #09a009",
"## c #09a109",
"#a c #0ba80b",
"#b c #0dab0d",
"#c c #0eab0e",
"#d c #0fab0f",
"#e c #0fac0f",
"#f c #0fad0f",
"#g c #13b513",
"#h c #14b614",
"#i c #15b615",
"#j c #19bc19",
"#k c #1abd1a",
"#l c #1cc11c",
"#m c #1ec21e",
"#n c #1ec31e",
"#o c #20c720",
"#p c #25cd25",
"#q c #28cf28",
"#r c #28d028",
"#s c #292929",
"#t c #29d129",
"#u c #2a2a2a",
"#v c #2b2b2b",
"#w c #2c2c2c",
"#x c #2d2d2d",
"#y c #2e2e2e",
"#z c #2f2f2f",
"#A c #2fd92f",
"#B c #2fda2f",
"#C c #303030",
"#D c #313131",
"#E c #323232",
"#F c #333333",
"#G c #343434",
"#H c #34df34",
"#I c #353535",
"#J c #363636",
"#K c #373737",
"#L c #383838",
"#M c #38e438",
"#N c #393939",
"#O c #39e439",
"#P c #3a3a3a",
"#Q c #3ae73a",
"#R c #3b3b3b",
"#S c #3c3c3c",
"#T c #3d3d3d",
"#U c #3e3e3e",
"#V c #3eec3e",
"#W c #3f3f3f",
"#X c #404040",
"#Y c #40ed40",
"#Z c #414141",
"#0 c #424242",
"#1 c #434343",
"#2 c #444444",
"#3 c #454545",
"#4 c #45f445",
"#5 c #464646",
"#6 c #474747",
"#7 c #484848",
"#8 c #494949",
"#9 c #49f849",
"a. c #4a4a4a",
"a# c #4b4b4b",
"aa c #4c4c4c",
"ab c #4cfb4c",
"ac c #4d4d4d",
"ad c #4dfd4d",
"ae c #4e4e4e",
"af c #4f4f4f",
"ag c #505050",
"ah c #50ff50",
"ai c #515151",
"aj c #525252",
"ak c #535353",
"al c #545454",
"am c #555555",
"an c #565656",
"ao c #575757",
"ap c #585858",
"aq c #58ff58",
"ar c #595959",
"as c #59ff59",
"at c #5a5a5a",
"au c #5aff5a",
"av c #5b5b5b",
"aw c #5c5c5c",
"ax c #5d5d5d",
"ay c #5e5e5e",
"az c #5f5f5f",
"aA c #606060",
"aB c #60ff60",
"aC c #616161",
"aD c #626262",
"aE c #636363",
"aF c #63ff63",
"aG c #646464",
"aH c #64ff64",
"aI c #656565",
"aJ c #666666",
"aK c #676767",
"aL c #686868",
"aM c #696969",
"aN c #6a6a6a",
"aO c #6b6b6b",
"aP c #6c6c6c",
"aQ c #6d6d6d",
"aR c #6e6e6e",
"aS c #6f6f6f",
"aT c #707070",
"aU c #717171",
"aV c #727272",
"aW c #737373",
"aX c #747474",
"aY c #757575",
"aZ c #767676",
"a0 c #777777",
"a1 c #787878",
"a2 c #797979",
"a3 c #7a7a7a",
"a4 c #7b7b7b",
"a5 c #7c7c7c",
"a6 c #7d7d7d",
"a7 c #7e7e7e",
"a8 c #7f7f7f",
"a9 c #808080",
"b. c #818181",
"b# c #828282",
"ba c #838383",
"bb c #848484",
"bc c #858585",
"bd c #868686",
"be c #878787",
"bf c #888888",
"bg c #898989",
"bh c #8a8a8a",
"bi c #8b8b8b",
"bj c #8c8c8c",
"bk c #8d8d8d",
"bl c #8e8e8e",
"bm c #8f8f8f",
"bn c #909090",
"bo c #919191",
"bp c #929292",
"bq c #939393",
"br c #949494",
"bs c #959595",
"bt c #969696",
"bu c #979797",
"bv c #989898",
"bw c #999999",
"bx c #9a9a9a",
"by c #9b9b9b",
"bz c #9c9c9c",
"bA c #9d9d9d",
"bB c #9e9e9e",
"bC c #9f9f9f",
"bD c #a0a0a0",
"bE c #a1a1a1",
"bF c #a2a2a2",
"bG c #a3a3a3",
"bH c #a4a4a4",
"bI c #a5a5a5",
"bJ c #a6a6a6",
"bK c #a7a7a7",
"bL c #a8a8a8",
"bM c #a9a9a9",
"bN c #aaaaaa",
"bO c #ababab",
"bP c #acacac",
"bQ c #adadad",
/* pixels */
"b#bhb.aZaOaJaIaIaLaYbEbBbxbBbtbKbxaMaCaOaXbdbdaSaialanayaKaJaGayaeakal#T#L#Wa#ac#6#S#J#y#s#L#Wam",
"aEa9aYaNaGaEazalaaaDblbia1a4bbbia5alaiaMaUa3a0aE.ba#awazaYa3aUaKayataLayakaAaCapac#v#u#u#s#T#6aa",
"anaJaEaxataDaKaGanaraOaWaSaYa4aWaoa#agaLaWa1aG.e.l.eaoaxa8bgaYaYaQaGa5aMaTa9aQaLan#N#C#D#xakalaj",
"#8#I#P#RaaaxaJaYaPayavaMaUa5a7aEaoamaoaYaTaW.d.m.r.m.daKa2a9aZaSa1a3aZa8aSa4a3a3aIazaeaaatatapaA",
"#R#s#u#u#1axaRbmbbaMaNaUa8bibiaMawaraEa3a3.c.j.q.z.q.j.caNaNaLaGaVa6bbaVaQa4bzbqa2azayazazaxakao",
"#N#s#v#Naga2bbbCbCa4aVa2bcbBbwaUaEaCaQa2.c.i.n.w.F.w.n.i.cazaIaMaVa9bjb#aCbjbObCb.aOaIaEaJavac#X",
"#L#u#uaaaRa5a7bpbObNbibfbpbxbybcaAazaC.d.j.n.v.C.J.C.v.n.j.daQaQaVa1b#a1aSbxbPbLa9aTaQaNaIan#T#C",
"#X#u#FaPaYaUaXbqbD.#.a.a.a.a.a.a.a.a.d.j.n.u.A.G.P.G.A.u.n.j.d.a.a.a.a.a.a.a.a.#aYaQaQaLax#X#u#N",
"#7#X#GaWa5aSaSbb.#.h.k.h.g.f.g.g.g.g.j.n.u.A.E.K.U.K.E.A.u.n.j.g.g.g.g.f.g.h.k.h.#aMaJav#I#u#u#2",
"aPaa#Naea0a1aQbq.a.k.t.s.q.p.o.p.p.p.p.v.A.E.I.O.X.O.I.E.A.v.p.p.p.p.o.p.q.s.t.k.aa8aJ#P#u#u#2aK",
"a1alaaakaOaVaYbq.a.h.s.D.B.y.x.x.x.x.x.A.E.I.M.T.4.T.M.I.E.A.x.x.x.x.x.y.B.D.s.h.abubray#x#zawa4",
"aKaaagazaRaWaVaE.a.g.q.B.K.H.F.E.E.E.E.E.I.M.S.Y.9.Y.S.M.I.E.E.E.E.E.F.H.K.B.q.g.abPbPa8#S#TaKaU",
"aj#1akaPaXaKaGaw.a.f.p.y.H.Q.N.L.L.L.L.L.N.S.V.3#b.3.V.S.N.L.L.L.L.L.N.Q.H.y.p.f.abObLbcal#Pa#aJ",
"aX#3a#azaIaGaKay.a.g.o.x.F.N.W.U.R.R.R.R.S.V.2###g##.2.V.S.R.R.R.R.U.W.N.F.x.o.g.abLbGb#aJ#5#0an",
"bhawajamaIaKaOaC.a.g.p.x.E.L.U.5.1.Z.Z.Z.0.3#.#c#l#c#..3.0.Z.Z.Z.1.5.U.L.E.x.p.g.abpbAbja5aj#1aj",
"bGaKayaDaGaVaUaP.a.g.p.x.E.L.R.1#a.8.6.6.7###c#i#p#i#c##.7.6.6.8#a.1.R.L.E.x.p.g.abpbubtbfaGaGay",
"bNbmaPaAaraNaXa3.a.g.p.x.E.L.R.Z.8#h#f#d#e#e#i#m#B#m#i#e#e#d#f#h.8.Z.R.L.E.x.p.g.abpbubzbmbaa4aS",
"bNbfaPaKaJaKaUbe.d.j.p.x.E.L.R.Z.6#f#o#k#j#k#n#r#Q#r#n#k#j#k#o#f.6.Z.R.L.E.x.p.j.dbwbDbvbzbja1aY",
"bLblaVaOaWa0a3.d.j.n.v.A.E.L.R.Z.6#d#k#A#q#r#t#H#4#H#t#r#q#A#k#d.6.Z.R.L.E.A.v.n.j.dbpbnbda9a1a4",
"bzbxbdaTa7bf.c.j.n.u.A.E.I.N.S.0.7#e#j#q#V#M#O#Yah#Y#O#M#V#q#j#e.7.0.S.N.I.E.A.u.n.j.cbnbhb.bpa6",
"bebrbma1ba.c.i.n.u.A.E.I.M.S.V.3###e#k#r#Mad#9abasab#9ad#M#r#k#e##.3.V.S.M.I.E.A.u.n.i.cbobna9aP",
"babmbrbn.d.j.n.v.A.E.I.M.S.V.2#.#c#i#n#t#O#9auaqaBaqau#9#O#t#n#i#c#..2.V.S.M.I.E.A.v.n.j.da0azak",
"a9bebb.e.m.q.w.C.G.K.O.T.Y.3###c#i#m#r#H#YabaqaFaHaFaqab#Y#H#r#m#i#c##.3.Y.T.O.K.G.C.w.q.m.eajak",
"a9aW.b.l.r.z.F.J.P.U.X.4.9#b#g#l#p#B#Q#4ahasaBaH..aHaBasah#4#Q#B#p#l#g#b.9.4.X.U.P.J.F.z.r.l.bai",
"aK#3#v.e.m.q.w.C.G.K.O.T.Y.3###c#i#m#r#H#YabaqaFaHaFaqab#Y#H#r#m#i#c##.3.Y.T.O.K.G.C.w.q.m.eakar",
"ao#u#v#v.d.j.n.v.A.E.I.M.S.V.2#.#c#i#n#t#O#9auaqaBaqau#9#O#t#n#i#c#..2.V.S.M.I.E.A.v.n.j.dbaaYaS",
"aa#u#v#vaj.c.i.n.u.A.E.I.M.S.V.3###e#k#r#Mad#9abasab#9ad#M#r#k#e##.3.V.S.M.I.E.A.u.n.i.cbdbxbkbj",
"al#E#x#v#2ax.c.j.n.u.A.E.I.N.S.0.7#e#j#q#V#M#O#Yah#Y#O#M#V#q#j#e.7.0.S.N.I.E.A.u.n.j.cbabhbFbrbr",
"ai#3#I#D#Iaaag.d.j.n.v.A.E.L.R.Z.6#d#k#A#q#r#t#H#4#H#t#r#q#A#k#d.6.Z.R.L.E.A.v.n.j.da1bibsbHbFbv",
"aEa.#1#y#F#Uacaz.d.j.p.x.E.L.R.Z.6#f#o#k#j#k#n#r#Q#r#n#k#j#k#o#f.6.Z.R.L.E.x.p.j.dajaDaYbgbJbHby",
"aAaga##D#x#Sajat.a.g.p.x.E.L.R.Z.8#h#f#d#e#e#i#m#B#m#i#e#e#d#f#h.8.Z.R.L.E.x.p.g.aavazaNb.bqbIbz",
"akaaapaa#1ajapax.a.g.p.x.E.L.R.1#a.8.6.6.7###c#i#p#i#c##.7.6.6.8#a.1.R.L.E.x.p.g.aaga.afaPbfbAbt",
"alajaxayaAavaDaE.a.g.p.x.E.L.U.5.1.Z.Z.Z.0.3#.#c#l#c#..3.0.Z.Z.Z.1.5.U.L.E.x.p.g.a#8#2aEaUbcbvbu",
"#0akaKaXbga1aNaE.a.g.o.x.F.N.W.U.R.R.R.R.S.V.2###g##.2.V.S.R.R.R.R.U.W.N.F.x.o.g.a#X#7aAazaXbhbi",
"aa#6araWbAbFbfa0.a.f.p.y.H.Q.N.L.L.L.L.L.N.S.V.3#b.3.V.S.N.L.L.L.L.L.N.Q.H.y.p.f.a#R#Z#2aCataOaT",
"aXaOa7bqbGbPbMbB.a.g.q.B.K.H.F.E.E.E.E.E.I.M.S.Y.9.Y.S.M.I.E.E.E.E.E.F.H.K.B.q.g.a#L#K#T#1akaeaA",
"bsa6a0a8aKa2bDbE.a.h.s.D.B.y.x.x.x.x.x.A.E.I.M.T.4.T.M.I.E.A.x.x.x.x.x.y.B.D.s.h.a#v#v#Iaca#aaaP",
"bta1awaEajaDa7a6.a.k.t.s.q.p.o.p.p.p.p.v.A.E.I.O.X.O.I.E.A.v.p.p.p.p.o.p.q.s.t.k.a#v#u#v#Sa#aKaM",
"bdavaoatawaJaMar.#.h.k.h.g.f.g.g.g.g.j.n.u.A.E.K.U.K.E.A.u.n.j.g.g.g.g.f.g.h.k.h.##E#u#w#0aia1aO",
"ax#Ualakarazavaf#7.#.a.a.a.a.a.a.a.a.d.j.n.u.A.G.P.G.A.u.n.j.d.a.a.a.a.a.a.a.a.##0#u#u#JafayaNaO",
"#T#u#y#2afajaj#8#5#2avaCaWaGa0bda2aZa5.d.j.n.v.C.J.C.v.n.j.da3aE#8a.#7#S#0agatazaC#8#C#3#6#8aPaN",
"#C#s#u#Lag#8a.#8#1#6ajaiaIaObibHbMbCbfbm.c.i.n.w.F.w.n.i.caCaNa.#W#L#F#PaaapaDazaxar#3#W#T#LazaW",
"ae#E#C#Taia.#6#3#2#2ac#8agaIbmbJbPbQbubfbn.c.j.q.z.q.j.cav#2#X#v#x#I#L#1anayaMayaeanala.#5#UataO",
"aN#1#F#W#7a#a.ac#T#NanalaMbhbpbHbPbPbwb.b.bc.d.m.r.m.d#8#W#v#v#v#6afa#araKaUaOaj#Z#8aiana.#5a#ar",
"a7ax#0aaanaraa#G#C#F#8aoaOa1bobCbPbDbwa7aWaV#7.e.l.e#S#S#2#F#v#5amaEa5bsbxbqa6#8a.#7awaxaxala#ak",
"bia3aianazaD#X#u#u#K#XaaaQaVbhbCbMbObJa9a1av#X#F.b#3amaDaDam#ZacaLaYbfbrbwbvaXagaLaDaRa8a8aQawa#",
"bla8aLaJaMaZa.#x#u#v#RaoaOaSa4b#bxbObLbjb#a5aDajalamaIaSaVaOaIaZbebbb.a8bca2aLaYbia1aXbvbFbxbcaE",
"bbaYaLaMaRaZaY#2#x#P#7aianaUaZaZbfbDbNbKbHbsa0aOaPaPaVaVaVaYa2bebnbra4a0aVaxa2bjbBbsblbKbJbFbnaP"
};
