/* XPM */
static char *green[] = {
/* width height num_colors chars_per_pixel */
"    48    48      163            2",
/* colors */
".. c #040204",
".# c #047e04",
".a c #14be14",
".b c #044204",
".c c #7c7e7c",
".d c #049e04",
".e c #2cde2c",
".f c #1cce1c",
".g c #0cae0c",
".h c #444244",
".i c #042204",
".j c #048e04",
".k c #3cee3c",
".l c #2cbe2c",
".m c #046204",
".n c #149e14",
".o c #34ce34",
".p c #1cae1c",
".q c #242224",
".r c #646264",
".s c #3cde3c",
".t c #049604",
".u c #041a04",
".v c #14c614",
".w c #24d624",
".x c #048604",
".y c #045204",
".z c #04a604",
".A c #0cb60c",
".B c #545254",
".C c #043204",
".D c #047204",
".E c #14a614",
".F c #1cb61c",
".G c #343234",
".H c #34d634",
".I c #747274",
".J c #3ce63c",
".K c #24be24",
".L c #34e634",
".M c #148e14",
".N c #4cee4c",
".O c #2cc62c",
".P c #149614",
".Q c #141214",
".R c #8c8a8c",
".S c #2cce2c",
".T c #0c0a0c",
".U c #0c7e0c",
".V c #1cbe1c",
".W c #044a04",
".X c #0c9e0c",
".Y c #34de34",
".Z c #14ae14",
".0 c #4c4a4c",
".1 c #042a04",
".2 c #0c8e0c",
".3 c #046a04",
".4 c #1c9e1c",
".5 c #24ae24",
".6 c #2c2a2c",
".7 c #6c6a6c",
".8 c #0c960c",
".9 c #24c624",
"#. c #2cd62c",
"## c #0c860c",
"#a c #045a04",
"#b c #0ca60c",
"#c c #14b614",
"#d c #5c5a5c",
"#e c #043a04",
"#f c #047a04",
"#g c #1ca61c",
"#h c #24b624",
"#i c #3c3a3c",
"#j c #3cd63c",
"#k c #44e644",
"#l c #34c634",
"#m c #1c1a1c",
"#n c #848684",
"#o c #24ce24",
"#p c #44ee44",
"#q c #3cd23c",
"#r c #44e244",
"#s c #1cc61c",
"#t c #7c7a7c",
"#u c #4cf64c",
"#v c #040604",
"#w c #048204",
"#x c #14c214",
"#y c #044604",
"#z c #848284",
"#A c #04a204",
"#B c #2ce22c",
"#C c #0cb20c",
"#D c #444644",
"#E c #042604",
"#F c #049204",
"#G c #2cc22c",
"#H c #046604",
"#I c #14a214",
"#J c #34d234",
"#K c #1cb21c",
"#L c #242624",
"#M c #646664",
"#N c #3ce23c",
"#O c #049a04",
"#P c #041e04",
"#Q c #24da24",
"#R c #048a04",
"#S c #045604",
"#T c #04aa04",
"#U c #0cba0c",
"#V c #545654",
"#W c #043604",
"#X c #047604",
"#Y c #14aa14",
"#Z c #1cba1c",
"#0 c #343634",
"#1 c #34da34",
"#2 c #747674",
"#3 c #3cea3c",
"#4 c #24c224",
"#5 c #34ea34",
"#6 c #149214",
"#7 c #2cca2c",
"#8 c #149a14",
"#9 c #141614",
"a. c #0c7a0c",
"a# c #8c8e8c",
"aa c #2cd22c",
"ab c #0c0e0c",
"ac c #0c820c",
"ad c #1cc21c",
"ae c #044e04",
"af c #0ca20c",
"ag c #34e234",
"ah c #4c4e4c",
"ai c #042e04",
"aj c #0c920c",
"ak c #046e04",
"al c #1ca21c",
"am c #24b224",
"an c #2c2e2c",
"ao c #6c6e6c",
"ap c #0c9a0c",
"aq c #2cda2c",
"ar c #0c8a0c",
"as c #045e04",
"at c #0caa0c",
"au c #14ba14",
"av c #5c5e5c",
"aw c #043e04",
"ax c #1caa1c",
"ay c #24ba24",
"az c #3c3e3c",
"aA c #3cda3c",
"aB c #44ea44",
"aC c #34ca34",
"aD c #1c1e1c",
"aE c #24d224",
"aF c #44f244",
"aG c #1cca1c",
/* pixels */
"#i#M.G#L#Laoa#.0.Ban#maz.G.raoaoaz.q#D#D#0.B#M.q.q#0.Gan.0aD.6.7ah.r#Dah#D.q#9.h#Lah#D.B#ianaz.G",
".Bab#0#m#m#L.0.6abanah.6azah.B.qan.0.caz.6#i.c#V.h.7#D#Van#Laz#0.0#0.G.B#V.7#0.G#maD.6.G.0#D.h.q",
"#V#i.0.B.hazanah#L.r.0anaz.B#L.B.Q#i.Q#d.q#L.Rahanaz.q.0#i.6#V#iao.r#L.G#2.7.q#V.Q.6#0#DavaD.G#M",
"#9#i#Dah#i.0an.I#M#z#D.q.q.Gaz#D#9az.T#Maz#9#V.6.Gaz.6aDaD#m#D.0.qah#0#M.r.Baz#9.h#L#i.6#LaD.6az",
"an.haz.0az.G#i#d#V.Bao.r.6#0#m.B.i.C#eaw.b#y#y.W.W.W.W#y.baw#Waw#Wao#L#M.7#L.haD.q#L.qanah#z#m#L",
"#V#m#0#i#V.Gan#L#iazah.B.G#E#W#e#y.y#S.m.m#H.3.Dakak#H#Hak.Dak.3#H.y.y.Wao.haz#d.Ianan#d.qao.I#D",
"#d#d.q.6#L.0ah.r.Gah.G#E#e#y.Wae#S#a#H.3.D.x#R#R.j#R#R.j#R#R.x#R#R#R#R.D.W.b.6.B#D.G#ian#i#Dav.h",
"#Mavan#M#D.c#n#M.Ban.1.b.W.y#S#a.m#H#H.3.3.3#f#R#R.t#O#O.d.d.d#O.t#F#F#F#R.y.b#0#Dan#m.G.q.B.7ah",
"#D#0.B.q.h#0avan#d.1#e.Wae#S#a.D#X.3.3.3akak.#.##w#w#R#R.d.Aau.A#T.g.z#A#A#X.y.W.qazaD#Lao#Daz.r",
".r#Vah#0.G#ianah#E#e.bae.y#a.3#f#X.D.D#f#w.##f#w.#.#.##R#O#caG.a.A.A.A.A#T.z#X#S#y#D#m#i.I.0az#D",
"ao.B#i#i.7ah#i.u#W.b#y.y#S.m#X#f#X.x#F.j.j.t#F#R#R.x.x#R#O#A#s.waG.v#x.v.A.z#w.3ae#W.Qah#2#0.B#L",
".7.Qaz.T#V.7.6#Eaw#y.W.yas.3#X#f.##R#F#O.t.t.t#F.j.j.t#O#c.9.w.eaqaEaGaG#U#T#F.3.m#San.G#L#m.q.6",
"aDaD#0.hanaz#P.1#y.W.y#S#Hak#X#w.x#F.X#b#bat#A.d#Aat.V#o.Y.k.k.k#B.w.a.A#C#C.d#Rak.m#e.q#d#0ah.q",
"#L#L#dan.6#0#P.C#y.y#a.m#Hak#f#w.j.8af#Y#b#b#batau#1#p#p.L.eaG.L#5#Baq.f#U.A#O#R#f.3.W.Qah.0.7.h",
".0.h#L#m.6#V.i.C.W#a#a.m#Hak#f#R#Fapafat#Z.V#s#.#raB.YaG#saGaE.w#3.Laq#o.a.g.d#F.#ak.yab.7ao#L.h",
".Gaz.haz#L.u.i#W.bae#S#Hakak#f#R.8af#Y#4.9.o.HaA#N.J#o#sadaG#s.f#3.L.wadau#T.d#F#w#X.y.1.q#0#i.Q",
"#V.haz.h#0.u#E#eawae#a.3#f#f#war.P.E#K.5#G.o.s.J.L.YaE#..Y#.aG#x#Qaq.w.a.Aat.d#F#w.D#S.b.B#M#2.0",
"#0.0#dav#d.u.1.Caw.yasak#f#waraj.2.nalax.S.Y#N#Nag#Bag#3aBaF.L#xaG.waa.a#C.g#O#F.x.D.m.y#L#Dah#t",
"an#i#Mao.r#P.1.C#eae.m.D#f#war#6ar.M#8.5#J.J.J.L#3#3aF#kaF#u.k.w#x#x#s#Uau.A#A.t.j.Das.W#M#D.0av",
".0.haz#Man#Pai#Waw.y.m.D#f##aj.8.P#8.p.O.s#3.k#p.kaFaB#p#u#u#u#BaE.v#x#c#C#c.z#F.x.Das.yao#i.6.G",
"#V.G#9az#i.i#W.C#yas#Hak#f#war.8.n.Eay#7aa#N.J#3#p#p#N#u#u#u#u.k.e#o.a#C#U#x#C#R#w.D.m.yao#Dav#i",
"aD#0.Q#L#M#E.C.C.W#Sas#H.D.#araj#8.E.K.S.Saa.s.J.saA#r.N#p#uaF.k.L.w.fau.a#c#T#F#w.Das.y#d#0.6.q",
".6.6an.qaz#Eai.C.b.y#a#Hak#faraj.2#6ay#7.o.H.s.s#jaC#j.saAaB#paF.J.e.9.V.g.X.z#O#wak#S#S#D#9an.h",
".6.Baz#9aD.iai.C#eae#a#H.3.D.#acarar#8.O#J.H.saC..#l.H#r#J#j#J.s.H#Gad#b.t#F.j.x#w#H.y#S#L#Lah#D",
"#0#0#9.6#i#E.C.C#eaeas#H.D#f#f.#.D.U.Pay.O#J#J#G.5.l#J.s.Oay#hay#h.p#K#b#F#R#R.##Xakas#S#V.BaD#i",
"#0az.G.h.6#Eai.1#e.y.m.D#f.x.U#f.3.D.U.2#g#h.5.5#h#q#N.H.o#G.l#Gax#g.X.X.j.x.x#f#X#X.Dae.r#d.G.q",
"#i.q#L#D#0.i#E#E#W.y.3#f.#.2.2#Xak.3#Xa.##.P.4ax.OaA.s#7.YaA#1#J#Y.Eaj.2aj#R#R.x.#.D.D.Wavaoan#L",
"ab.G#ian#d.i.iai#W.W.3#f.#ac#6.#.3ak#X##.M.P.n#h.O#j.o.9aA#p#p#3.H.F.X.Eaf#O.j#R#fakakaw.B.6#z.q",
"#dan#d#V.0#P.i.Cai#e#H.D#facajacakak.D.M#8#gay#GaC.O.F.K#1#N#1.Y#1#..Fau#Y#A.d.x.D.D.3awan.7avao",
"#0aD#i#Vah#P.i#W#W#e#H.3#X#facak.m.makar#Iamamax.p.paxay.S.H#G.F.9.9#s#c.X.X.d#wak.3.m#W#L.haDaz",
"#D.6an#iav.u.i.C.C#eae.m.3akakas#a#a.3ac.Paj#8#8#8#g.F.K#h#K.E.8#8.V.K.Zap#F.jakak.3ae.C#Vanan#D",
".0aD#V#iaz.u.i#Wai#e#y.yasas.mas#S#a.3#wac.2.P#8.2#6#I.n#g.E.p.naj#Y#Z#O.##f.D.3.3#a#y.1.Iah.Baz",
".6.0.B.r#Lab#P.C#W.C.bae.y#S#a.m#Has#H#X.Uacaj.Pac#f.U.2#8.E.E.2.xap#Y.8.D#H.m#Has.y#y#M#D#M#9.7",
".Iahah#0.Gab#Pai#W#W#yae#S#Sas#H.3.3.D#X#X#X.D.#.D.makak.#.8.2.xac.Xap#w#Hasasas.yae#e#t#d#i#z.0",
".G.6.6#0ah.T.u.i.C#e.b#y.y#S#aas#H#H.3#H#Has.mak.3asas#aas.3.D#f.##Rajak#a.y#a.yae.W.1.canaDav.G",
"#2#Van.q#iahaD#P.1#Waw.b.W.W.y#S#S#S#a#a#a#a#Sasas#S.Wae.y#S#a.m#X.D#w.m#a.y.y.W.y#eaz.T#d#L.h.q",
"#M.G.q#9.6#L.Q.u.iai#W#e#e.b#y.W.Waeaeaeaeaeaeae.W.W.yaeaeae.y.y#aak.D.3.m#Sae#y.b.1.T#L.6#L.0#9",
".G#V#d#D.0ah#0#9.u.iai.C#W#eaw.b.b#y.Wae.W.W.yae.yasasas.m#Saeae.m.3.m.mas.y.W#eaian#Da#aoananan",
"an.q#Lanaz.G.h#9#9#P.i.1ai#W#e#eawawaw.b.W#S#aas.m.masas#Sae.b.W#a#a#a.y.y#y#e.1aoan.c.r.q.0aDaz",
".G#D.c#0.0.h#M.qaD#v.u#P.1.1.C.C.C#W#eaw.b#y.y.y.y.yae.W.y#y#e.b#yae.W.b.b#W#E.7#2#z.r#V.G#L.7#i",
"az.r.q#M#M#i#9#V#i.TaD.u#P.i#E.1.1aiai#Waw.b#y#y.b.b.bawaw#Wai#W#eaw#Wai.1#P#d.R#2.B.B#0.h.G#iaD",
".B.h#m#d.0.Q#0#L#L#maD#9ab.u.u#P.i.i#Eai.C#W#W.C.Caiai.C.C.1.1aiai#E.i.u#D.QaD#M#2#Lanah#d#0.6#M",
"#0az.6anaz.q#m.0.G#L.hav.0abab#v.u.u.u#P.i#P.i#P.i#P.i#P#P.u#P.u.uavaoah#dab#m.q#t#L#0.0az#m#L#M",
".q.G#L.6#V#D.6.G#D#9az#0.h.G.h#0#0an.hao#M.Gazan.Q#Daz.B#M#Mazah#0anah#V.G#0.qavav.7#V.0aDaz#L#m",
".6ah.q#V#M#daz#0.han.6az.6#maz#Lahav#L.7ahan.6#0anazan#9.hav.6#d#mazav.0#M.0anav.G#daz#0.0.G#9an",
"an#M.0.I.IaD.6#D#0.6an#m#i#0#d#0#i.B.G.h#L#0an#iaD.0.q#V.6#zah.Gaz#D.6#i.Bao.c#Vaz#V#m#m.Qan.q.B",
".r#i.r#Vah#V.h#iaD.6aDazan#v.B#0.r#M#VaD.ran.G#Lah.rav#D.G.Ban.I#t.G#0ahao.0.0.0#i#9.6#iav.c#D.0",
"#Lan.0.6.Ban.q#man.0#0#t#i.q#V.0#2#dan#D.G.q.qan#mav.0.0#L#L#L.R#V#L#M.G.B#i.G#L.G#m#0.G#D.0ah.q"
};
