/* XPM */
static char * green2_xpm[] = {
"48 48 249 2",
"  	c #492471C65144",
". 	c #71C69E798E38",
"X 	c #79E7AAAA9658",
"o 	c #9658C71BB6DA",
"O 	c #9658C30BAEBA",
"+ 	c #410375D65144",
"@ 	c #8617B6DA9E79",
"# 	c #A699DB6CC71B",
"$ 	c #9E79D34CBEFB",
"% 	c #71C6A2898E38",
"& 	c #79E7B6DA9E79",
"* 	c #9E79D75CBEFB",
"= 	c #79E7AEBA8E38",
"- 	c #61859E7979E7",
"; 	c #79E7BAEA9E79",
": 	c #9E79DF7D9658",
"> 	c #79E7DB6C8617",
", 	c #6185D75C69A6",
"< 	c #4924DB6C5144",
"1 	c #38E3D34C4103",
"2 	c #28A2D34C30C2",
"3 	c #28A2CF3C30C2",
"4 	c #30C2CF3C30C2",
"5 	c #38E3CF3C4103",
"6 	c #4924CF3C4924",
"7 	c #5965CF3C6185",
"8 	c #79E7D75C79E7",
"9 	c #8E38C71BAEBA",
"0 	c #514482076185",
"q 	c #A699DF7DCF3C",
"w 	c #9658CF3CB6DA",
"e 	c #71C6A6998E38",
"r 	c #6185924879E7",
"t 	c #59658A2869A6",
"y 	c #41036DB64924",
"u 	c #69A6924879E7",
"i 	c #8E38A6999658",
"p 	c #410369A64924",
"a 	c #51447DF76185",
"s 	c #C71BFBEEDF7D",
"d 	c #B6DAEBADC71B",
"f 	c #BEFBF3CEC71B",
"g 	c #AEBAE38DCF3C",
"h 	c #8E38BEFBA699",
"j 	c #9658D34CB6DA",
"k 	c #69A6DB6C69A6",
"l 	c #38E3D75C4103",
"z 	c #28A2DB6C30C2",
"x 	c #28A2C30B30C2",
"c 	c #4103C71B4924",
"v 	c #69A6CF3C69A6",
"b 	c #69A6A2898617",
"n 	c #79E7AEBA9E79",
"m 	c #51448E3869A6",
"M 	c #8617BAEAA699",
"N 	c #8617AEBA9E79",
"B 	c #C71BDB6CCF3C",
"V 	c #61859A6979E7",
"C 	c #9E79C71BBEFB",
"Z 	c #9658DB6C9658",
"A 	c #28A2E79D30C2",
"S 	c #30C2DF7D38E3",
"D 	c #30C2DB6C38E3",
"F 	c #28A2C71B30C2",
"G 	c #28A2BAEA30C2",
"H 	c #6185C71B69A6",
"J 	c #6185965871C6",
"K 	c #AEBADB6CCF3C",
"L 	c #9658B6DA9E79",
"P 	c #8E38CB2BAEBA",
"I 	c #28A2B6DA30C2",
"U 	c #4103DB6C4924",
"Y 	c #30C2EBAD38E3",
"T 	c #30C2E38D38E3",
"R 	c #4103B6DA4103",
"E 	c #8E38CF3C8E38",
"W 	c #5965924871C6",
"Q 	c #5965861769A6",
"! 	c #51448A286185",
"~ 	c #30C2F3CE38E3",
"^ 	c #30C2C30B30C2",
"/ 	c #28A2AEBA30C2",
"( 	c #71C6C30B71C6",
") 	c #69A69A698617",
"_ 	c #38E3E79D4103",
"` 	c #28A2AAAA30C2",
"' 	c #6185C30B6185",
"] 	c #30C2F7DE38E3",
"[ 	c #38E3EFBE4103",
"{ 	c #38E3EBAD4103",
"} 	c #38E3C71B4103",
"| 	c #38E3AAAA38E3",
" .	c #28A2A28930C2",
"..	c #69A6C30B69A6",
"X.	c #71C6D34C79E7",
"o.	c #38E3FBEE38E3",
"O.	c #38E3F7DE4103",
"+.	c #38E3C30B4103",
"@.	c #30C2AAAA30C2",
"#.	c #49247DF75965",
"$.	c #8E38D75C8E38",
"%.	c #38E3FFFF4103",
"&.	c #4924F3CE5144",
"*.	c #4103E79D4924",
"=.	c #30C2B2CA30C2",
"-.	c #28A29A6930C2",
";.	c #41037DF74924",
":.	c #38E375D64924",
">.	c #4924F7DE5144",
",.	c #4924FFFF5144",
"<.	c #5144F3CE5965",
"1.	c #4103EFBE4924",
"2.	c #4103CF3C4924",
"3.	c #28A2965828A2",
"4.	c #6185B6DA6185",
"5.	c #5144F7DE5965",
"6.	c #6185F3CE69A6",
"7.	c #4924EBAD5144",
"8.	c #4924E79D5144",
"9.	c #5144D75C5965",
"0.	c #38E3DF7D4103",
"q.	c #30C2659538E3",
"w.	c #5144CF3C5144",
"e.	c #5144FBEE5965",
"r.	c #6185F7DE69A6",
"t.	c #5144E79D5965",
"y.	c #79E7EBAD8617",
"u.	c #8E38EBAD9658",
"i.	c #8617E79D8617",
"p.	c #5965FBEE6185",
"a.	c #6185FBEE6185",
"s.	c #69A6FFFF71C6",
"d.	c #79E7F3CE79E7",
"f.	c #9658F7DE9E79",
"g.	c #C71BEFBEC71B",
"h.	c #AEBAEFBEB6DA",
"j.	c #79E7E38D79E7",
"k.	c #28A28E3828A2",
"l.	c #4924DF7D5144",
"z.	c #69A6F7DE71C6",
"x.	c #71C6FFFF79E7",
"c.	c #8617F3CE8E38",
"v.	c #AEBAF7DEAEBA",
"b.	c #CF3CF7DECF3C",
"n.	c #DF7DFFFFDF7D",
"m.	c #28A28A2828A2",
"M.	c #69A6B6DA71C6",
"N.	c #4103BAEA4924",
"B.	c #8617FFFF8E38",
"V.	c #79E7F7DE79E7",
"C.	c #79E7FFFF8617",
"Z.	c #69A6E79D71C6",
"A.	c #30C2965830C2",
"S.	c #410396584103",
"D.	c #5965EFBE6185",
"F.	c #9E79FFFFA699",
"G.	c #9658FFFF9E79",
"H.	c #A699F7DEA699",
"J.	c #5144DF7D5965",
"K.	c #4103D34C4924",
"L.	c #4103C30B4924",
"P.	c #38E3BAEA38E3",
"I.	c #38E3B6DA38E3",
"U.	c #38E3AEBA38E3",
"Y.	c #30C2A28930C2",
"T.	c #79E7CF3C79E7",
"R.	c #AEBAFFFFB6DA",
"E.	c #6185EBAD6185",
"W.	c #6185E38D6185",
"Q.	c #5144C30B5965",
"!.	c #5144EBAD5965",
"~.	c #A699FFFFAEBA",
"^.	c #BEFBFFFFC71B",
"/.	c #C71BFFFFCF3C",
"(.	c #5965E79D5965",
").	c #28A2820728A2",
"_.	c #5965AAAA6185",
"`.	c #69A6EFBE71C6",
"'.	c #CF3CFBEECF3C",
"].	c #D75CFFFFD75C",
"[.	c #30C28E3830C2",
"{.	c #E79DFFFFE79D",
"}.	c #4103AEBA4103",
"|.	c #28A2861728A2",
" X	c #28A27DF728A2",
".X	c #30C28A2830C2",
"XX	c #38E3AAAA4103",
"oX	c #28A275D628A2",
"OX	c #30C29A6938E3",
"+X	c #41038E384924",
"@X	c #28A271C628A2",
"#X	c #61859E7969A6",
"$X	c #79E7B6DA79E7",
"%X	c #9658D34C9658",
"&X	c #5965D34C6185",
"*X	c #4924D34C5144",
"=X	c #4924C30B5144",
"-X	c #28A269A628A2",
";X	c #30C271C638E3",
":X	c #6185DF7D6185",
">X	c #38E39E7938E3",
",X	c #41038A284103",
"<X	c #69A6BAEA69A6",
"1X	c #A699E79DAEBA",
"2X	c #DF7DF3CEDF7D",
"3X	c #C71BEBADCF3C",
"4X	c #5144C71B5965",
"5X	c #41039A694103",
"6X	c #B6DAE79DBEFB",
"7X	c #5144BAEA5144",
"8X	c #5144B2CA5144",
"9X	c #51449A695144",
"0X	c #28A2659528A2",
"qX	c #4924A2894924",
"wX	c #4103AAAA4103",
"eX	c #8617BEFB8E38",
"rX	c #6185AEBA6185",
"tX	c #49247DF76185",
"yX	c #9658CB2B9658",
"uX	c #69A6AAAA71C6",
"iX	c #9E79C71BA699",
"pX	c #BEFBD75CBEFB",
"aX	c #B6DAD34CBEFB",
"sX	c #5144A6995144",
"dX	c #A699D75CA699",
"fX	c #D75CE79DDF7D",
"gX	c #CF3CE38DCF3C",
"hX	c #6185A6996185",
"jX	c #38E3820738E3",
"kX	c #BEFBDF7DBEFB",
"lX	c #30C275D630C2",
"zX	c #AEBAD75CAEBA",
"xX	c #8E38B2CA8E38",
"cX	c #69A6A28969A6",
"vX	c #A699CB2BBEFB",
"bX	c #9658C30B9658",
"nX	c #2081596528A2",
"mX	c #38E369A64103",
"MX	c #B6DACB2BBEFB",
"NX	c #DF7DE38DDF7D",
"BX	c #30C269A638E3",
"VX	c #30C25D754103",
"CX	c #AEBAC30BB6DA",
"ZX	c #8617A2898E38",
"AX	c #61859A695965",
"SX	c #28A2596530C2",
"DX	c #28A2514430C2",
"FX	c #208149242081",
"GX	c #38E371C638E3",
"  . X o O + @ # $ % & & * * = - ; : > , < 1 2 3 2 4 5 6 7 8 9 0 & 9 q w @ e + r e t y   u i p a ",
"% # s d O & # f g = X & h q j k l z z z z z z z 2 3 3 3 3 x x c v q X b - n y m M N 0 h B B N X ",
"% V C w M h O g g ; e & Z , z z z A z S z z S z D 2 2 3 3 F x x G G H o n 9 J - w N . C K O % X ",
"p t h L n @ e M P e J k z z S A A S A A A A S S S z 2 2 3 3 3 F x x I I H P b n # w n w L % r a ",
"% h q q w h & e h Z U z S S z A A A A Y A A A T T S z z z 3 3 3 x x I G I R E J h - W % a Q ! V ",
"O O $ # O O n e 8 2 z z z A A A A ~ Y Y Y Y T T T T S z z 2 3 F F ^ ^ I I / / ( * o @ @ e e ) e ",
") V n b e ; J k 2 2 S A z A ~ ~ ~ ~ ~ ~ ~ ~ ~ _ _ T T D D z 2 3 4 F ^ G I / / ` ' O h @ - b V r ",
"b e n @ & @ , 3 2 z z A Y A A A ~ ~ ~ ] ] ~ [ [ { { T T S z D 4 4 } x x ^ I |  . ...r - 0 J r r ",
"b @ - & & X.3 z z D z A Y ~ ] ~ ] ] ] ] o.~ O.[ { { T _ S D l 1 4 4 x +.G I | @.`  .( b ! W J V ",
"r J #.m $.3 4 3 z S T A A [ ~ ] ] o.o.%.O.%.[ &.&.[ { *.T S D l 1 3 } +.G I =.` `  .-.- ;.0 :.! ",
"r W b b c 3 3 2 D D T { A [ [ ] %.o.o.o.%.%.%.&.&.[ { *._ *.U l 2 5 5 ^ ^ G I ` `  . .| m J J - ",
"J J & v F F 2 D D S T T [ ~ >.o.%.%.,.%.,.,.>.>.<.1.&.{ _ *.U U 1 2.4 } +.I I I ` ` -.3.4.e b V ",
"0 9 j x F 3 3 D D S _ T [ [ [ 5.o.,.,.,.,.>.5.5.6.1.<.7.*.8.9.0.< 1 5 5 +.^ I I `  . .-.3.e ! q.",
"- w w.x F 3 3 D l S _ { { 1.>.1.e.,.,.e.,.e.e.r.r.&.<.7.t.y.y.u.i., 2.} ^ x I I ` `  .-.3.4.m #.",
"P w G x F 3 3 z D 0.T _ 7.1.>.&.e.e.p.5.>.a.e.a.s.<.>.<.d.f.f g.h.j.5 5 ^ ^ I I ` `  .3.3.k.m t ",
"; 7 G x x 3 3 2 D S l._ { 7.&.5.5.z.>.a.p.s.5.x.x.x.5.6.c.v.b.n.g.i.2.4 F ^ G I / `  .-.3.m.M.#.",
"w N.I x x 3 2 D D S T _ 7.&.<.<.r.e.B.s.s.x.s.B.V.C.a.V.z.v.b.b.h.Z.5 5 } ^ I =.` @. .3.A.k.S.b ",
": I G G F 3 3 4 D l _ _ _ 7.D.5.z.z.p.V.C.x.C.F.C.x.B.s.G.c.H.H.y.J.K.5 } L.P.I.U.@.Y.-.3.m.k.= ",
"T.I G G x F 3 2 D D T _ { 1.1.6.p.B.B.C.B.F.F.R.B.B.F.G.C.s.6.E.W.U < 6 c L.P.I.| @. .-.3.m.m.- ",
"Q.I I G ^ F 4 5 D 0.l *.*.!.<.5.5.C.F.~.^.R./././.R.F.G.C.p.p.D.(., 9.w.c +.I.=./  . .3.3.k.)._.",
"R / I I ^ } 5 5 2.U 0.8.*.7.&.>.a.s.B.F./.^././././.^.B.C.x.x.d.Z.J.U 1 2.^ I.I./ `  .3.k.k.).A.",
"U.` I G ^ x +.4 D l U l.!.E.`.a.s.s.B.F./.'.b.].b./.v.~.R.F.s.<.7.l.< 5 } ^ G I `  . .3.3.m.m.[.",
"` ` / I ^ x ^ 4 5 l U 0.8.7.<.5.x.G.R.^.^.'.n.{.n.'.s ~.G.x.e.>.7.l.9.6 c L.R }.| Y.Y.3.k.|. X).",
"` ` / I I +.+.} 5 5 < 9.8.W.6.s.C.G.~.^./.].{.{.{.'././.R.F.B.V.Z., 9.w.Q.L.R U.| Y.A.3..X).). X",
" .` ` I I ^ ^ +.5 5 l U 8.t.D.z.C.F.v.^./.n.{.{.n.'./.R.G.C.s.5.!.9.9.6 L.P.R XX| Y.A.3.k.). XoX",
" . .` ` I I.G } } 2.K.< , W.E.r.s.x.~.R.].{.].].b.'.^.v.B.x.s.6.t.l.2.2.+.I.I./ Y. .-.k.|.). X X",
"Y. .` @.=.I.P.+.} 2.2.< < 8.t.D.s.C.G.~.^.n.'./.^./.R.F.~.x.p.<.J.< 6 c L.I.U.@.Y.A.3.m.m. X X).",
"}. .Y.@./ =.=.P.+.+.5 5 < 9.t.D.`.x.C.G.R.~.v.^.~.^.^.B.C.C.V.(.< K.c L.P.I.| @.OX-.3.k.).).oX+X",
"4. . . .` =.I G +.+.2.2.K.9.J.(.<.z.C.B.C.C.R.F.F.x.F.C.x.r.`.W., 6 c +.I./ | Y.OXA..Xm. X X@X#X",
"..3.-. .` ` U.=.I.+.+.2.6 K.9.t.E.6.z.s.s.C.~.B.C.x.B.B.e.!.(.9.7 w.Q.R I.U.Y. .3.k.k.m. XoX@X$X",
"%X3.3.-. .` @.=.=.I.+.+.c 2.v &X9.(.`.5.p.s.G.x.a.a.a.d.c.l.9.*Xw.=XN.R XX| Y.-.3.k.m.). XoX-X%X",
";XY.3.-.-.Y.@.| =.I.I.+.L.X.h.h.k :X8.!.&.6.d.6.5.&.7.Z.:Xk K.2.=XN.R }.XX>XOXA.k.m. X X@X@X,X0 ",
"0 <Xk.3.3.-. .Y.| I.I.R X.1X2X3X> *X< < J.W.Z.t.t.t.< 9., 7 4XL.P.R U.U.| 5XOX[.m.|. X XoX-X_.#X",
"b %Xm.3.3.-.Y.Y.@.@.| T.6X6X6XZ 4X2.6 K.9., , 9.< *XK.2.4X4XQ.P.I.U.XXY.Y.A.A.[..X). XoX-X@XJ X ",
"m ; _.m.k.3.-.-.Y.| XXE 2X3X$.7X+.+.c c 6 7 w.6 6 6 c c L.7XR 8XU.| Y.OXOX[..X|.). XoX@X-X9XJ b ",
"e 9 ; m.m.k.3.3.-.-.Y.<X%X%X..I.I.+.P.L.L.Q.=X=XL.L.+.P.R R R }.XXY.Y.A.A.k..X). XoX@X@X0XW - b ",
"@ q j 4.).m.S.qXqXOX-.>XwXwX| / U.I.=.R R 7XR P.R I.I.I.U.wXwX>X>X5X3.3..X.X). XoX@X-X0X#Xq.+ - ",
"w w 9 #XS.9X$XeXeXrX5XA.OX>XY.| | @.U.U.R }.R U.U.U.U.@.` Y.>X>XY.S.A.|.m.). XoXoX@X0X#.#.y tX) ",
"P & r J yXuXiXpXaXeXsXA.A.3.-.Y.Y. .Y.| XXwXXX| | | Y.Y.Y. .A.A.[..X.X.X X X X@X-X-X0Xb t #.0 % ",
"$ o & & O dXaXfXgXiXhX.X3.3.3.3.-.OXY.OX5X5XY.>XY.-.>XOX3.A.A..X.X.XjX X XoX@X-X-X0X$Xe W W 0 n ",
"$ M h h M i kXB pXeX#X|.m.m.[.k.3.[.A.A.A.A.A.A.A.3.3.A.k..Xm..XjX X XlX@X@X-X0X0X- & & J r W n ",
"$ O e t V L aXzXxXcX,X X).|.m.|.m.m.k.k.S.[.[.k.k..X.X|.m.m.|. X XlXlX@X@X-X0X0XcX- h e t V Q b ",
"n w vXvXvXL O C bXjXoX X X X Xm.|..X|.)..X.X.X.X|.m.).). X X X XlX@X@X0X-X0XnXuXJ J - W tX0 mXtX",
"O C MXNXMXu W b W J .X@X@XoX XoX X X X XjX). X X X X XlX XoX@X@X@X-XBX0XVX;.cXJ b V & n W W t ) ",
"N B NXNXCXV V b - #Xe #X@X@X@X@X@XoX XlXlX XoXoXoXoXoX@X@X@X-X-X-X0X0XnXV - 0 ! ! #.- V r % ) V ",
"ZXfXfXMXL t V % b J b +X! 9X@X@X@X@X@X@X;X@X@X@X@X@X@X@X-X-X0X0XnX0XAXm J 0 mXQ W + Q Q tXr + tX",
"X vXZXQ Q y tX0 ! y -X0X#.! ! sX;.0X0X0X-X-X-X-X0X0X0X0X0X0X0XlX- q.+ t W ! #.r 0 0 t ! 0 a y a ",
"VXSXDX    FXmXt t y #.q.! ! :.q.;.! $XJ ;.GX-XnX0X0X;XjXm uXW ;.#XV = e n % V ) r 0 0 0 t 0 Q tX"};
