/* XPM */
static char *red[] = {
/* width height num_colors chars_per_pixel */
"    48    48      139            2",
/* colors */
".. c #1c0204",
".# c #fc7674",
".a c #8c0204",
".b c #dc3e3c",
".c c #c41214",
".d c #ac1614",
".e c #2c2a2c",
".f c #fcaeac",
".g c #c42a2c",
".h c #ac0204",
".i c #fc5a5c",
".j c #540204",
".k c #f44e4c",
".l c #dc2e2c",
".m c #fc9294",
".n c #fccacc",
".o c #340204",
".p c #9c0e0c",
".q c #ec3e3c",
".r c #c41e1c",
".s c #ac0e0c",
".t c #9c0204",
".u c #3c3e3c",
".v c #141614",
".w c #bc2224",
".x c #dc3634",
".y c #ec4644",
".z c #d42224",
".A c #fc8684",
".B c #bc1614",
".C c #fcbebc",
".D c #fc6a6c",
".E c #740204",
".F c #fca2a4",
".G c #fcdadc",
".H c #c42624",
".I c #bc0e0c",
".J c #9c0a0c",
".K c #343634",
".L c #d42a2c",
".M c #ac0a0c",
".N c #4c4a4c",
".O c #242224",
".P c #ec3a3c",
".Q c #141214",
".R c #fc7e7c",
".S c #940204",
".T c #e44644",
".U c #c41a1c",
".V c #b41e1c",
".W c #fcb6b4",
".X c #fc6264",
".Y c #640204",
".Z c #fc5654",
".0 c #fc9a9c",
".1 c #fcd2d4",
".2 c #440204",
".3 c #f43e3c",
".4 c #cc1e1c",
".5 c #b40e0c",
".6 c #a40204",
".7 c #e43634",
".8 c #f44644",
".9 c #2c0204",
"#. c #e43e3c",
"## c #b41614",
"#a c #343234",
"#b c #cc2a2c",
"#c c #b40604",
"#d c #fc4e4c",
"#e c #e43234",
"#f c #a40e0c",
"#g c #444644",
"#h c #1c1e1c",
"#i c #d43234",
"#j c #fc8e8c",
"#k c #bc1e1c",
"#l c #fcc6c4",
"#m c #fc7274",
"#n c #840204",
"#o c #fcaaac",
"#p c #fce2e4",
"#q c #240204",
"#r c #fc7a7c",
"#s c #8c0604",
"#t c #c41614",
"#u c #2c2e2c",
"#v c #ac0604",
"#w c #fc5e5c",
"#x c #5c0204",
"#y c #f45254",
"#z c #dc3234",
"#A c #fc9694",
"#B c #fccecc",
"#C c #3c0204",
"#D c #ec4244",
"#E c #c42224",
"#F c #ac1214",
"#G c #9c0604",
"#H c #444244",
"#I c #1c1a1c",
"#J c #dc3a3c",
"#K c #ec4a4c",
"#L c #d42624",
"#M c #fc8a8c",
"#N c #bc1a1c",
"#O c #fcc2c4",
"#P c #fc6e6c",
"#Q c #7c0204",
"#R c #fca6a4",
"#S c #fcdedc",
"#T c #cc2624",
"#U c #bc1214",
"#V c #a40a0c",
"#W c #3c3a3c",
"#X c #d42e2c",
"#Y c #b40a0c",
"#Z c #4c4e4c",
"#0 c #242624",
"#1 c #fc8284",
"#2 c #940604",
"#3 c #cc1a1c",
"#4 c #fcbabc",
"#5 c #fc6664",
"#6 c #6c0204",
"#7 c #fc9e9c",
"#8 c #4c0204",
"#9 c #f44244",
"a. c #cc2224",
"a# c #b41214",
"aa c #e43a3c",
"ab c #f44a4c",
"ac c #e44244",
"ad c #b41a1c",
"ae c #a41214",
"af c #fcd6d4",
"ag c #a40604",
"ah c #cc2e2c",
"ai c #d43634",
/* pixels */
".u.u#W.K#a#u#u#u#a.K.N#g#g#g#H.N#g#u.e#u#a#W#W#a#0#0#0.e#u#u#u.e.O#0#0#I#I#h.O.O#h#h#I.v.Q#I#h#0",
"#u#W.K#a#u#u.e#0#h.e#H.u.K#W#W.u#W#0#0#u#a.K.K.e#h.O.e.e.K.K#a#u.e.e#u.e#0.e.e#0.O.Q.Q.Q.Q#I.O.O",
".e#u.e.e.e.e#u#u.e#0#u#a#a#a.K#a#0.O.O#u.K.K#u#I#I#0#0.e.K#H#a.K#u#u.K#u#a.K#a#u#0#I.v.v.v#0#0#0",
".O.v#I#I#h.e#a#a#u.e.e#u#a.K#W#u#0.O#8.Y.E#n.a.S.a#n.a#n#n#Q#x#a.K.K.K#W#u#W.K.K#u.e#0#h.e#0.e#u",
"#I.Q.v.Q#h.e#u#H#W#u#u#a.K.u.u#u.Y#6#6#Q#Q#n#6.E.E#Q#n.a.S#n.a.a#n#W#W#a#u.K#g#H.K.e.e.e.e.e#0#0",
"#I.Q.Q#I#0.K#W#g#g#W.K.K#W.N#x.E#n#n.S.S.t.t.S.t.t.t.S.S#n#n.a.6.a.a#Q#W.e#H#Z#g#W#u#u#u#u.e.O#h",
"#I.Q.v#h#a.K#W#H#Z.N.u#W#8.Y.E.E.a.a.a#Q#Q#n.S.t.t.6#v.h.6.a#n.S.6.6.S#Q#n#H.N.N#W#a#u#u#u#0#I.v",
"#h.Q.v#a.K#a#a#H#g#Z.N#8.E.Y.E.E#Q#Q#Q#n#n#n#n#n#n#n.6#v#c.h.t#n.h.h.6.6.t.a#Z#g.K#u#a#u.e#h.Q#I",
".O#h.v#a.K#a#u#W#H.N.j#6.Y#6.E#Q#n#n.a#n.a.a.a.a.S.I.4a..c.h.t.a.a.I#v.t.6.t#n#g#W#u#u.e.v.Q.v#h",
"#a#h#I.O.K.K#a.u.N.j.E#6.E.E#Q#Q#n.a.a.a.a.a.a.t.L#9#e#t.h.t.S.a.t.6.I#c.h.6.t#n#H#W#u#I.v.Q#h#u",
".K#0.O#0#u#a.K#H.2.Y#Q.E#Q#Q#n.a.a.t.S.a.S.S.6#v#w#P.M.t.t.6.6.I.l.I#t.I.6.t.6.S#n#H.u.e.Q.v.e.K",
"#u.O#0.e#a#a#a.2#8#x#6.E#Q.a#n.a.S.S.Sag##.Uaa#P.l.t.6#1.W#w#5.P#w.7a..c#Y.h.t.t.S#6#Z.K#I#I#u#a",
"#0#h#0#u.K#u.e.j.j#8.E#Q#n#n.S.S.S.tag###T#i.k.6.t.h.X.C#3.4#c#L#m.D.l.I#Y.h.h.6.S.a.N#W#0#I.O#u",
"#a#h.O.e#u.e#8.Y.Y.Y.E.E#n#n#n.a.t#G#V.t.6.6#vaa#r#j.W.I.6.t.t.h#v.3.8#t.c.5#c.6.S#n.E#W#u#h#h#0",
".u.e.O#0#u#u.2#6.Y.E.E#Q#n#n.a.a.S#G.6.5#E.L#X#E.w#.#d.I#Y.I#v.6.t.4.X.l.B#t#Y.6.t.a#n.u.K#0.O.O",
".N#u.e.e.e.o#8#x#6#Q#n#Q#n.S.S.S#G#V#v#b#F##ad#k#E#i.P.z#r.W.G.P.S.h.R#e.U#t#c.t.t.a.a.E.u.e.e.e",
"#Z.u#a.e#0.j.Y#x#Q#n#n#n.a.t.t.tag#V.M#b#F.J.d#E#b.7#e.Raf#Oaf#P.t.t#9.q.5#Y#Y.t.S.S.a#n#H#W.K#a",
".N.u#u#u.o#8.Y.Y#Q#n.a#Q.a#G.tagag.B#b#k.J#f#f.raa#d.i.F#S#B.W.C.h.6.U.I#v.5#U.6.S.S#n.a.Y.u.K.K",
".N#H#a#u#8.2#x#6#Q#n.a#n.a.a#V#F#Nad#iad.J#F.b#r.##P.F#l#4#7#R#o#3#Y.U#Y#Y.I#U.h.S.S#n#n#6#W#a.K",
"#g#H#W#a.j.j.Y#6.E#Q#Q#n.a#n.a#2#f#F.V.waiai.i.n#O#m.n.G.f#4.1.F#d.c.U.I#vag.6#c.S.S.S.a#Q.K#H#W",
".u#H.u.K.j#6#x.Y#6.E.E.a#n.a.S#2.J#fae.w.##M.0.C#1#4#O.G#p#S.1.f#d#3#Y#v.h.6.t.6.6.t.t.S#n.u#W#u",
"#W.u#H.u#C#8.j.Y.Y#6.E#Q#n.S#Ga##Nae#fae#k.i#o#A#7#4#R.W.n#4.1.G.A#t#v.h.t.6.S.S.a.t.S.a#n#a.e#0",
"#W.u#W#a#C#C.j.Y.Y#6.E#n.a.t.s.x.yab.J#f.V.H#4#A#o#1#P.0#o.0#S.F#M.7#c.I.6.t.t.a#n.6.a#n#n.e#0#0",
".K#a#u#h.o#8.2#x.Y.Y#Q#n.a#V#D#P.R#w#F.p.d.d.f.0.m#r#5.n#S#1.0#B.n.F#m.#.r.6.a.a#Q#n#Q#6#n.O#h.O",
"#u.O.Q.Q#q.j.2.j#x.j#6.E.a#F#k#5.A.A.d.J.Jac#4.0#y.k#7.naf#j#Kac.y#J.i#za#.S.a.a#n#n#Q#x#Q#u#0.e",
"#0.Q.Q.Q...j.2.2#8.j#x.E.a.s.J#k#A.A#m.i#1#A#P.bah#M.W.1#1.8ah#E#k#N###V.t.S.S.a#n#n#Q#6#6#W#a#a",
".O.v.Q.v.9.Y.2#C#8.j.j.Y#n.t.S.J.wabab.T#K#i.Vad.D#1.#.A#5#z.y.y#i.L.s.t.S.S#n#n#n.a#Q#n.a#H.u.u",
"#0.v.Q.Q.2.Y#C.o.j.j#x.Y#n#2#n#n.a#s.a.J#f#f.d#iaaaiad.H.Z.X#w#w.7#za#.6.t.a.a.a.S.S.S#n#Q#g#H#H",
"#0#h.v.v.2.2#x#C.2#x.Y.j#Q#G#n#n#Q#n#n.a.a.d.w#b#T.Had.d.g#Daa#V#Gag.s#v.6.S.t.S.t.a.S#Q#6.N#g#g",
".e.O.O.Q#q.o.j.2.j.Y#x#x#6#V#n#n#Q#n.a.a#G#E.w###i#badad.H.d#G.a.S.S.S.S.t.S.t.S.t.t.a#Q#x#g.N#g",
".e.O#h.v.v.9#8#x.j.Y#x.j.S#f.S.E.E#n.a.d#k.w.J#2.J.d.H#E.d#V.a#G#F#G.a.a.a.S.S.S.S.S#Q#6.K#H.N#g",
"#0#h.e.O#I.9.2.j.j#x#x.Y.a.a#Q#6#6#Q.S#f.J.S#n#2.a#2.J#f#f#V#Va#.U.B.M.S#n.a.S.S.S.a.E#x#a#W#g#H",
"#0#0.e.e.e#0.2.j#x.j.Y#6.E#Q#6.Y.Y#Q.a.a#2#n.a.J#F#G#n.S#V#F.s.M.s.5.M.S#Q.S.a.a#n#6.E.e#u.u#H#H",
"#h#0#u#a.u.K#q#C#8#x.Y#6#6.Y#6#6.Y.E#n.a#f.S#Q#n#F###f#V#f#V#fag.t#G.S.E#Q.a#n#Q#6.Y#x.e.e#a.u.u",
".O.O#0#a#g.N#W#C.o.2#x.Y.Y#x.Y#6.Y#Q#Q#n#G#2.E.a#G#V#Vag#G#G.S#n#Q.a.E#6#Q#Q.E.Y.Y.j#I#h#u.e#a#a",
"#a#a.K#H.N.N.N.o.9#C#C.j.j.j.Y.E.E#n#n#n#n#n.E.E#G.J#G#G.t.S#Q.E.E.E#6#6.E#Q.j#x#x#8#I#I#h#0.O.e",
"#H.K.K#W#u.K#g#g.o.o.o.2#8.j#x#6.E.E#Q.E.E.E.E#Q#G#V#G#G#G.t.E.E.E.E#6.Y#6.Y#x.Y.j.Q.Q.v.O.O#h#a",
"#g.K.e.e.O.e#W#W.K...2#C.2.j#x#x.Y.Y#6.E.E.E#6#Q.aag#G.S#G#G.t.S.a#6.Y.Y.E#Q#x.j.Q.Q.Q.v#I.O#u#u",
".u.e#0#0.e#u#u#0.e.O.9#C.2#8.j.j#x.Y.Y#6#6.E.E.E#Q.S.S#Q#n.a#n.S.a.a.Y.Y#Q.E#x#I.Q.v.v.Q#h#0.K#a",
".e#I.e#0#0.e#0.O.O#h.O...o#C#8#x#x.Y#6.Y.Y.E#Q.a#n#Q#x#x.Y.Y.Y#Q#n#Q.j.Y#8#8#0#h#h.Q.Q.v.O.e#u#a",
"#I.Q.v#h.O#0#0.O#h#h.e.e#q.9#C.2#x#x.Y#6#6#6#x.j#8.j#8.j#8.j#8.E#n#x.2.2#C.O.e.e.e#h.v#h.O#h#a#u",
".v.Q.Q#I.O.O.O.O#h#h.O.O.e#a#q#C#8.j.j#x.2.2#8#x.j#x#x.j.j#8.2#6.Y#8.o#I.O#0.e.e.e#0.O#h#h#I.e.K",
".O.v.v#h.O#h#h#h.O#h.O#h#0.e.u.N.o.2.o.o.o#C.2.Y#6#x#8.j#8#C#x#8#C.v#I#h#0.e#u.e#0#0#0.O#h#h.e#a",
"#a#h#I#h#h.O.O.O#I#I#0#0#u.u#H#g.N.N#q...o#8.o#C#8#C.2#C.o#C.o.Q#h.O.O#0#u#a#u#0#h.O#0#0.O#h.O#0",
"#W.e#h.O.e#0.O.v.v.v.O.e#a#a#H#g#Z#g#g#W#a#u.O.Q.v#I.v#I#h.v.Q#h#0#u.K#H#g#H.K.O.O#h.e.e.e#0.O#0",
"#H.K#0#0.e#u#h.Q.Q#I#I.O#u#a.u#g.N.N.N#W#a.e#h.v.v#h#0.e.e#0#h.O#u.K#W#H#H#H.K.O#u#u#u#W.K#a.e.O",
"#H#W#a#u#a.K.O.v.Q.Q.v#0#a#a.K#W#g#Z.N.u#W.K.e#0#0.e.e#a#a#u#u#a.u#W#W#W.u.K#u.K#H.K.K#g.N#g.u#u",
".u.K#a#u#a.K.K#h.Q#h.O#0#0#a.K.K.u#g#Z.N#g#H.K#u#a#u#a#a.K#a#W#W#H#H.K.K#a.e.K#H#g#H#H.N#Z.N#H#a"
};
