/* XPM */
static char *red[] = {
/* width height num_colors chars_per_pixel */
"    48    48      147            2",
/* colors */
".. c #0c0a0c",
".# c #fc7674",
".a c #8c0204",
".b c #dc3e3c",
".c c #3c3a3c",
".d c #ac1614",
".e c #fcaeac",
".f c #c42a2c",
".g c #4c0204",
".h c #ac0204",
".i c #fc5a5c",
".j c #1c1e1c",
".k c #f44e4c",
".l c #dc2e2c",
".m c #fc9294",
".n c #fccacc",
".o c #9c0e0c",
".p c #545654",
".q c #ec3e3c",
".r c #c41e1c",
".s c #2c0204",
".t c #ac0e0c",
".u c #9c0204",
".v c #bc2224",
".w c #6c0204",
".x c #dc3634",
".y c #ec4644",
".z c #d42224",
".A c #141214",
".B c #fc8684",
".C c #4c4a4c",
".D c #bc1614",
".E c #fcbebc",
".F c #fc6a6c",
".G c #2c2e2c",
".H c #fca2a4",
".I c #fcdadc",
".J c #646264",
".K c #c42624",
".L c #bc0e0c",
".M c #9c0a0c",
".N c #d42a2c",
".O c #ac0a0c",
".P c #ec3a3c",
".Q c #1c0204",
".R c #fc7e7c",
".S c #940204",
".T c #e44644",
".U c #c41a1c",
".V c #444244",
".W c #b41e1c",
".X c #fcb6b4",
".Y c #5c0204",
".Z c #fc6264",
".0 c #242624",
".1 c #fc5654",
".2 c #fc9a9c",
".3 c #fcd2d4",
".4 c #f43e3c",
".5 c #cc1e1c",
".6 c #3c0204",
".7 c #b40e0c",
".8 c #a40204",
".9 c #7c0204",
"#. c #e43634",
"## c #f44644",
"#a c #e43e3c",
"#b c #b41614",
"#c c #cc2a2c",
"#d c #b40604",
"#e c #fc4e4c",
"#f c #e43234",
"#g c #a40e0c",
"#h c #5c5e5c",
"#i c #d43234",
"#j c #1c1a1c",
"#k c #fc8e8c",
"#l c #545254",
"#m c #bc1e1c",
"#n c #fcc6c4",
"#o c #fc7274",
"#p c #343634",
"#q c #fcaaac",
"#r c #fce2e4",
"#s c #6c6a6c",
"#t c #0c0e0c",
"#u c #fc7a7c",
"#v c #8c0604",
"#w c #c41614",
"#x c #3c3e3c",
"#y c #540204",
"#z c #ac0604",
"#A c #fc5e5c",
"#B c #242224",
"#C c #f45254",
"#D c #dc3234",
"#E c #fc9694",
"#F c #fccecc",
"#G c #5c5a5c",
"#H c #ec4244",
"#I c #c42224",
"#J c #340204",
"#K c #ac1214",
"#L c #9c0604",
"#M c #740204",
"#N c #dc3a3c",
"#O c #ec4a4c",
"#P c #d42624",
"#Q c #141614",
"#R c #fc8a8c",
"#S c #4c4e4c",
"#T c #bc1a1c",
"#U c #fcc2c4",
"#V c #fc6e6c",
"#W c #343234",
"#X c #fca6a4",
"#Y c #fcdedc",
"#Z c #646664",
"#0 c #cc2624",
"#1 c #bc1214",
"#2 c #a40a0c",
"#3 c #d42e2c",
"#4 c #b40a0c",
"#5 c #240204",
"#6 c #fc8284",
"#7 c #2c2a2c",
"#8 c #cc1a1c",
"#9 c #640204",
"a. c #440204",
"a# c #840204",
"aa c #fcbabc",
"ab c #f44244",
"ac c #cc2224",
"ad c #b41214",
"ae c #e43a3c",
"af c #f44a4c",
"ag c #e44244",
"ah c #b41a1c",
"ai c #a41214",
"aj c #940604",
"ak c #444644",
"al c #fc6664",
"am c #fc9e9c",
"an c #fcd6d4",
"ao c #a40604",
"ap c #cc2e2c",
"aq c #d43634",
/* pixels */
".C#W#7.j#W#S.c#j#Q.A.0.c.V#7#B#Q#B.G..#7.c#p.c.V.G.j#B#B#p.0.G#B.cak#S.G#l#B#j.j.0...cak#S#7#B#j",
"ak#Q#B#S.j.C#B.j#j.G.C#7#7.0ak.j.V#7.G.G.j#j.j.G.V#l.c.0.j#W#j#p#x#7#W.c#j#p.j.A.G#x.C.C#p.0#Bak",
"#W#W#t.c#Q.V#p.j#7ak#h#p#Q#B.C#Q#s#x.c#W.0#7#j#Q.0#S#hak#B#Q#Q#j.j.G#t#B#p#l.V.G.G#Wak.C#j.0.A.G",
".j.c.j.G#p.G.c.j.V.J.J#l#7#p.j#p#h#W.g#9#Ma#.a.S.a.aa#.aa#.9.Y#pak.C#Q...pak.p.j.A.j#B.c.0.c#7.j",
".V#B#W#p.C.j#t#j#x#W#W#x#p#j.G#W#9#9.w.9.9a#.w#M#M.9a#.a.S.a.a.aa##W#t#7#h.C#W#j#Q.0.G#p#p#x#W.j",
"ak#Q#l.V.0.V#B#j.0.0.0#p.j#B#9.wa#a#.S.S.u.u.S.u.S.u.S.Sa#a#.a.u.S.aa##x.C.C.0.A#7#W#7.j#7ak#B#7",
".C#7#S#S#W#S#p.j.G#B.0.G.g#9#M.9a#.S.a.9.9a#.S.u.u.h#z.h.8.aa#.S.8.8.S.9a#.c.c.j#j#7.G#x#j#Q.G.p",
"#S#t#l#l.j#S.c#7#j.j#l.g#M#9.w#M.9.9.9a#.9a#a#a#a#a#.u#z#d.h.ua#.h.h.u.8.u.a.J.0.0#Q.G.c#W.G#j#W",
"ak#7#7#7#W#W.G#S#W#B#y.w.w.w#M.9a#a#.aa#.a.Sa#.a.u.L.5.z#1.h.u.a.S.L#d.u.8.u.9#B#j#j#p.C#W.j.j#j",
".C.Cak.0#S#S#x#7ak#y#M.w.w#M.9a#a#.a.a.a.a.a.S.u.N#H#f#w.h.u.S.a.S.8.L.h.h.8.8a##W#t#j#x#7#Q.A#W",
"#B#S#lak#W#S#W.G.g#9.9#M.9a#a#a#.a.u.S.a.S.S.8#z#A#V#4.S.u.h.8.L.l.L#w.L.8.u.u.Sa#.j...0#t.C#p#B",
"#7#j#p.G#j#B#Ba..g.Y.w#M.9a#a#.a.S.S.Sao.D#Tae#V.l.u.8#6.X.Zal.P.i.Pac#w#4.h.u.u.S.w.0.c#p#h#7.0",
".j#j.0.j#B#W.0#y#y.g#M.9a#.a.a.S.S.uao#b.K#D.k.8.u.h.Z.E#8#8#d#P.#.F.l.L#4.h.h.8.S.a#7#Q#7#j#W.0",
".j.j#j.V#W#W.g.Y.w#9.w.9a#.9a#.S.u#L#2.u.8.8#zae#u#k.X.L.8.u.u.h#z.4###w#1.L#d.8.ua##M#7.j.c#S#7",
".j#B.0.V#x.G.g.w#9#M.9#Ma#.a.a.a.a#L.8.7#I#c#3#I.v#a#e.L#4.L#z.8.u.5.Z.l#w#w#4.8.S.aa##7#W.V.p.c",
"#B.0#7.0ak#J.g.Y.w.9a#.9a#.S.S.u#L#2ao.N#K#bah#m#I#i.P.z#u.X.I.P.S.h.R#D.U#w#d.8.u.a.a#M#Sak#S#W",
".G.A.c.0#W#y#9.Y#M.aa#.9.a.u.S.uao.O.O#c#K.M#b#I#c#.#f.Ran#Uan#V.u.uab.q.7.O#4.u.S.Sa#.a#W.p#h.c",
"#j#j#p#p#J.g#9#9.9a#.aa#.a#L.uaoao.D#c#m.M#g#g#mae#e.i.H#Y#F.X.E.h.8#w.L#d.7#1.8.S.Sa#.a#9.j#G.C",
".0#B.0.c.ga..Y.w.9a#a#a#.a.a#2#K#Tah#iah.M#K.b#u.##V.H#naaam#X#q#8#4.U.7#z#1#1.h.S.Sa#a#.w.A.V.J",
".c#x.j#l#y#y#9.w#M.9a#a#.aa#.a#L#g#K.W.vaqaq.i.n#U#o.n.I.eaa.3.H#e#1#8.7#4.8.8#d.S.S.S.a.9.Aak#l",
".G#l#j#x#y#9.Y#9.w.w#Ma#.a.a.Sajajai#K#m#u#R.2.E#6aa#U.I#r#Y.3.e#e#8#4.h.h.u.u.8.8.u.u.Sa#.j#pak",
"#S#W.A#S#J#y#y#9.w.w.9.9a#.S#Lad#Tai#gai.W.i#q#Eamaa#X.X.naa.3.I.B#w#d.8.8.8.u.S.a.u.S.aa##B#p.0",
"#j.0#Q#B.6.6#y.Y#9.w#M.9.a.u.t.x.yaf.o#g#m.Kaa#E#q#6#V.2#q.2#Y.H#R#.#4.L.8.S.u.aa#.8.aa#a##B.c#B",
"#W#B#B.j#J.ga..Y#9#9.9a#.a#2#H#V#6#Aai.o.d.d.e.2.m#ual.n#Y#6.2#F.n.H#o.#.r.8.a.a.9a#.9.wa#.J.G.0",
"#Q#t#j#7#5#ya.#y.Y#y.w#M.aad#mal#6.B#K.M.Magaa.2#C.kam.nan#k#Oag.y#N.i#Dad.S.S.aa#a#.9.Y.9#x.0#j",
".j#B#B#j.Q#ya.a..g#y.Y#M.a#K#L.v#E#R#o.i#6#E#V.bap#R.X.3#6##ap#I#m#T#b#2.S.u.aa#a#a#.9.w.w#j#j.j",
"#Q#W#p.j.s#9a..6.g#y#y#9a#.S.S.M#mafaf.T#O#i.Wah.F#6.#.Bal#D.y.y#D.N.t.u.S.S.aa#a#.a.9a#.a.C#7.0",
"#7#7#W#7a..w.6.6.g#y.Y#9a#.Sa#a#.a#v.a.M#g#g.d#iaeaqah.K.1.Z#A#A#.#Dad.8.u.Sa#.a.S.S.S.9.9#B.A#p",
".p#Q.j#7a.a..Y.6.g#y#9#y.9#La#a#.9a#a#.a.a.d.v#c#0.Kah.d.f#Hae#2#Lao.t#z.u.S.u.S.u.a.S.9.w.0.c#j",
"#W#7#t#j#5#J#ya.#y#9.Y.Y.w#2a#a#.9a#.a#v#L#I.v#b#i#cahah.K.d#L.a.S.S.S.S.u.S.u.u.u.u.a.9.Y#Q.A.j",
".G#7#p#S#G.s.g#y.Y#9.Y#y.S#g.S#M#Ma#.a#K#m.v.Maj.M.d.K#I.d#2.a#L#K#L.a.a.a.S.S.S.S.S.9.w#j#j#B#p",
".c#j#B#p#S.sa.#y#y.Y.Y#9.a.a.9.w.w.9.S#g.M.Sa#aj.aaj.M#g#g#2.Mad.U.D.O.Sa#.a.S.S.S.a#M#y.c#7#p#G",
".c.0...V#7#pa.#y.Y#y#9.w#M.9.w#9#9.9.a.aaja#.a.M#K#La#.S#2#K.t.O.t.7.O.S.9.S.a.aa#.w#M#W#B.G#Q.G",
".j#B#j#x.j#j#5.6.g.Y#9.w.w#9.w.w#9#Ma#.a#g.S.9a##K#b#g#2#g.O#gao.u#L.S#M.9.aa##M.w.w.Y#7#j.j.c.c",
"ak#S.G#7#W.V#S.6#Ja..Y#9#9.Y#9.w#9.9.9a##Laj#M.a#L#2#2ao#L#L.Sa#.9.a#M#M.9.9#M.w#9#y.j.A.c.G#B#p",
"#j#W.c.c.V#Q#W#J.s.6.6#y#y#y#9#M#Ma#a#a#a#a##M#M#L.M#L#L.u.a.9#M#M#M.w.w#M.9#y.Y.Y.g.G#7#7.c#B#x",
"#j.V.j.j#l#W.G#t#J#J#Ja..g#y.Y.w#M#M.9#M#M#M#M.9#L#2#L#L#L.u#M#M#M#M#9#9.w#9.Y.Y#y.J#B.G.G#B#t#p",
"#W.0#x.0#7.G#W#7.V.Qa..6a.#y.Y.Y#9#9.w#M#M#M.w.9.aao#L.S#L#L.u.S.a.w#9#9#M.9.Y.Y#p.p.j.c#x#Q#j#7",
".c.0#B.0#j#x#W#Q#x.c#5.6a..g#y#y.Y#9#9.w.w#M#M#M.9.S.S.9.a.aa#.S.a.a.w#9.9#M.Y#j#j#l.G#j#j#j#7#p",
"#x#j#jak#p#j#p.A.C.C#B#5#J.6.g.Y.Y#9.w#9#9#M.9.aa#.9.Y.Y#9#9#9.9a#.9#y.Y.g.g.c.j.j#W#l.0#p.0.0#p",
"#l.0#p#W#x#W#7.0#xak#p.0#5.s.6a..Y.Y#9.w.w.w.Y#y.g#y.g.g.g#y.g#Ma#.Y.ga.#J.C#p#7.C#p#x.0#7ak.p.0",
"#S#p#Q#W.0#Q.A.A.0#Q#j.c#G.J#5.6.g#y#y.Ya.a..g.Y#y.Y.Y#y#y.ga..w#9a.#J.V#W#W#S.pak#Q.c.c.0#l.C#S",
".c.G#B.j#x#p#7#Q#7#p#W#t.cak#W#7#Ja.#J#J#J.6a.#9.w.Y.g#y.g.6.Y.g.6#Q#7.j#B.0.c.p.C#B#S#W.jak.p.V",
"#B#t#S.C.0.A#7.V.G.0#7#x.0.A#7.c#x#B#5.Q#J.g#J.6.g.6a..6#J.6#J#B#W#B#p#l.V.V.G.V#j.c.c.G.j.0#pak",
"#j#7#B.j#B.0.j#S.c.j#W.A#p#p.0.G#B#G.J#7.A.0.G...G#j#W.G#W.c#7.j#W#B#B.p.p#l#S#B.0#l#W.0#B.j.A.j",
".0#Q#W#W.0#7#W#p#j#W#l#W.Vak#7#j#x.p#l.V.G#j.j#j#W#W#Q#Q#Q#x#j.j.0.0.0#Bak#l.G.j#B.j.0.C.C#W#B#Q",
"#W#7.j#j#W.c#W#j.j.Gak.V#j#Z.V#j.V#l#lak#p.A#Q.c.0.0#j#x#W.j#7.0.p.V.G#t#W#l.V.0#j#l#S#S.C.V#W#7",
"#7.j.C.c#x#t.0.G.p#W#pak.c.G.j#Q#7.A#x.0#j#Q.c#hak#x#W.A#x#B.c#p#x#G.C#x#p.C#x.c#Q#h#lak#B#p.G.j"
};
