/* XPM */
static char *white[] = {
/* width height num_colors chars_per_pixel */
"    48    48       45            1",
/* colors */
". c #9e9e9e",
"# c #9f9f9f",
"a c #a0a0a0",
"b c #a1a1a1",
"c c #a2a2a2",
"d c #a3a3a3",
"e c #a4a4a4",
"f c #a5a5a5",
"g c #a6a6a6",
"h c #a7a7a7",
"i c #a8a8a8",
"j c #a9a9a9",
"k c #aaaaaa",
"l c #ababab",
"m c #acacac",
"n c #adadad",
"o c #aeaeae",
"p c #afafaf",
"q c #b0b0b0",
"r c #b1b1b1",
"s c #b2b2b2",
"t c #b3b3b3",
"u c #b4b4b4",
"v c #b5b5b5",
"w c #b6b6b6",
"x c #b7b7b7",
"y c #b8b8b8",
"z c #b9b9b9",
"A c #bababa",
"B c #bbbbbb",
"C c #bcbcbc",
"D c #bdbdbd",
"E c #bebebe",
"F c #bfbfbf",
"G c #c0c0c0",
"H c #c1c1c1",
"I c #c2c2c2",
"J c #c3c3c3",
"K c #c4c4c4",
"L c #c5c5c5",
"M c #c6c6c6",
"N c #c7c7c7",
"O c #c8c8c8",
"P c #c9c9c9",
"Q c #cacaca",
/* pixels */
".aefbgjl.jtledrehhigdfkmrnehqkoffilj#ehrgefdaecd",
"abgmennigjiiichejkkyJnpglnkprkpsIFGrmcmptrleacc.",
"edcbkCtGCing#mIHINLLHLHjgGKNIILADIGJGCangjxFxumw",
"srlxyzHzFxIAGFLLGKJIJHILNLLIMFFIFJJDFFyDxptxzxqn",
"mwopxAwCzCyLFGDNLMNEFILOMOKFIxGIGLGBKIDFHysqutzi",
"usnEExCGEyGMuDHilsirFMMCyKGFIDxsBNJECEBDIzxptumu",
"qwyykvgonihhpoptsssvqltvurwNIFGtqkJFICDCDgdjgios",
"if#ilefjiehojprpxquqjvvuxstkrCBxBsrhrljmrtqljfpf",
"iebkjjqfmkrwztsvqxwrGtsuuxyutqotvjnmgiiipslndidi",
"fcptmgpBpvGJyzCyFCwBDrmppyqpnkovposormdilkuomwnd",
"vAtmtDDyEBMGCGAuBGMMHONMPMkINNMMKNHFJBFFmBurxqAw",
"uDwtuCBGADJzwJJLKONNNPPPOOMNPNPKLMLNGJJGDxEmwtBp",
"rFwGyyFxHDDJAHEMNPNNPPNNOOKNOPNIPMKKHHKLAGwuyEsv",
"xArkjvzyrzvGDIIFHLHMPPOPNPuunwuzqOKJIAIKIwtCDlvu",
"mrnwtusxqDvuwuuwltuxDmwGxtFxFCyvCtBBowilzJxuBktp",
"jpivtAuACsDCBHEFvBzwwxBDvyFIGzEEBCzvzDnfnmwAsqyv",
"msmxoryqtvywEutuyBCHFCFDGCyNNLHzzxDACwvtklhqmtso",
"wpklzBAFCxDEttJKMJMOPMMMQOQQPLNCECzzCABCGsrnrprl",
"tDyxvwxFyAEEFJKCOJFONNNPOQPQOOQOLGHGHBwIJKAEAlyt",
"mCAvvvDJwsACHJPGMNFMLNPOQOPNNOPPKDxEExHIJCFHvirw",
"uwsvyuAFxwCJEJKIKLHJLMQNQLDMINPGEvHJFHIIFHuDupnm",
"xtxxCvszAGDAEHIDKHGMNQNNONIIFJPJBJNEHFvEzxvHxtpv",
"sBBvruxpsGwKEELDHMNDGyyGIHKIBGHGILKFBuGzAAntzsBx",
"twyxlqCqIAKKvEDJIKEKFJIIMOJINELJKIOHstyJyEynryBw",
"rslylqqsFGLExGzHKHMCMKPPIONMMGDJDMIJKuABBptzzsBy",
"yqnprxCzutGMBEDCFJINIIKIIQJGEwwQHNHGCsrrDHFrzovf",
"tqjrtvAzyoAFMEDEEGMNNLCDDHDEJCECEEuDzAxDzzuqpnmj",
"oskqzyGwutuvEDDHuKGINJKDEEBGEEHDACvxzyBysCrqrwlo",
"tBvumruxDpzBFKyAwFNMFBPPOQHNPNIFBvIHByECJyAqyvpw",
"uEDCzBvByKJyEEIKJCGMJLOPPQPOQOIIFPJIGGExFEyCtArv",
"rtCAAxAEJECGzNKIMMLLJQPPOOOONKPFKIPMIEBFDJHEBxuw",
"xsHGxxxFAyxAKOKDPPNKIKLQLJOOPLPNLHALOyHFEJzEBzqz",
"ghkeDtsyHKruqMMJDwNyrEPPOMPFAIEwrBwoJJEIzuppsxrq",
"hmpkkhsolrsvsDywwGxzFHzDoCGFyAAmrxoErAxuvslyvskq",
"igkjkntygplnwrwABGvHzIvssytusDuAwqAzuyrshnlAtowg",
"qqouloxxywlgpBvzEFABBwwspxzuomqyPJxupgxrvpmvojnh",
"vwikzgwCEEFHMgitruxuszNPNOqrPKLOKJKGJGxpspCztwoh",
"yDwirCtzAJNJLMKMNMJJOOONNKOKMONLNLFJGEDGEFFttptr",
"uByvvAvzyDKHLHKKOHOKNLNPPJPMJFNJJIEILHAGEDxAwozz",
"vpwxssvznoIJKIFGELINNFJMEHNOLMMOJHHBjpGwDCzsuwBy",
"#avzxjqixhkmjJGBkhmrttqyvxqxxLrvvqlmioqsxxDBvyuu",
"phghddtolkmkilpqmyjtqtnnBsswDqvrswhgttmrqqvpjhdc",
"hdffkporpwskmupqfjshwsuugppuxkkpikmkhmmlgnjeejc.",
"dceelgkkvtjllqqrhtslnnniedke#ekorefeIzkgblcdhdgd",
"nvxBxglcnifGqdhFHMHLHIIJHDljmipKHKGEzzzEuhbg#wsy",
"ouwuwzqEDEyFEADAwFHIJNEFzIFJIGJICCEzBDFswpAwEvDw",
"osuIzFuECvDADBHGGJIJIJKDFKIGGHExCCJxzDBwstCyFEwr",
"tpvjzBtvCABHFEDEGBoHfeiILILLGKGAEHGyClgcBwGFuuie"
};
