/* XPM */
static char *white[] = {
/* width height num_colors chars_per_pixel */
"    48    48       51            1",
/* colors */
". c #cccccc",
"# c #cdcdcd",
"a c #cecece",
"b c #cfcfcf",
"c c #d0d0d0",
"d c #d1d1d1",
"e c #d2d2d2",
"f c #d3d3d3",
"g c #d4d4d4",
"h c #d5d5d5",
"i c #d6d6d6",
"j c #d7d7d7",
"k c #d8d8d8",
"l c #d9d9d9",
"m c #dadada",
"n c #dbdbdb",
"o c #dcdcdc",
"p c #dddddd",
"q c #dedede",
"r c #dfdfdf",
"s c #e0e0e0",
"t c #e1e1e1",
"u c #e2e2e2",
"v c #e3e3e3",
"w c #e4e4e4",
"x c #e5e5e5",
"y c #e6e6e6",
"z c #e7e7e7",
"A c #e8e8e8",
"B c #e9e9e9",
"C c #eaeaea",
"D c #ebebeb",
"E c #ececec",
"F c #ededed",
"G c #eeeeee",
"H c #efefef",
"I c #f0f0f0",
"J c #f1f1f1",
"K c #f2f2f2",
"L c #f3f3f3",
"M c #f4f4f4",
"N c #f5f5f5",
"O c #f6f6f6",
"P c #f7f7f7",
"Q c #f8f8f8",
"R c #f9f9f9",
"S c #fafafa",
"T c #fbfbfb",
"U c #fcfcfc",
"V c #fdfdfd",
"W c #fefefe",
/* pixels */
"osuxBHNSVTNFxmhb#cpDQTSPOMIFBvwtttngc#iqwADIPTVR",
"wADFKORTTRIzwnheb#jwJNOMPLFutqje.eccegjstAELRVTR",
"KPSVTPKGBungafjmruxAKKJJEBwtqlghfcb##jrxyCHNUWSU",
"SWSMHHzvqlebfiinptyGHFBxsnmifchkkie#gpuxzCHKMMQS",
"WTMGCytoiaccbdlqyFGGJIHIFwrnkgc.#fkmrxACEDDFGIKM",
"NJFAywqhcbijknpvyCIMKQPOKBrifcca#bgmptxABABDEEGI",
"ECzwphb..cglprqrtuwzAEBAvohc##.abcehknponommpvyD",
"rlid#cdabcdegjjijlkijijgdccba##...........#.adip",
"jda.cgmrttpljijkjkllllihhiihhhhhijkkifecabdfc##d",
"id#flnnomklmpqqqpponnmnnnnoqrtvxxxzBzupmmrxAzzvr",
"#eiknoopqstuuuvvwxzABBABBDDFIJMNSVWWWSOOKLLIKKJE",
"msyABDECCDGKLIFGIKMPSSUWTUUTRLFzsqpswzFNSVTWUROP",
"uxCFKNORTWVSSQOQQPMONNIEDzwrnknibadd#cjmsvAFCEEJ",
"GIJJLPUVURMIEDEzuqmnpklf.ccfjjkjklrrrqswqppje.ho",
"NOUWWVRQONLIFHEAsjd...ehloquzGHKNHHBByBIMOLFzri.",
"RQLKGIJIFEECAwvurmf#beefmnotzKQWVUPHwsuxCHHIArmn",
"GCAyvvxxyzBzwromkjkihabkpruBIUUQRRUTQMLNLNNLFyoj",
"gfhmnoorrqrqomigggfdbaipvzCHNWTQIKPSVTLCuwwutroj",
"#.#dhjjmnljgeefeefbcirvDHMVTPLKNOSWTTOGylfffkmoi",
"fehffecda..bedabefjostzHQSQLGCDGKPQMLUVNFzvxxupk",
"pqpolhd.ejmnnlknpmpqtvCHPWROOLLMOQRSNLNNORVRNHEy",
"cbaefd#cglnrrtxBCIMSUVWQKHEAFDEFKRWVUROJNVRNKFCx",
"bgfdcdgkqsyDIMRVQNGEAwwqlpvCJJFAzzDILPQQRWSPKGzz",
"jklorvzzDKSSHAsgfddccdecfiovDEGKFFAzCFGGJQUSUSWR",
"tuxzBDGOVGtkdemuvqnhda.aedgiosuzzuxzzABFEGCAABFQ",
"zywBGLRWOPGvjbkryCCBAxxwuupmh#acghlzJOQPLHFAuutB",
"npsxDIORUUNFuldbkrwAFLQNFyl#kqquzDIMQWWVQOOIGyxt",
"#bcdiptxAFLQSIFCvmgffjjmpuyKUUNJHMOMLKGGHLMPPTVP",
"gfdc##ciklntyDJHIOPRPMJHExtqoppomjikmqxEHKOLIJKL",
"jifec.afiknpqpoqqoputsnlkgda...aaa..b.cinppstsnl",
"toiknpmg#emswwpjjijkjjfb#acfkljjnpsvvtrppnlhgilo",
"Eyupmnkjg.hlrqmldaba.acffilmoptxDFHJKOOLJDzzFHJJ",
"SNIDAyxwroid.##.#.#acgjmoqtvyzCEHIIJLMMMNMMONKMM",
"VTOIHIIByvrmllecdgikntwzADGIJLNMMMNOPQRSUVUVVVRS",
"HNTWPLJKLNNHCzywtuxBJOSUVVVWWUUVVUUTSRPONLJIJHGH",
"DHMQUWWPRSTPKNOMNQTWTPMKLNOONLKJJJJJIGDAywvwvtst",
"rwFHQTPNPRQQSQMLKIHGEDEEEDDCBAzAzzzzzxwvtsqnmlkj",
"aaeiifiighlmjjmortsstttsttsrqqppppppooonnmkigca.",
"nlhhghhghedcba#bdfhjklnmonmljjigfecccbbaa#.#aeim",
"vtusqpppqokiigedcbc#..##abbbdeb.beghhijklmlmqsxC",
"JGFEBussrqoppomljjihhhhiiiiijjkmnqttuwwzAABEGJMP",
"QPNMFBBAxvvstsqpnmnnoooprrstuuuxzBDEEFFGJLOOPRUV",
"TWQLJFBywxzwvvuuwvwwwxyBCDEGGHIKLMOQQQRTVWWVUSPL",
"PUWSLCyzzzDEGHFFFEEFEFHJJJLNQRTUVWWVUTTSRPNMKHGF",
"wDLVPJFABBBCGKKMNLJJKLLKIJLQVWUUSRRQRQRRPMKHFEEF",
"ptzGKQUSNLHECJLJIIMOQRSRTUVVWSQRVURPPOQPNLJIJHFJ",
"moryBIPQVWUPQPNKFBzDJNTWWUSTRQRRPSSTSSSPNLJIGIJL",
"yDFHIMPQRVROOOQQOPKHGHIOSWTUTUVUWVUNHDCCBDGHGIKJ"
};
