/* XPM */
static char * white_xpm[] = {
"48 48 12 1",
" 	c #EFBEEFBEEFBE",
".	c #F7DEF3CEF7DE",
"X	c #EFBEEBADEFBE",
"o	c #E79DE38DE79D",
"O	c #DF7DDF7DDF7D",
"+	c #E79DE79DE79D",
"@	c #DF7DDB6CDF7D",
"#	c #F7DEF7DEF7DE",
"$	c #FFFFFBEEFFFF",
"%	c #D75CD75CD75C",
"&	c #FFFFFFFFFFFF",
"*	c #D75CD34CD75C",
"   .X XoOOOOX+XoX.+X.++X+OOXOo++X. OOo@+O+o XOOX",
". X# .X+Ooo++Xo.X .XXo @++ +oO+O o.+oOOo+X +o+X+",
"$.#+  #X o+O+Xo +X X++.+++o%@OoO# #+Xo@@@oXX#...",
"%+X&.$ .Oo@OX+@ooX.X+++oO +oooXX$#&X+oOOOo+oo@OX",
"$.X@ .&$#XXo@+  ++X +XX o.o@&++.&&&oX+++oOoo oO+",
"*+oOOOX . . XX XX    ...+.+oX #$+% $.X+oO@ooXo+X",
"X+ o+o@XO#$&#. o .  $#.Xo. .+XOo+%@. +++oOOOoo+ ",
"@O@ o%oo +.+@X&.#  #&&&.XXX+oXooo@OXX+X Xo@%@@o+",
"OOO%XOO +. ++o+@.&&&&$&++X#$. ..O+.@.XX X+oOXoo+",
"++oooooo+#& +o+o@Oo@*%XXo+o@X X$# + .  X X+O@oXo",
"OO+.O%o. &&+XoOoooX. +X++ o@O.X XXX. .&o o @+o.o",
"+Oo#&& +++  oOoX +oX +X+oooO@ +o+...o.  o ++O*+O",
"# X.X$ +XoX&.$##&#+o. .. X+ o+oo+..o +XX o+X+O+O",
"..  .. X@@.&&$ X#&$&&..#$$...oo+@OX%$X+X oOO++o+",
"X## .$#$$.$&.+OX.  #.XXX.#.$.o++@@.+##oXO.OO+.XX",
"X##. #O%oo+.#X.$#o@@+X +X .& ++o++$. XXO+X.+%++o",
"o+ooXX++Oo# . .#X+XXXX+o+XoX# oO. .o  o o X.OX.o",
"ooXoXo+ .. X++ + X.XX++oO@oX+  XX  +..++XX++.+++",
"OoXo+O+XXXX+  .X +XoX+++oO+XX.$$#  .oXXXX++X...o",
"oo+o++X X++ooo++ +X+@oX.. XX.XX.$#.Xo+XXXX+X .# ",
"++X+  . +ooOoOo++@@O X++o+X X..  .##X+oo+X+oO.&.",
"     .. ++oO+ooXo@%O@Oo+XX++X .X+X .# oOOOoOX+X.",
" . ..#$.XX XXX+ +ooXOooo+X   +o+Xooo#. XOO++OoXX",
"X.X .$&#X #.##  ++O++X  X+O%X+X +@OXXX..X+  X@oX",
"X.++.&&#X ##  oX+ XXoooo+++o+oO@OooO@OX#.  XX+Xo",
"  X.#&$....+XoX++Xo+OOO+X   ooooO@O+ooo+.# +   %",
"X #$&&X+XXX+  .+o XX+++oo+XX+o@@OoOO%O++oo+.XX++",
"#.$&&$+oXXXX+X XX o@X . XXXXOOO@@OOo+OOoooo+.#$ ",
"# + # oo+++o X  X++X@+  XX+o+XXoOOOOO@OooOoX#.o%",
" Xoo++X+o+oOO+XXO@+.o+X++XX+OOOO+ XoX+oXXX #+&.#",
"O+ +oo Xo++oo XXX .+XXX  X+oo++ #&&$$ ++XXXX  + ",
"OOX+o%ooOoOo X@%oX.oooX  +O@++++oo+X&&$$#..# + X",
".+OXX*O+++OooX+X+@++X++ Xoo+XO@O+XX  +OX$&#+ #X.",
"XoOo+#*@+Ooo+ X oXoXXOX+  o+ +oX+++XX#  .  X+++X",
"X +OX&@O@+@O+++ +X++++oo XX@+o+ XXX++#. Xo+X+++X",
"++o+.&&@+OX+X+oO+X.#o +oXX#oX+O@O+X  #   XX++++X",
"&# ..##OoXo+ X +XOO%@XXoo+$#O o%+XoX##  ... +oo+",
"+.# X & +O@+.  O+OX @OXOOo $.$.+ ##.X.  X+. XoOO",
"X ..XX&&$OO+  #  ooOXOXOooo #. +O $   XX++ + +OO",
"& X .X+&$&+@ooOO@o+XX+X+Xooo.#$##$$ # +XX  O +oo",
"+ $&  #&&&$.+XoXoXo+O+XXX@o@X& o$$ $    XX +++oO",
"+X...#$&&&$ o.X%OX+  oX%O+X.o$&&&##$ . #+X+XX+Oo",
"X #O# +@o &&#O. Oo@O@oX+XOo@O+ $$  X.. +O+XX++oo",
"  o OoX+XoXX#&#. +XX+ +oo@X++O+&&##X+X. XOo+X +o",
"& .o ++O+@XXoo&$ $X+OooooO++o@O.$$$.X+..#Ooo++Oo",
"X&.++oo+.o +@OO$&X ++oX+o+@O+Xo+.#$#$  +.XXOo+oo",
"o+&$. Oo++ +XXO@#$+.XOOOO.X$o O%Oo+X #$++X oo  X",
"X  &#&+ o++o+XO++.&OX+o+Oo@O  ++oO++@ ##X X+@++X"};
